<?xml version="1.0" encoding="UTF-8" standalone="no"?>
<svg
   xmlns:dc="http://purl.org/dc/elements/1.1/"
   xmlns:cc="http://creativecommons.org/ns#"
   xmlns:rdf="http://www.w3.org/1999/02/22-rdf-syntax-ns#"
   xmlns:svg="http://www.w3.org/2000/svg"
   xmlns="http://www.w3.org/2000/svg"
   xmlns:sodipodi="http://sodipodi.sourceforge.net/DTD/sodipodi-0.dtd"
   xmlns:inkscape="http://www.inkscape.org/namespaces/inkscape"
   inkscape:export-ydpi="96"
   inkscape:export-xdpi="96"
   inkscape:export-filename="C:\Users\yarov\Documents\newone\img\done\chev.png"
   width="99.762924mm"
   height="99.999992mm"
   viewBox="0 0 99.762924 99.999992"
   version="1.1"
   id="svg866"
   inkscape:version="1.0 (4035a4fb49, 2020-05-01)"
   sodipodi:docname="chev.svg">
  <defs
     id="defs860" />
  <sodipodi:namedview
     id="base"
     pagecolor="#ffffff"
     bordercolor="#666666"
     borderopacity="1.0"
     inkscape:pageopacity="0.0"
     inkscape:pageshadow="2"
     inkscape:zoom="1.3232369"
     inkscape:cx="379.82891"
     inkscape:cy="243.73438"
     inkscape:document-units="mm"
     inkscape:current-layer="layer1"
     inkscape:document-rotation="0"
     showgrid="false"
     inkscape:window-width="1920"
     inkscape:window-height="1017"
     inkscape:window-x="-8"
     inkscape:window-y="-8"
     inkscape:window-maximized="1" />
  <metadata
     id="metadata863">
    <rdf:RDF>
      <cc:Work
         rdf:about="">
        <dc:format>image/svg+xml</dc:format>
        <dc:type
           rdf:resource="http://purl.org/dc/dcmitype/StillImage" />
        <dc:title></dc:title>
      </cc:Work>
    </rdf:RDF>
  </metadata>
  <g
     inkscape:label="Слой 1"
     inkscape:groupmode="layer"
     id="layer1"
     transform="translate(-5.3369331,-3.6979693)">
    <path
       inkscape:export-ydpi="96"
       inkscape:export-xdpi="96"
       d="M 55.722589,3.7002787 A 49.881451,49.99977 3.531521 0 1 56.465011,3.7156507 49.881451,49.99977 3.531521 0 1 105.08435,54.932012 49.881451,49.99977 3.531521 0 1 53.971866,103.68272 49.881451,49.99977 3.531521 0 1 5.3525218,52.463315 49.881451,49.99977 3.531521 0 1 55.722589,3.7003737 Z m 9.401204,21.6438993 c -1.547455,-0.167972 -3.764786,0.381468 -5.209306,1.726257 l -22.236629,21.88833 c 0,0 -1.020836,0.796921 -1.784306,2.037901 -0.571138,0.928112 -0.94433,2.208893 -0.922749,3.027821 0.01774,0.724891 0.437518,1.836666 0.959406,2.655074 0.898273,1.408211 2.102039,2.407598 2.102039,2.407598 L 59.107857,80.27887 c 1.153157,0.953953 2.567701,1.779203 4.084943,2.031783 1.69964,-0.006 3.048852,-0.46512 4.656318,-1.62849 1.22647,-1.187142 2.018851,-2.436943 2.208994,-4.396599 0.123569,-1.274698 -0.433971,-2.828029 -1.3932,-4.201068 -0.370117,-0.426699 -0.748689,-0.994107 -1.249647,-1.362674 L 50.281045,54.024487 67.87661,36.428892 c 1.270932,-1.445454 2.538907,-3.343385 2.487055,-5.692065 -0.137759,-1.239383 -0.688086,-2.547847 -1.237408,-3.214199 -0.813193,-0.986503 -2.385243,-2.002882 -4.002464,-2.17845 z"
       style="fill:#ffffff;fill-opacity:0.902724;fill-rule:evenodd;stroke-width:0.882185;stroke-opacity:0.988327"
       id="path22" />
  </g>
</svg>
