<?xml version="1.0" encoding="UTF-8" standalone="no"?>
<svg
   xmlns:vectornator="http://vectornator.io"
   xmlns:dc="http://purl.org/dc/elements/1.1/"
   xmlns:cc="http://creativecommons.org/ns#"
   xmlns:rdf="http://www.w3.org/1999/02/22-rdf-syntax-ns#"
   xmlns:svg="http://www.w3.org/2000/svg"
   xmlns="http://www.w3.org/2000/svg"
   xmlns:sodipodi="http://sodipodi.sourceforge.net/DTD/sodipodi-0.dtd"
   xmlns:inkscape="http://www.inkscape.org/namespaces/inkscape"
   inkscape:export-ydpi="96"
   inkscape:export-xdpi="96"
   inkscape:export-filename="C:\Users\yarov\Documents\newone\img\done\vtc.png"
   inkscape:version="1.0 (4035a4fb49, 2020-05-01)"
   sodipodi:docname="vtc.svg"
   id="svg56"
   viewBox="0 0 3840 2160"
   version="1.1"
   width="100%"
   xml:space="preserve"
   style="fill-rule:evenodd;clip-rule:evenodd;stroke-linecap:round;stroke-linejoin:round;"
   height="100%"><sodipodi:namedview
   inkscape:current-layer="svg56"
   inkscape:window-maximized="1"
   inkscape:window-y="-8"
   inkscape:window-x="-8"
   inkscape:cy="1050.1477"
   inkscape:cx="1542.3255"
   inkscape:zoom="0.41799165"
   inkscape:snap-page="false"
   inkscape:snap-grids="true"
   showgrid="true"
   id="namedview58"
   inkscape:window-height="1017"
   inkscape:window-width="1920"
   inkscape:pageshadow="2"
   inkscape:pageopacity="0"
   guidetolerance="10"
   gridtolerance="10"
   objecttolerance="10"
   borderopacity="1"
   bordercolor="#666666"
   pagecolor="#ffffff"><inkscape:grid
     id="grid883"
     type="xygrid" /></sodipodi:namedview>
<metadata
   id="metadata35">
<vectornator:setting
   value="0"
   key="DisplayWhiteBackground" />
<vectornator:setting
   value="1"
   key="RulersVisible" />
<vectornator:setting
   value="36"
   key="GridSpacing" />
<vectornator:setting
   value="Pixels"
   key="Units" />
<vectornator:setting
   value="1"
   key="New" />
<vectornator:setting
   value="0"
   key="DynamicGuides" />
<vectornator:setting
   value="0"
   key="SnapToPoints" />
<vectornator:setting
   value="0"
   key="CMYKEnabledKey" />
<vectornator:setting
   value="0"
   key="SnapToGrid" />
<vectornator:setting
   value="1"
   key="SnapToGuides" />
<vectornator:setting
   value="0"
   key="SnapToEdges" />
<rdf:RDF><cc:Work
     rdf:about=""><dc:format>image/svg+xml</dc:format><dc:type
       rdf:resource="http://purl.org/dc/dcmitype/StillImage" /></cc:Work></rdf:RDF></metadata>
<defs
   id="defs37" />
<g
   transform="matrix(0.765,0,0,0.765,469.57,210.1)"
   vectornator:layerName="Layer 2"
   id="Layer 2">
<path
   style="fill:#999999;fill-opacity:1"
   id="path39"
   fill="#000000"
   opacity="1"
   d="m 2908.87,768.171 c -54.54,-39.716 -132.21,-37.906 -147.73,2.725 -17.78,46.564 24.37,67.379 40.44,72.745 54.69,18.258 68.38,47.352 68.38,47.352 0,0 40.47,41.129 79.59,15.079 28.21,-18.789 32.73,-84.453 -40.68,-137.901 z" />
<path
   style="fill:#999999;fill-opacity:1"
   id="path41"
   fill="#000000"
   opacity="1"
   d="m 2911.96,1395.7276 c -64.26,49.06 -130.95,42.06 -147.74,1.94 -19.24,-45.98 22.22,-68.12 38.12,-73.99 54.08,-19.97 66.85,-49.49 66.85,-49.49 0,0 39.15,-42.38 79.07,-17.58 28.79,17.89 48.14,74.65 -36.3,139.12 z" />
<path
   sodipodi:nodetypes="sccssssscscscscccs"
   style="fill:#999999;fill-opacity:1"
   id="path43"
   fill="#000000"
   opacity="1"
   d="m 2660.7051,1450.9781 c -37.12,0 -69.3163,-5.0837 -99.7163,-12.1237 -62.7016,-15.4626 -117.76,-58.8544 -151.19,-94.2844 -18.56,-22.08 -34.4,-46.8 -47.52,-74.16 -13.12,-27.36 -22.96,-56.56 -29.52,-87.6 -6.56,-31.04 -8.2586,-71.9071 -8.2586,-106.7871 0,-56.63 6.6586,-99.4449 23.1386,-144.2439 16.48,-44.798 40.08,-83.117 70.8,-114.956 30.72,-31.839 66.72,-56.079 108,-72.718 41.27,-16.64 85.27,-24.959 131.99,-24.959 30.32,0 61.44,12.069 63.31,56.202 2.16,50.577 -45.14,57.074 -62.35,57.074 -58.56,0 -116.16,27.578 -152.16,59.578 -44,48 -57.7739,108.4914 -57.7739,190.4044 0,54.72 -2.0874,106.9562 57.7739,187.5956 31.1943,31.6966 93.5729,63.0405 147.36,63.53 20.22,0 66.08,7.85 68.23,49.81 2.33,45.46 -37.3237,67.6381 -62.1137,67.6381 z" />


<path
   sodipodi:nodetypes="ccccccccscsc"
   style="fill:#999999;fill-opacity:1"
   id="path49"
   fill="#000000"
   opacity="1"
   d="m 1862,860 c 20,20 20,60 20,60 v 453.0719 c 0,0 1.0458,77.7778 61.0458,77.7778 60,0 58.9542,-80.3922 58.9542,-80.3922 V 800 c 0,0 0,-80 -80,-80 -7.66,-0.434 -199.92,1.254 -199.92,1.254 0,0 -84.4498,-1.25231 -82.2414,59.39206 C 1642,840 1722,840 1722,840 l 82.7549,1.08926 C 1842,841.5795 1854.6148,852.61475 1862,860 Z" />
<path
   sodipodi:nodetypes="ccccccc"
   style="fill:#999999;fill-opacity:1"
   id="path51"
   fill="#000000"
   opacity="1"
   d="m 2293.0718,780 c 0,-60 -82.61,-59.167 -82.61,-59.167 l -94.86,-0.113 c 0,0 -82.53,-0.72 -82.53,59.28 0,60 80,60 80,60 h 100 c 0,0 80,0 80,-60 z" />
<path
   id="path53"
   fill="#000000"
   opacity="1"
   d="M 1768.48,-497.12" />
</g>
<path
   inkscape:transform-center-y="10.304966"
   inkscape:transform-center-x="-20.005061"
   d="M 1468.54,1241.2 1269.6248,801.90546 c 0,0 -24.892,-55.90903 -66.8238,-37.23983 -41.9319,18.66918 -17.0396,74.57832 -17.0396,74.57832 l 198.9153,439.29455 c 0,0 24.8923,55.9091 66.824,37.2397 41.9319,-18.6693 17.0393,-74.5782 17.0393,-74.5782 z"
   opacity="1"
   fill="#000000"
   id="path49-2"
   style="clip-rule:evenodd;fill:#999999;fill-opacity:1;fill-rule:evenodd;stroke-width:0.765;stroke-linecap:round;stroke-linejoin:round"
   sodipodi:nodetypes="cccccsc" /><path
   sodipodi:nodetypes="cccccsc"
   style="clip-rule:evenodd;fill:#999999;fill-opacity:1;fill-rule:evenodd;stroke-width:0.765;stroke-linecap:round;stroke-linejoin:round"
   id="path49-2-0"
   fill="#000000"
   opacity="1"
   d="M 1469.8777,1115.8855 1597.18,815.98 c 0,0 23.2782,-71.70648 74.6577,-51.9945 40.4836,19.40208 10.5901,86.1074 10.5901,86.1074 l -128.048,301.6617 c 0,0 -23.9127,56.335 -66.1638,38.4003 -42.2514,-17.9346 -18.3383,-74.2694 -18.3383,-74.2694 z"
   inkscape:transform-center-x="19.822154"
   inkscape:transform-center-y="10.652514" /></svg>
