<?xml version="1.0" encoding="UTF-8" standalone="no"?>
<svg
   xmlns:dc="http://purl.org/dc/elements/1.1/"
   xmlns:cc="http://creativecommons.org/ns#"
   xmlns:rdf="http://www.w3.org/1999/02/22-rdf-syntax-ns#"
   xmlns:svg="http://www.w3.org/2000/svg"
   xmlns="http://www.w3.org/2000/svg"
   xmlns:sodipodi="http://sodipodi.sourceforge.net/DTD/sodipodi-0.dtd"
   xmlns:inkscape="http://www.inkscape.org/namespaces/inkscape"
   sodipodi:docname="letters.svg"
   inkscape:version="1.0 (4035a4fb49, 2020-05-01)"
   id="svg329"
   version="1.1"
   viewBox="0 0 210 297"
   height="297mm"
   width="210mm">
  <defs
     id="defs323">
    <inkscape:path-effect
       effect="spiro"
       id="path-effect1555"
       is_visible="true"
       lpeversion="1" />
    <inkscape:path-effect
       effect="spiro"
       id="path-effect1536"
       is_visible="true"
       lpeversion="1" />
    <inkscape:path-effect
       lpeversion="1"
       is_visible="true"
       id="path-effect1517"
       effect="spiro" />
    <inkscape:path-effect
       effect="spiro"
       id="path-effect1498"
       is_visible="true"
       lpeversion="1" />
    <inkscape:path-effect
       lpeversion="1"
       is_visible="true"
       id="path-effect1479"
       effect="spiro" />
    <inkscape:path-effect
       effect="spiro"
       id="path-effect1460"
       is_visible="true"
       lpeversion="1" />
    <inkscape:path-effect
       lpeversion="1"
       is_visible="true"
       id="path-effect1404"
       effect="spiro" />
    <inkscape:path-effect
       effect="spiro"
       id="path-effect1385"
       is_visible="true"
       lpeversion="1" />
    <inkscape:path-effect
       effect="spiro"
       id="path-effect1366"
       is_visible="true"
       lpeversion="1" />
    <inkscape:path-effect
       lpeversion="1"
       is_visible="true"
       id="path-effect1347"
       effect="spiro" />
    <inkscape:path-effect
       effect="spiro"
       id="path-effect1328"
       is_visible="true"
       lpeversion="1" />
    <inkscape:path-effect
       lpeversion="1"
       is_visible="true"
       id="path-effect1309"
       effect="spiro" />
    <inkscape:path-effect
       lpeversion="1"
       is_visible="true"
       id="path-effect1275"
       effect="spiro" />
    <inkscape:path-effect
       effect="spiro"
       id="path-effect1256"
       is_visible="true"
       lpeversion="1" />
    <inkscape:path-effect
       lpeversion="1"
       is_visible="true"
       id="path-effect1237"
       effect="spiro" />
    <inkscape:path-effect
       effect="spiro"
       id="path-effect1218"
       is_visible="true"
       lpeversion="1" />
    <inkscape:path-effect
       lpeversion="1"
       is_visible="true"
       id="path-effect1199"
       effect="spiro" />
    <inkscape:path-effect
       effect="spiro"
       id="path-effect1191"
       is_visible="true"
       lpeversion="1" />
    <inkscape:path-effect
       lpeversion="1"
       is_visible="true"
       id="path-effect345"
       effect="spiro" />
  </defs>
  <sodipodi:namedview
     inkscape:window-maximized="1"
     inkscape:window-y="-8"
     inkscape:window-x="-8"
     inkscape:window-height="1017"
     inkscape:window-width="1920"
     inkscape:snap-grids="false"
     showgrid="true"
     inkscape:document-rotation="0"
     inkscape:current-layer="layer1"
     inkscape:document-units="mm"
     inkscape:cy="242.7638"
     inkscape:cx="569.77269"
     inkscape:zoom="2.6684744"
     inkscape:pageshadow="2"
     inkscape:pageopacity="0.0"
     borderopacity="1.0"
     bordercolor="#666666"
     pagecolor="#ffffff"
     id="base">
    <inkscape:grid
       id="grid1195"
       type="xygrid" />
  </sodipodi:namedview>
  <metadata
     id="metadata326">
    <rdf:RDF>
      <cc:Work
         rdf:about="">
        <dc:format>image/svg+xml</dc:format>
        <dc:type
           rdf:resource="http://purl.org/dc/dcmitype/StillImage" />
        <dc:title></dc:title>
      </cc:Work>
    </rdf:RDF>
  </metadata>
  <g
     id="layer1"
     inkscape:groupmode="layer"
     inkscape:label="Слой 1">
    <path
       d="m 98.912093,67.436382 c 1.730807,-1.79949 3.035957,-6.229473 2.884367,-9.152074 -0.2435,-4.694623 -1.6633,-8.722486 -4.989857,-12.064693 -3.342205,-3.342183 -7.363753,-5.013274 -12.064695,-5.013274 v -4.9e-5 c -4.716552,0 -8.738125,1.671092 -12.064692,5.013275 -3.342182,3.342207 -5.013275,7.363755 -5.013275,12.064692 0,4.700939 1.671093,8.722511 5.013275,12.064694 3.011972,3.011971 6.59331,4.666261 10.745209,4.945227 0.251981,0.01693 1.456742,-0.07499 2.163544,-1.204155 0.721801,-1.253548 0.734088,-2.35236 0.220987,-3.203482 -0.561413,-0.931258 -1.751805,-1.565986 -3.329994,-1.782421 -2.088459,-0.440714 -3.947477,-1.418205 -5.55953,-3.018626 -2.15525,-2.155249 -3.232874,-4.755605 -3.232874,-7.801067 0,-3.045436 1.077624,-5.645792 3.232874,-7.801041 2.170865,-2.170864 4.779016,-3.256309 7.824476,-3.256309 3.045463,0 5.645815,1.085445 7.801047,3.256309 2.155248,2.155249 3.232868,4.755605 3.232868,7.801041 0,2.078483 -1.00524,4.842402 -1.72367,5.724673 -0.908542,1.819768 -0.293869,3.590478 0.470727,4.03952 1.941223,1.813138 4.144393,-0.135271 4.389213,-0.61224 z M 88.373041,62.969581 c -0.812149,-0.187419 -1.679283,-0.09898 -2.382084,0.338255 -0.702801,0.437311 -1.0382,1.098578 -1.225613,1.910689 -0.187484,0.812134 0.01073,1.459871 0.447962,2.162671 2.184052,3.455597 6.879975,10.270871 6.879975,10.270871 0.912864,0.759378 2.22819,0.786171 3.096892,0.310589 0.70281,-0.437311 1.25759,-1.062009 1.44501,-1.874143 0.18748,-0.796496 -0.0473,-1.553963 -0.48453,-2.272379 -2.061145,-3.0704 -6.005653,-9.4067 -6.005653,-9.4067 -0.473781,-0.601839 -1.091678,-1.276612 -1.771959,-1.439853 z"
       style="font-size:19.7556px;line-height:1.25;font-family:Königsberg;-inkscape-font-specification:Königsberg;stroke-width:0.642555"
       id="path353"
       sodipodi:nodetypes="cscsscssscsccssscsccccssccccccc" />
    <path
       inkscape:original-d="m 73.69858,57.901487 c -3.591664,-3.799866 7.079045,-7.182787 10.618301,-10.774452 3.539253,-3.591664 7.59955,7.911855 11.399052,11.867513 3.79951,3.955658 -7.495095,6.870844 -11.242903,10.305996 -3.747813,3.435153 -7.182786,-7.599191 -10.77445,-11.399057 z"
       inkscape:path-effect="#path-effect345"
       id="path343"
       d="m 73.69858,57.901487 c 0.07772,-2.775171 1.23467,-5.508047 3.180855,-7.487941 1.946184,-1.979894 4.663065,-3.184431 7.437446,-3.286511 3.090846,-0.113724 6.204471,1.155709 8.343978,3.389265 2.139507,2.233556 3.273361,5.393023 3.055074,8.478248 -0.19797,2.798075 -1.496313,5.505484 -3.561635,7.403605 -2.065322,1.898121 -4.876884,2.964426 -7.681268,2.902391 -2.905286,-0.06427 -5.762686,-1.342204 -7.755996,-3.456805 -1.99331,-2.1146 -3.099802,-5.037394 -3.018454,-7.942252 z"
       style="fill:none;stroke:#ff0000;stroke-width:0.179879px;stroke-linecap:butt;stroke-linejoin:miter;stroke-opacity:1" />
    <path
       style="fill:none;stroke:#ff0000;stroke-width:0.276863px;stroke-linecap:butt;stroke-linejoin:miter;stroke-opacity:1"
       d="m 67.733564,57.802005 c 0.119619,-4.27146 1.900369,-8.477822 4.895877,-11.525215 2.995509,-3.047394 7.177251,-4.901381 11.447496,-5.058501 4.757339,-0.175042 9.549741,1.778829 12.842809,5.216651 3.293064,3.437823 5.038264,8.300782 4.702284,13.04947 -0.30471,4.306716 -2.303082,8.47388 -5.481966,11.395412 -3.178883,2.921532 -7.506359,4.562756 -11.822785,4.467273 -4.471731,-0.09892 -8.869756,-2.065882 -11.9378,-5.320612 -3.068043,-3.254729 -4.771124,-7.753406 -4.645915,-12.224478 z"
       id="path343-4"
       inkscape:path-effect="#path-effect1191"
       inkscape:original-d="M 67.733564,57.802005 C 62.205384,51.953363 78.629421,46.746471 84.076937,41.218289 89.524446,35.690105 95.773943,53.39598 101.62203,59.48441 107.47012,65.572842 90.085799,70.059809 84.317279,75.347095 78.548749,80.634377 73.261747,63.650645 67.733564,57.802005 Z" />
    <path
       style="fill:none;stroke:#ff0000;stroke-width:0.0483428px;stroke-linecap:butt;stroke-linejoin:miter;stroke-opacity:1"
       d="m 93.557529,65.701391 c 0.02089,-0.745833 0.331818,-1.4803 0.854858,-2.012402 0.523039,-0.532103 1.253205,-0.855828 1.998826,-0.883266 0.830676,-0.03057 1.667476,0.310595 2.242477,0.910871 0.575001,0.600276 0.879728,1.449394 0.821063,2.27856 -0.05321,0.751991 -0.402137,1.479615 -0.957198,1.989742 -0.55506,0.510126 -1.310676,0.7967 -2.064362,0.780028 -0.780805,-0.01727 -1.548739,-0.360722 -2.084447,-0.929028 -0.535707,-0.568306 -0.83308,-1.353815 -0.811217,-2.134505 z"
       id="path343-6"
       inkscape:path-effect="#path-effect1218"
       inkscape:original-d="m 93.557529,65.701391 c -0.965286,-1.021227 1.902504,-1.930397 2.853684,-2.895668 0.95119,-0.965273 2.0424,2.126336 3.06354,3.189431 1.021137,1.063096 -2.01433,1.846562 -3.02156,2.76977 -1.00725,0.923209 -1.93041,-2.042306 -2.895664,-3.063533 z" />
    <path
       inkscape:original-d="m 80.247066,72.239289 c -0.965278,-1.021228 1.902512,-1.930398 2.853689,-2.895669 0.951191,-0.965273 2.042408,2.126336 3.063541,3.189431 1.021139,1.063098 -2.014328,1.846562 -3.021564,2.76977 -1.007242,0.92321 -1.930407,-2.042306 -2.895666,-3.063532 z"
       inkscape:path-effect="#path-effect1237"
       id="path343-6-4"
       d="m 80.247066,72.239289 c 0.02089,-0.745834 0.331819,-1.480302 0.85486,-2.012404 0.52304,-0.532103 1.253207,-0.855828 1.998829,-0.883265 0.830676,-0.03057 1.667476,0.310596 2.242477,0.910871 0.575001,0.600276 0.879729,1.449394 0.821064,2.27856 -0.0532,0.751992 -0.402138,1.479616 -0.9572,1.989742 -0.555061,0.510127 -1.310677,0.7967 -2.064364,0.780028 -0.780805,-0.01727 -1.548739,-0.360722 -2.084447,-0.929027 -0.535708,-0.568306 -0.833081,-1.353815 -0.811219,-2.134505 z"
       style="fill:none;stroke:#ff0000;stroke-width:0.0483428px;stroke-linecap:butt;stroke-linejoin:miter;stroke-opacity:1" />
    <path
       style="fill:none;stroke:#ff0000;stroke-width:0.0450279px;stroke-linecap:butt;stroke-linejoin:miter;stroke-opacity:1"
       d="m 91.168929,75.452567 c 0.01945,-0.694692 0.309067,-1.378798 0.796244,-1.874413 0.487176,-0.495616 1.167276,-0.797142 1.861771,-0.822697 0.773716,-0.02847 1.553134,0.2893 2.088707,0.848414 0.535573,0.559114 0.819405,1.350007 0.764762,2.122316 -0.04956,0.700426 -0.374563,1.378155 -0.891562,1.853301 -0.517,0.475146 -1.220801,0.742069 -1.922806,0.726542 -0.727266,-0.01609 -1.442545,-0.335984 -1.94152,-0.86532 -0.498976,-0.529337 -0.775959,-1.260985 -0.755596,-1.988143 z"
       id="path343-6-4-1"
       inkscape:path-effect="#path-effect1256"
       inkscape:original-d="m 91.168929,75.452567 c -0.89909,-0.951202 1.772053,-1.798029 2.658015,-2.69711 0.885969,-0.899083 1.902359,1.98053 2.853469,2.97073 0.95113,0.990198 -1.8762,1.719939 -2.814368,2.579843 -0.938175,0.859904 -1.798042,-1.902264 -2.697116,-2.853463 z" />
    <path
       inkscape:original-d="m 84.751311,65.554299 c -0.899086,-0.951201 1.772058,-1.798027 2.658013,-2.697109 0.88597,-0.899082 1.902366,1.980531 2.853471,2.97073 0.951116,0.990198 -1.876199,1.71994 -2.814369,2.579842 -0.938175,0.859905 -1.798042,-1.902261 -2.697115,-2.853463 z"
       inkscape:path-effect="#path-effect1275"
       id="path343-6-4-1-5"
       d="m 84.751311,65.554299 c 0.01945,-0.694692 0.309067,-1.378797 0.796243,-1.874412 0.487176,-0.495616 1.167276,-0.797142 1.86177,-0.822697 0.773716,-0.02847 1.553135,0.289299 2.088708,0.848413 0.535573,0.559114 0.819406,1.350008 0.764763,2.122317 -0.04956,0.700426 -0.374564,1.378155 -0.891563,1.853301 -0.517,0.475146 -1.220801,0.742068 -1.922806,0.726541 -0.727265,-0.01609 -1.442544,-0.335984 -1.94152,-0.865321 -0.498975,-0.529336 -0.775958,-1.260984 -0.755595,-1.988142 z"
       style="fill:none;stroke:#ff0000;stroke-width:0.0450278px;stroke-linecap:butt;stroke-linejoin:miter;stroke-opacity:1" />
    <path
       sodipodi:nodetypes="ccsscccccccccsccscsscsscccc"
       d="m 128.07978,65.428044 10.86828,11.830772 c 0.64955,0.684668 1.43958,1.044552 2.37002,1.079692 0.93048,0.03518 1.73804,-0.263438 2.42272,-0.895369 0.68469,-0.632011 1.04458,-1.413239 1.07968,-2.343707 0.0527,-0.948026 -0.23696,-1.76436 -0.86902,-2.449029 l -12.1662,-13.193229 12.11354,-12.77189 c 0.64956,-0.684696 0.96559,-1.492267 0.94802,-2.422712 -0.0351,-0.930476 -0.39501,-1.720492 -1.07968,-2.370055 -0.66711,-0.632009 -1.46592,-0.939236 -2.39638,-0.921683 -0.94802,0.01911 -1.73805,0.369307 -2.37005,1.053348 l -11.25344,11.875185 c -1.80429,1.492268 -2.5173,3.819162 -2.43771,5.965933 0.0767,2.070032 1.31459,3.978233 2.77022,5.562744 z m -4.53691,-23.456441 c -0.63673,-0.586418 -1.46592,-1.000686 -2.39637,-1.000686 -0.94803,0 -1.74681,0.333571 -2.3964,1.000686 -0.66711,0.649562 -1.00069,1.439579 -1.00069,2.370055 v 30.599844 c 0,0.948026 0.33358,1.746811 1.00069,2.396397 0.64959,0.667119 1.44837,1.000691 2.3964,1.000691 0.93045,0 1.83326,-0.343239 2.39637,-1.000691 0.67825,-0.791904 0.98234,-1.948195 0.96459,-2.94334 -0.16134,-9.493557 -0.0598,-26.709871 -0.0376,-30.054375 0.0109,-0.81317 -0.38063,-1.828517 -0.92678,-2.368581 z"
       style="font-size:19.7556px;line-height:1.25;font-family:Königsberg;-inkscape-font-specification:Königsberg;stroke-width:0.722296"
       id="path339" />
    <path
       inkscape:original-d="m 138.12495,74.876757 c -1.09565,-1.159158 2.15948,-2.191123 3.23913,-3.286765 1.07966,-1.095646 2.31826,2.413522 3.47732,3.620205 1.15906,1.206681 -2.28639,2.095961 -3.42967,3.143862 -1.14328,1.0479 -2.19114,-2.318147 -3.28678,-3.477302 z"
       inkscape:path-effect="#path-effect1309"
       id="path343-6-4-1-0"
       d="m 138.12495,74.876757 c 0.0237,-0.84657 0.37664,-1.680238 0.97033,-2.284208 0.59368,-0.603969 1.42247,-0.971415 2.2688,-1.002557 0.94287,-0.03469 1.89269,0.352545 2.54536,1.033895 0.65266,0.68135 0.99855,1.645154 0.93196,2.58631 -0.0604,0.853558 -0.45645,1.679457 -1.08648,2.258482 -0.63004,0.579025 -1.48771,0.904302 -2.34319,0.88538 -0.88626,-0.0196 -1.75792,-0.409438 -2.36599,-1.0545 -0.60806,-0.645063 -0.94561,-1.536668 -0.92079,-2.422802 z"
       style="fill:none;stroke:#ff0000;stroke-width:0.0548722px;stroke-linecap:butt;stroke-linejoin:miter;stroke-opacity:1" />
    <path
       style="fill:none;stroke:#ff0000;stroke-width:0.0548723px;stroke-linecap:butt;stroke-linejoin:miter;stroke-opacity:1"
       d="m 138.11932,44.19445 c 0.0237,-0.846569 0.37664,-1.680236 0.97032,-2.284206 0.59369,-0.603969 1.42247,-0.971417 2.2688,-1.00256 0.94287,-0.0347 1.89269,0.352544 2.54536,1.033894 0.65266,0.681351 0.99855,1.645155 0.93196,2.586311 -0.0604,0.853556 -0.45645,1.679455 -1.08648,2.258479 -0.63003,0.579025 -1.4877,0.904304 -2.34318,0.885383 -0.88626,-0.0196 -1.75792,-0.409437 -2.36599,-1.054499 -0.60807,-0.645063 -0.94561,-1.536668 -0.92079,-2.422802 z"
       id="path343-6-4-1-0-0"
       inkscape:path-effect="#path-effect1328"
       inkscape:original-d="m 138.11932,44.19445 c -1.09565,-1.159159 2.15948,-2.191123 3.23912,-3.286766 1.07967,-1.095646 2.31827,2.413523 3.47732,3.620205 1.15907,1.206681 -2.28638,2.095961 -3.42966,3.143862 -1.14328,1.047901 -2.19114,-2.318147 -3.28678,-3.477301 z" />
    <path
       inkscape:original-d="m 117.77593,44.251594 c -1.09565,-1.159158 2.15948,-2.191123 3.23913,-3.286765 1.07966,-1.095646 2.31826,2.413522 3.47732,3.620204 1.15906,1.206682 -2.28639,2.095962 -3.42967,3.143863 -1.14328,1.0479 -2.19114,-2.318147 -3.28678,-3.477302 z"
       inkscape:path-effect="#path-effect1347"
       id="path343-6-4-1-0-0-3"
       d="m 117.77593,44.251594 c 0.0237,-0.84657 0.37664,-1.680238 0.97033,-2.284208 0.59368,-0.603969 1.42247,-0.971415 2.2688,-1.002557 0.94287,-0.03469 1.89269,0.352545 2.54536,1.033895 0.65266,0.68135 0.99855,1.645153 0.93196,2.586309 -0.0604,0.853558 -0.45645,1.679458 -1.08648,2.258483 -0.63004,0.579025 -1.48771,0.904302 -2.34319,0.88538 -0.88626,-0.0196 -1.75792,-0.409438 -2.36599,-1.0545 -0.60806,-0.645063 -0.94561,-1.536668 -0.92079,-2.422802 z"
       style="fill:none;stroke:#ff0000;stroke-width:0.0548723px;stroke-linecap:butt;stroke-linejoin:miter;stroke-opacity:1" />
    <path
       style="fill:none;stroke:#ff0000;stroke-width:0.0548723px;stroke-linecap:butt;stroke-linejoin:miter;stroke-opacity:1"
       d="m 117.77593,74.880957 c 0.0237,-0.84657 0.37664,-1.680239 0.97033,-2.284208 0.59368,-0.60397 1.42247,-0.971416 2.2688,-1.002558 0.94287,-0.03469 1.89269,0.352545 2.54536,1.033895 0.65266,0.68135 0.99855,1.645154 0.93196,2.58631 -0.0604,0.853558 -0.45645,1.679457 -1.08648,2.258482 -0.63004,0.579025 -1.48771,0.904302 -2.34319,0.88538 -0.88626,-0.0196 -1.75792,-0.409438 -2.36599,-1.0545 -0.60806,-0.645062 -0.94561,-1.536667 -0.92079,-2.422801 z"
       id="path343-6-4-1-0-0-3-6"
       inkscape:path-effect="#path-effect1366"
       inkscape:original-d="m 117.77593,74.880957 c -1.09565,-1.159159 2.15948,-2.191123 3.23913,-3.286766 1.07966,-1.095646 2.31826,2.413523 3.47732,3.620205 1.15906,1.206681 -2.28639,2.095961 -3.42967,3.143862 -1.14328,1.0479 -2.19114,-2.318147 -3.28678,-3.477301 z" />
    <path
       style="fill:none;stroke:#ff0000;stroke-width:0.119762px;stroke-linecap:butt;stroke-linejoin:miter;stroke-opacity:1"
       d="m 125.34375,59.146152 c 0.0517,-1.84769 0.82203,-3.66722 2.11779,-4.98542 1.29576,-1.318201 3.10464,-2.120174 4.9518,-2.188141 2.05787,-0.07572 4.1309,0.769459 5.55538,2.256546 1.42447,1.487088 2.17938,3.590644 2.03405,5.644769 -0.13181,1.862942 -0.99624,3.665517 -2.37132,4.929274 -1.37508,1.263757 -3.247,1.973694 -5.11414,1.932391 -1.93432,-0.04279 -3.83676,-0.893632 -5.16389,-2.301519 -1.32714,-1.407887 -2.06383,-3.353864 -2.00967,-5.2879 z"
       id="path343-5"
       inkscape:path-effect="#path-effect1385"
       inkscape:original-d="m 125.34375,59.146152 c -2.3913,-2.529927 4.71318,-4.782254 7.06959,-7.173561 2.35641,-2.391306 5.05973,5.267662 7.58943,7.901315 2.52968,2.63365 -4.99019,4.574562 -7.48546,6.861665 -2.49527,2.287101 -4.78225,-5.059492 -7.17356,-7.589419 z" />
    <path
       d="m 175.82998,78.198462 c 5.06283,-0.05239 9.3837,-1.894121 12.96264,-5.525478 3.61382,-3.648731 5.42072,-8.004514 5.42072,-13.067348 0,-5.080289 -1.8069,-9.436073 -5.42072,-13.067348 -3.61384,-3.631276 -7.96965,-5.464369 -13.0674,-5.499281 l -11.10329,-9.7e-4 c -0.94275,0 -1.73709,0.322971 -2.38305,0.968914 -0.6634,0.663399 -0.99509,1.457756 -0.99509,2.383044 v 0.0524 28.476503 c 0.003,0.629622 -0.29867,1.784755 0.20638,2.956369 0.4435,1.028824 1.54247,2.230099 3.05174,2.241434 1.59369,0.04783 2.69467,-1.071618 3.15954,-2.320807 0.58787,-1.579697 0.30295,-3.662582 0.3124,-4.898383 V 47.768088 h 7.72517 c 3.22974,0.019 5.99684,1.187775 8.30131,3.509058 2.30449,2.321935 3.45672,5.097745 3.45672,8.327485 0,3.229741 -1.14352,6.005551 -3.43052,8.327486 -2.50897,1.96407 -4.678,2.9989 -7.81194,3.231985 -1.36662,-0.09028 -3.52784,-0.1923 -4.34274,0.466264 -0.97636,0.789044 -1.48847,1.334524 -1.58058,2.758626 -0.0991,1.484862 0.7611,2.63391 1.9706,3.222492 1.05813,0.514921 2.38363,0.558187 3.56808,0.586978 z"
       style="font-size:19.7556px;line-height:1.25;font-family:Königsberg;-inkscape-font-specification:Königsberg;stroke-width:0.718271"
       id="path329"
       sodipodi:nodetypes="ccssccssccscsccccsccscscc" />
    <path
       style="fill:none;stroke:#ff0000;stroke-width:0.302724px;stroke-linecap:butt;stroke-linejoin:miter;stroke-opacity:1"
       d="m 157.13288,59.053658 c 0.13079,-4.670448 2.07788,-9.269717 5.35319,-12.601761 3.27531,-3.332044 7.84766,-5.359209 12.51678,-5.531007 5.20171,-0.191394 10.44177,1.944984 14.04243,5.703928 3.60067,3.758943 5.50888,9.076143 5.14152,14.268398 -0.33317,4.708999 -2.51821,9.265409 -5.99403,12.459835 -3.47582,3.194427 -8.20751,4.988953 -12.92713,4.884549 -4.88942,-0.10816 -9.69826,-2.258854 -13.05288,-5.817602 -3.35462,-3.558747 -5.21678,-8.477635 -5.07988,-13.36634 z"
       id="path343-42"
       inkscape:path-effect="#path-effect1460"
       inkscape:original-d="m 157.13288,59.053658 c -6.04455,-6.394952 11.91361,-12.088209 17.86997,-18.132768 5.95636,-6.044558 12.7896,13.315186 19.18395,19.972326 6.39434,6.657138 -12.61382,11.563224 -18.92116,17.344384 -6.30734,5.781156 -12.0882,-12.788992 -18.13276,-19.183942 z" />
    <path
       inkscape:original-d="m 164.44139,59.194203 c -3.7564,-3.974164 7.40376,-7.512258 11.10534,-11.268669 3.70161,-3.756411 7.94815,8.274767 11.92194,12.411868 3.97378,4.1371 -7.8389,7.186002 -11.75862,10.778722 -3.91972,3.59272 -7.51225,-7.947759 -11.26866,-11.921921 z"
       inkscape:path-effect="#path-effect1479"
       id="path343-42-6"
       d="m 164.44139,59.194203 c 0.0813,-2.902463 1.2913,-5.760693 3.32675,-7.831403 2.03545,-2.070709 4.87695,-3.330499 7.77859,-3.437266 3.23262,-0.118946 6.48908,1.208712 8.72672,3.54472 2.23765,2.336008 3.42352,5.640402 3.19522,8.867148 -0.20705,2.926423 -1.56495,5.758019 -3.72501,7.743205 -2.16006,1.985187 -5.10059,3.1004 -8.03361,3.035517 -3.03855,-0.06722 -6.02701,-1.403773 -8.11175,-3.615368 -2.08474,-2.211594 -3.24199,-5.268452 -3.15691,-8.306553 z"
       style="fill:none;stroke:#ff0000;stroke-width:0.188129px;stroke-linecap:butt;stroke-linejoin:miter;stroke-opacity:1" />
    <path
       style="fill:none;stroke:#ff0000;stroke-width:0.0548723px;stroke-linecap:butt;stroke-linejoin:miter;stroke-opacity:1"
       d="m 161.19364,44.330133 c 0.0237,-0.84657 0.37664,-1.680239 0.97033,-2.284208 0.59368,-0.60397 1.42247,-0.971416 2.2688,-1.002558 0.94287,-0.0347 1.89269,0.352545 2.54536,1.033895 0.65266,0.68135 0.99855,1.645154 0.93196,2.58631 -0.0604,0.853556 -0.45645,1.679454 -1.08648,2.258478 -0.63003,0.579025 -1.4877,0.904304 -2.34318,0.885384 -0.88627,-0.0196 -1.75793,-0.409434 -2.366,-1.054497 -0.60806,-0.645062 -0.94561,-1.536668 -0.92079,-2.422804 z"
       id="path343-6-4-1-0-0-3-4"
       inkscape:path-effect="#path-effect1498"
       inkscape:original-d="m 161.19364,44.330133 c -1.09564,-1.159159 2.15948,-2.191123 3.23913,-3.286766 1.07967,-1.095646 2.31827,2.413523 3.47732,3.620205 1.15906,1.206681 -2.28639,2.095961 -3.42966,3.143862 -1.14329,1.0479 -2.19114,-2.318147 -3.28679,-3.477301 z" />
    <path
       inkscape:original-d="m 161.19759,74.603026 c -1.09565,-1.159159 2.15948,-2.191123 3.23912,-3.286766 1.07967,-1.095646 2.31827,2.413523 3.47732,3.620205 1.15906,1.206681 -2.28638,2.095961 -3.42966,3.143862 -1.14328,1.0479 -2.19114,-2.318147 -3.28678,-3.477301 z"
       inkscape:path-effect="#path-effect1517"
       id="path343-6-4-1-0-0-3-4-5"
       d="m 161.19759,74.603026 c 0.0237,-0.846569 0.37664,-1.680236 0.97032,-2.284206 0.59369,-0.603969 1.42247,-0.971417 2.2688,-1.00256 0.94287,-0.0347 1.89269,0.352544 2.54536,1.033894 0.65266,0.681351 0.99855,1.645155 0.93196,2.586311 -0.0604,0.853556 -0.45645,1.679455 -1.08648,2.258479 -0.63003,0.579025 -1.4877,0.904304 -2.34318,0.885383 -0.88626,-0.0196 -1.75792,-0.409437 -2.36599,-1.054499 -0.60807,-0.645063 -0.94561,-1.536668 -0.92079,-2.422802 z"
       style="fill:none;stroke:#ff0000;stroke-width:0.0548723px;stroke-linecap:butt;stroke-linejoin:miter;stroke-opacity:1" />
    <path
       style="fill:none;stroke:#ff0000;stroke-width:0.0548723px;stroke-linecap:butt;stroke-linejoin:miter;stroke-opacity:1"
       d="m 170.29127,74.388992 c 0.0237,-0.84657 0.37664,-1.680238 0.97033,-2.284208 0.59368,-0.603969 1.42247,-0.971415 2.2688,-1.002557 0.94287,-0.03469 1.89269,0.352545 2.54536,1.033895 0.65266,0.68135 0.99855,1.645154 0.93196,2.58631 -0.0604,0.853558 -0.45645,1.679457 -1.08648,2.258482 -0.63004,0.579025 -1.48771,0.904302 -2.34319,0.88538 -0.88626,-0.0196 -1.75792,-0.409438 -2.36599,-1.0545 -0.60806,-0.645063 -0.94561,-1.536668 -0.92079,-2.422802 z"
       id="path343-6-4-1-0-0-3-4-5-0"
       inkscape:path-effect="#path-effect1536"
       inkscape:original-d="m 170.29127,74.388992 c -1.09565,-1.159158 2.15948,-2.191123 3.23913,-3.286765 1.07966,-1.095646 2.31826,2.413522 3.47732,3.620205 1.15906,1.206681 -2.28639,2.095961 -3.42967,3.143862 -1.14328,1.0479 -2.19114,-2.318147 -3.28678,-3.477302 z" />
    <path
       style="fill:none;stroke:#ff0000;stroke-width:0.0563878px;stroke-linecap:butt;stroke-linejoin:miter;stroke-opacity:1"
       d="m 133.06754,59.455087 c 0.0243,-0.869982 0.39369,-1.725179 1.00856,-2.341126 0.61487,-0.615947 1.46837,-0.986637 2.33812,-1.018163 0.96867,-0.03511 1.94584,0.354935 2.62183,1.049627 0.676,0.694691 1.03939,1.683568 0.97094,2.650459 -0.0621,0.877602 -0.4761,1.724875 -1.12844,2.315209 -0.65235,0.590334 -1.53553,0.917766 -2.41511,0.898024 -0.91043,-0.02043 -1.80751,-0.413712 -2.43733,-1.07146 -0.62982,-0.657748 -0.98399,-1.572263 -0.95857,-2.48257 z"
       id="path343-6-4-1-0-2"
       inkscape:path-effect="#path-effect1555"
       inkscape:original-d="m 133.06754,59.455087 c -1.13203,-1.184736 2.23118,-2.239471 3.34668,-3.359289 1.1155,-1.119822 2.39523,2.466777 3.59277,3.700086 1.19754,1.233307 -2.3623,2.142209 -3.54355,3.213233 -1.18123,1.071022 -2.26389,-2.369298 -3.3959,-3.55403 z" />
  </g>
</svg>
