<?xml version="1.0" encoding="UTF-8" standalone="no"?>
<svg
   xmlns:dc="http://purl.org/dc/elements/1.1/"
   xmlns:cc="http://creativecommons.org/ns#"
   xmlns:rdf="http://www.w3.org/1999/02/22-rdf-syntax-ns#"
   xmlns:svg="http://www.w3.org/2000/svg"
   xmlns="http://www.w3.org/2000/svg"
   xmlns:sodipodi="http://sodipodi.sourceforge.net/DTD/sodipodi-0.dtd"
   xmlns:inkscape="http://www.inkscape.org/namespaces/inkscape"
   inkscape:export-ydpi="96"
   inkscape:export-xdpi="96"
   inkscape:export-filename="C:\Users\yarov\Documents\newone\img\done\vtc\arialfont.png"
   sodipodi:docname="myfontgrid.svg"
   inkscape:version="1.0 (4035a4fb49, 2020-05-01)"
   width="1980px"
   height="1120px"
   viewBox="0 0 1980 1120"
   version="1.1"
   id="SVGRoot">
  <defs
     id="defs512">
    <inkscape:path-effect
       lpeversion="1"
       is_visible="true"
       id="path-effect1007"
       effect="spiro" />
  </defs>
  <sodipodi:namedview
     showguides="false"
     inkscape:window-maximized="1"
     inkscape:window-y="-8"
     inkscape:window-x="-8"
     inkscape:window-height="1017"
     inkscape:window-width="1920"
     showgrid="true"
     inkscape:document-rotation="0"
     inkscape:current-layer="layer1"
     inkscape:document-units="px"
     inkscape:cy="768.78842"
     inkscape:cx="1404.2767"
     inkscape:zoom="1.44"
     inkscape:pageshadow="2"
     inkscape:pageopacity="0.0"
     borderopacity="1.0"
     bordercolor="#666666"
     pagecolor="#ffffff"
     id="base">
    <inkscape:grid
       id="grid868"
       type="xygrid" />
  </sodipodi:namedview>
  <metadata
     id="metadata515">
    <rdf:RDF>
      <cc:Work
         rdf:about="">
        <dc:format>image/svg+xml</dc:format>
        <dc:type
           rdf:resource="http://purl.org/dc/dcmitype/StillImage" />
        <dc:title />
      </cc:Work>
    </rdf:RDF>
  </metadata>
  <g
     id="layer1"
     inkscape:groupmode="layer"
     inkscape:label="Слой 1">
    <g
       id="g490"
       transform="matrix(8.1779598,0,0,8.1779598,-96.897771,-947.92838)">
      <g
         style="font-size:19.7556px;line-height:1.25;font-family:Königsberg;-inkscape-font-specification:Königsberg;stroke-width:0.264583"
         id="text44"
         aria-label="ABCDEFGHKJ LMNOPQRSTU VWXYZ">
        <path
           sodipodi:nodetypes="ccsccccscssscscccccsccscc"
           id="path369"
           style="stroke-width:0.264583"
           d="m 134.25567,163.66412 -3.08199,-4.93294 c -0.18007,-0.28939 -0.4373,-0.47267 -0.77171,-0.54984 -0.3344,-0.0772 -0.6463,-0.0257 -0.93569,0.15434 -0.28939,0.18649 -0.47267,0.44694 -0.54984,0.78135 -0.0772,0.32797 -0.0257,0.63987 0.15434,0.93569 l 4.26367,6.82957 v 3.71382 c 0,0.34727 0.12218,0.63987 0.36655,0.87782 0.24438,0.24437 0.53698,0.36656 0.87782,0.36656 0.34083,0 0.63344,-0.12219 0.87781,-0.36656 0.23795,-0.23795 0.35692,-0.53055 0.35692,-0.87782 v -3.41961 c 0,0 0.0917,-0.65124 -0.16851,-1.23691 -0.26023,-0.58566 -1.38937,-2.27547 -1.38937,-2.27547 z m 3.33898,0.46477 2.4922,-4.0762 c 0.18007,-0.29582 0.23151,-0.60772 0.15434,-0.93569 -0.0772,-0.33441 -0.26045,-0.59486 -0.54984,-0.78135 -0.28939,-0.18007 -0.60128,-0.23151 -0.93569,-0.15434 -0.3344,0.0772 -0.59163,0.26045 -0.7717,0.54984 l -2.55899,4.13742 c -0.25605,0.44175 -0.37447,1.18907 0.2249,1.74423 0.30929,0.28647 0.76725,0.34591 1.16882,0.21173 0.38965,-0.17196 0.57276,-0.36329 0.77596,-0.69564 z" />
        <path
           sodipodi:nodetypes="sccccscccccccczccccs"
           id="path323"
           style="stroke-width:0.264583"
           d="m 61.108362,132.48597 c 0.321543,0.12219 0.636655,0.11255 0.945336,-0.0289 0.315112,-0.14148 0.533761,-0.36978 0.655948,-0.68489 0.122186,-0.32154 0.112539,-0.63987 -0.02894,-0.95498 L 57.62605,119.60821 c -0.199357,-0.48231 -0.575562,-0.72347 -1.128616,-0.72347 -0.553053,0 -0.929258,0.24116 -1.128615,0.72347 l -5.054656,11.20899 c -0.141479,0.31511 -0.151125,0.63344 -0.02894,0.95498 0.122187,0.31511 0.337621,0.54341 0.646302,0.68489 0.315112,0.14148 0.633439,0.15111 0.954982,0.0289 0.315112,-0.12219 0.543408,-0.33762 0.684887,-0.6463 l 0.752414,-1.65881 3.460372,0.0413 c 0.951747,0.0494 1.535537,-0.60048 1.472424,-1.32889 -0.06311,-0.72842 -0.569072,-1.19274 -1.484732,-1.17212 l -2.329094,-0.0194 2.054659,-4.5627 2.879601,6.34669 c 1.17827,2.7923 1.409781,2.87803 1.731324,3.00022 z" />
        <path
           sodipodi:nodetypes="ccssccsscccccccsccccc"
           id="path329"
           style="stroke-width:0.264583"
           d="m 114.58524,132.57351 c 1.86495,-0.0193 3.45659,-0.69772 4.77493,-2.03537 1.33119,-1.34405 1.99678,-2.94855 1.99678,-4.8135 0,-1.87138 -0.66559,-3.47588 -1.99678,-4.8135 -1.3312,-1.33762 -2.93571,-2.01286 -4.81352,-2.02572 l -4.09003,-3.7e-4 c -0.34727,0 -0.63987,0.11897 -0.87781,0.35691 -0.24438,0.24437 -0.36656,0.53698 -0.36656,0.87782 v 0.0193 10.48963 c 0.002,0.43559 0.0259,1.86722 1.21496,1.87615 1.32943,0.0399 1.2579,-1.80555 1.26413,-2.62075 v -8.51996 h 2.84566 c 1.18971,0.007 2.209,0.43753 3.05788,1.2926 0.84888,0.85531 1.27332,1.87781 1.27332,3.06752 0,1.18971 -0.42123,2.21221 -1.26367,3.06752 -0.84888,0.85531 -1.87139,1.28939 -3.06753,1.30225 -1.01397,-0.0433 -2.02169,0.32672 -2.02552,1.37891 0.19638,1.29041 1.13955,1.07728 2.07375,1.10056 z" />
        <path
           id="path331"
           style="stroke-width:0.264583"
           d="m 137.18826,121.36415 q 0.5209,0 0.87781,-0.36656 0.36656,-0.35691 0.36656,-0.86817 0,-0.5209 -0.36656,-0.87781 -0.35691,-0.36656 -0.87781,-0.36656 h -6.49196 q -0.5209,0 -0.87781,0.36656 -0.36656,0.35691 -0.36656,0.87781 v 11.19934 q 0,0.5209 0.36656,0.87782 0.35691,0.36656 0.87781,0.36656 h 6.49196 q 0.5209,0 0.87781,-0.36656 0.36656,-0.35692 0.36656,-0.87782 0,-0.51125 -0.36656,-0.87781 -0.35691,-0.35691 -0.87781,-0.35691 h -5.25723 v -3.15434 h 3.99356 q 0.5209,0 0.87781,-0.36656 0.36656,-0.35691 0.36656,-0.87781 0,-0.51125 -0.36656,-0.86816 -0.35691,-0.36656 -0.87781,-0.36656 h -3.99356 v -3.09646 z" />
        <path
           id="path333"
           style="stroke-width:0.264583"
           d="m 153.1959,127.43166 h 1.77334 c 0.34083,0 0.63344,-0.12219 0.87781,-0.36656 0.23794,-0.24437 0.35691,-0.53697 0.35691,-0.87781 0,-0.34083 -0.11897,-0.63344 -0.35691,-0.87781 -0.24437,-0.23794 -0.53698,-0.35691 -0.87781,-0.35691 h -1.96414 c -0.0737,-5.6e-4 -0.46337,0.0235 -0.78471,0.25157 -0.24743,0.17564 -0.45437,0.47229 -0.44545,0.97189 0.008,0.46538 0.19296,0.76311 0.41354,0.95129 0.29869,0.25684 0.6389,0.30434 1.00742,0.30434 z m -1.95013,-6.06751 h 5.25723 c 0.34727,0 0.63987,-0.12219 0.87781,-0.36656 0.24437,-0.23794 0.36656,-0.52733 0.36656,-0.86817 0,-0.34727 -0.12219,-0.63987 -0.36656,-0.87781 -0.23794,-0.24437 -0.53054,-0.36656 -0.87781,-0.36656 h -6.49196 c -0.34727,0 -0.63987,0.12219 -0.87781,0.36656 -0.24437,0.23794 -0.36656,0.53054 -0.36656,0.87781 v 11.19934 c 0,0.34727 0.12219,0.63987 0.36656,0.87782 0.23794,0.24437 0.53054,0.36656 0.87781,0.36656 0.34084,0 0.63023,-0.12219 0.86817,-0.36656 0.24437,-0.23795 0.36656,-0.53055 0.36656,-0.87782 v -5.15273 z"
           sodipodi:nodetypes="cscscscsscccscscsscsscscscc" />
        <path
           id="path335"
           style="stroke-width:0.264583"
           d="m 176.17985,129.88536 c -0.56779,0.25536 -1.17618,0.38231 -1.82439,0.38231 -1.25401,0 -2.32797,-0.44373 -3.22186,-1.33119 -0.88745,-0.89389 -1.33118,-1.96784 -1.33118,-3.22186 0,-1.25401 0.44373,-2.32475 1.33118,-3.21221 0.89389,-0.88746 1.96785,-1.33119 3.22186,-1.33119 1.08682,0 2.04823,0.34727 2.88424,1.0418 0.2701,0.21865 0.57557,0.31189 0.9164,0.27974 0.34083,-0.0386 0.61736,-0.18972 0.82958,-0.45337 0.21865,-0.26367 0.3119,-0.56592 0.27974,-0.90675 -0.0321,-0.34084 -0.18004,-0.62058 -0.44372,-0.83923 -1.29261,-1.06752 -2.78135,-1.60128 -4.46624,-1.60128 -1.94212,0 -3.59807,0.68488 -4.96784,2.05465 -1.3762,1.37621 -2.0643,3.03215 -2.0643,4.96784 0,1.94212 0.6881,3.59807 2.0643,4.96784 1.36977,1.37621 3.02572,2.06431 4.96784,2.06431 1.73432,0 3.17661,-0.32342 4.4781,-1.42392 0.22229,-0.16866 0.38796,-0.4191 0.52126,-0.63806 0.22617,-0.44521 0.18472,-0.85271 0.0237,-1.15383 -0.25628,-0.47925 -0.64682,-0.5954 -1.11571,-0.61265 -0.53713,-0.0198 -0.94408,0.26461 -1.39709,0.59299 -0.23414,0.16024 -0.44411,0.27407 -0.68587,0.37406 z"
           sodipodi:nodetypes="cscscscccscssscsccsscc" />
        <path
           id="path337"
           style="stroke-width:0.264583"
           d="m 193.97156,124.47025 h -4.38058 v -4.34083 c 0,-0.34727 -0.12219,-0.63987 -0.36656,-0.87781 -0.23795,-0.24437 -0.52734,-0.36656 -0.86817,-0.36656 -0.34727,0 -0.63987,0.12219 -0.87781,0.36656 -0.24437,0.23794 -0.36656,0.53054 -0.36656,0.87781 v 11.19934 c 0,0.34727 0.12219,0.63987 0.36656,0.87782 0.23794,0.24437 0.53054,0.36656 0.87781,0.36656 0.34083,0 0.63022,-0.12219 0.86817,-0.36656 0.24437,-0.23795 0.36656,-0.53055 0.36656,-0.87782 v -4.37941 h 4.46612 c 0.0162,0.0568 1.17948,-0.1154 1.1815,-1.21104 0.002,-1.09564 -1.16625,-1.36885 -1.26704,-1.26806 z m 2.14031,6.85851 c 0,0.34727 0.12219,0.63987 0.36656,0.87782 0.24437,0.24437 0.53697,0.36656 0.87781,0.36656 0.34083,0 0.63344,-0.12219 0.87781,-0.36656 0.23794,-0.23795 0.35691,-0.53055 0.35691,-0.87782 v -11.19934 c 0,-0.34727 -0.11897,-0.63987 -0.35691,-0.87781 -0.24437,-0.24437 -0.53698,-0.36656 -0.87781,-0.36656 -0.34084,0 -0.63344,0.12219 -0.87781,0.36656 -0.24437,0.23794 -0.36656,0.53054 -0.36656,0.87781 z"
           sodipodi:nodetypes="ccscscsscscscczcccssssssccc" />
        <path
           id="path339"
           style="stroke-width:0.264583"
           d="m 54.523852,147.77088 3.98114,4.33371 c 0.237937,0.2508 0.527327,0.38263 0.868157,0.3955 0.34084,0.0129 0.63666,-0.0965 0.88746,-0.32798 0.25081,-0.23151 0.38264,-0.51768 0.3955,-0.85852 0.0193,-0.34727 -0.0868,-0.6463 -0.31833,-0.8971 l -4.456577,-4.83279 4.437287,-4.67845 c 0.23794,-0.25081 0.3537,-0.54663 0.34727,-0.88746 -0.0129,-0.34084 -0.1447,-0.63023 -0.3955,-0.86817 -0.24437,-0.23151 -0.53698,-0.34405 -0.87781,-0.33762 -0.34727,0.007 -0.63666,0.13528 -0.868167,0.38585 l -4.12223,4.34998 c -0.66093,0.54663 -0.92211,1.39899 -0.89295,2.18537 0.0281,0.75827 0.48154,1.45726 1.01475,2.03768 z m -1.661917,-8.59229 c -0.23324,-0.21481 -0.53698,-0.36656 -0.87781,-0.36656 -0.34727,0 -0.63987,0.12219 -0.87782,0.36656 -0.24437,0.23794 -0.36656,0.52733 -0.36656,0.86817 v 11.20898 c 0,0.34727 0.12219,0.63987 0.36656,0.87782 0.23795,0.24437 0.53055,0.36656 0.87782,0.36656 0.34083,0 0.67154,-0.12573 0.87781,-0.36656 0.24845,-0.29008 0.35984,-0.71364 0.35334,-1.07817 -0.0591,-3.47757 -0.0219,-9.78405 -0.0138,-11.00917 0.004,-0.29787 -0.13943,-0.6698 -0.33949,-0.86763 z"
           sodipodi:nodetypes="ccsscccccccccsccscsscsscccc" />
        <path
           id="path341"
           style="stroke-width:0.264583"
           d="m 235.37629,118.84729 q -0.51125,0 -0.87781,0.36656 -0.35691,0.35691 -0.35691,0.87781 v 7.50482 q 0,1.06109 -0.78135,1.8135 -0.76206,0.75241 -1.82315,0.75241 -1.10932,0 -1.88102,-0.81029 -0.35692,-0.37621 -0.86817,-0.38585 -0.51125,-0.0193 -0.88746,0.33762 -0.36656,0.34726 -0.38585,0.86816 -0.01,0.51126 0.33762,0.88746 1.50482,1.58199 3.68488,1.58199 2.0836,0 3.56913,-1.47588 1.48553,-1.46623 1.51447,-3.54983 0,0 0,-7.52411 0,-0.5209 -0.36656,-0.87781 -0.36656,-0.36656 -0.87782,-0.36656 z" />
        <path
           id="path343"
           style="stroke-width:0.264583"
           d="m 73.676169,149.66032 v -9.96462 q 0,-0.5209 -0.366559,-0.87781 -0.356913,-0.36656 -0.868166,-0.36656 -0.5209,0 -0.877812,0.36656 -0.366559,0.35691 -0.366559,0.87781 v 11.19934 q 0,0.5209 0.366559,0.87782 0.356912,0.36656 0.877812,0.36656 h 5.672018 q 0.511253,0 0.877812,-0.36656 0.356913,-0.35692 0.356913,-0.87782 0,-0.51125 -0.356913,-0.87781 -0.366559,-0.35691 -0.877812,-0.35691 z" />
        <path
           id="path345"
           style="stroke-width:0.264583"
           d="m 100.68127,138.48027 q -0.42444,-0.0965 -0.81029,0.0868 -0.3955,0.18328 -0.58843,0.56913 l -4.244362,8.47909 -4.244367,-8.47909 q -0.192926,-0.38585 -0.588424,-0.56913 -0.395498,-0.18328 -0.810288,-0.0868 -0.424437,0.10611 -0.684887,0.44373 -0.270096,0.33762 -0.270096,0.7717 v 11.19934 q 0,0.5209 0.366559,0.87782 0.356913,0.36656 0.877813,0.36656 0.511253,0 0.868166,-0.36656 0.366559,-0.35692 0.366559,-0.87782 v -5.9614 l 2.951764,5.88423 q 0.04823,0.13505 0.106109,0.23151 0.366559,0.58843 1.051446,0.58843 0.704179,0 1.061091,-0.58843 0.04823,-0.0868 0.09646,-0.18327 l 2.971057,-5.93247 v 5.9614 q 0,0.5209 0.35691,0.87782 0.36656,0.36656 0.87781,0.36656 0.5209,0 0.87782,-0.36656 0.36656,-0.35692 0.36656,-0.87782 V 139.6957 q 0,-0.43408 -0.2701,-0.7717 -0.2701,-0.33762 -0.68489,-0.44373 z" />
        <path
           id="path347"
           style="stroke-width:0.264583"
           d="m 116.78993,146.00906 -5.79956,-7.09471 c -0.1672,-0.20579 -0.37621,-0.34405 -0.62701,-0.41479 -0.25724,-0.0707 -0.50804,-0.0643 -0.75241,0.0193 -0.25081,0.09 -0.45016,0.24115 -0.59807,0.45337 -0.15434,0.21222 -0.23151,0.45016 -0.23151,0.71383 v 11.20898 c 0,0.34727 0.12218,0.63987 0.36656,0.87782 0.23794,0.24437 0.53054,0.36656 0.87781,0.36656 0.34083,0 0.63022,-0.12219 0.86817,-0.36656 0.24437,-0.23795 0.36655,-0.53055 0.36655,-0.87782 v -7.67844 l 3.77546,4.57342 c 0.49008,0.61753 1.63876,0.59241 1.99815,0.14174 0.36407,-0.492 0.30396,-1.43469 -0.24414,-1.9226 z m 1.27117,5.66733 c 0.15375,0.17818 0.36978,0.34405 0.62701,0.41479 0.25081,0.0707 0.50161,0.0643 0.75241,-0.0193 0.24438,-0.09 0.44373,-0.24116 0.59807,-0.45337 0.14791,-0.21865 0.22187,-0.45981 0.22187,-0.72348 v -11.20898 c 0,-0.34084 -0.11897,-0.63345 -0.35691,-0.87782 -0.24438,-0.23794 -0.53698,-0.35691 -0.87782,-0.35691 v 1e-5 c -0.34083,0 -0.63344,0.11897 -0.87781,0.35691 -0.24437,0.24437 -0.36656,0.53698 -0.36656,0.87782 v 11.0638 c -0.0207,0.32937 0.0835,0.68655 0.27974,0.92653 z"
           sodipodi:nodetypes="cccccsscscsccccccccsscsscsccc" />
        <path
           sodipodi:nodetypes="cssscccccscsscscccccscczc"
           id="path351"
           style="stroke-width:0.264583"
           d="m 153.54877,148.23267 c 1.32476,-0.0129 2.45981,-0.4984 3.40514,-1.45659 0.94534,-0.9582 1.41801,-2.10289 1.41801,-3.43408 0,-1.33762 -0.47588,-2.48553 -1.42765,-3.44373 -0.94534,-0.95177 -2.08682,-1.43408 -3.42444,-1.44694 h -2.93247 -0.0675 l -0.0579,0.01 -0.0675,-0.01 h -0.0579 c -0.34727,0 -0.63987,0.12219 -0.87781,0.36656 -0.24437,0.23794 -0.36656,0.53054 -0.36656,0.87781 v 11.19934 c 0,0.34727 0.12219,0.63987 0.36656,0.87782 0.23794,0.24437 0.53054,0.36656 0.87781,0.36656 0.34083,0 0.63022,-0.12219 0.86816,-0.36656 0.24437,-0.23795 0.36656,-0.53055 0.36656,-0.87782 v -9.96461 h 1.93891 c 0.65595,0.007 1.21543,0.24461 1.67845,0.71382 0.46945,0.47589 0.70418,1.0418 0.70418,1.69775 0,0.65595 -0.23473,1.22186 -0.70418,1.69775 -0.46302,0.46945 -1.0225,0.70739 -1.67845,0.71382 0.11327,0.002 -1.27049,0.0852 -1.23648,1.26615 0.034,1.18093 1.25594,1.24162 1.27506,1.21295 z" />
        <path
           sodipodi:nodetypes="cscsscssscscssscscccsssccccccs"
           id="path353"
           style="stroke-width:0.264583"
           d="m 179.44677,148.83378 c 0.71269,-0.74097 1.25011,-2.56509 1.18769,-3.76852 -0.10027,-1.93309 -0.68489,-3.59163 -2.05466,-4.96784 -1.37621,-1.3762 -3.03215,-2.0643 -4.96784,-2.0643 v -2e-5 c -1.94212,0 -3.59807,0.6881 -4.96784,2.0643 -1.3762,1.37621 -2.0643,3.03215 -2.0643,4.96784 0,1.93569 0.6881,3.59164 2.0643,4.96784 1.24023,1.24023 2.71507,1.919 4.42452,2.03628 0.17855,0.0122 1.34392,-0.11461 1.16418,-1.38044 -0.4326,-1.27613 -1.4855,-1.15502 -1.55349,-1.16842 -0.86237,-0.16964 -1.62544,-0.58397 -2.28923,-1.24297 -0.88746,-0.88746 -1.33119,-1.9582 -1.33119,-3.21222 0,-1.25401 0.44373,-2.32475 1.33119,-3.21221 0.89389,-0.89389 1.96784,-1.34084 3.22186,-1.34084 1.25402,0 2.32476,0.44695 3.21221,1.34084 0.88746,0.88746 1.33119,1.9582 1.33119,3.21221 0,0.85585 -0.41393,1.99394 -0.70975,2.35723 -0.37411,0.74932 -0.12101,1.47844 0.19383,1.66334 0.79933,0.74659 1.70652,-0.0557 1.80733,-0.2521 z m -4.33963,-1.83928 c -0.33441,-0.0772 -0.6463,-0.0257 -0.93569,0.15434 -0.28939,0.18007 -0.47267,0.4373 -0.54984,0.7717 -0.0772,0.33441 -0.0257,0.6463 0.15434,0.93569 0.89932,1.4229 2.86306,4.18403 2.86306,4.18403 0.34663,0.40046 0.90915,0.34876 1.2752,0.12789 0.28939,-0.18007 0.47266,-0.4373 0.54983,-0.77171 0.0772,-0.32797 0.0257,-0.63987 -0.15434,-0.93569 l -1.45658,-2.34888 c -1.15435,-1.85692 -1.41158,-2.0402 -1.74598,-2.11737 z" />
        <path
           sodipodi:nodetypes="ccccccccssscccccsssscscsccccsccc"
           id="path355"
           style="stroke-width:0.264583"
           d="m 192.34398,147.74615 2.94438,3.9013 c 0.21222,0.2701 0.48553,0.43087 0.81994,0.48232 0.34083,0.045 0.64951,-0.0354 0.92604,-0.24116 0.2701,-0.20579 0.42766,-0.4791 0.47267,-0.81993 0.0515,-0.34084 -0.0289,-0.64631 -0.24116,-0.9164 l -2.23794,-2.97106 c 0.81672,-0.35369 1.47588,-0.90353 1.97749,-1.64951 0.50804,-0.76527 0.76206,-1.60772 0.76206,-2.52733 h -1e-5 c 0,-1.24759 -0.44051,-2.31511 -1.32154,-3.20257 -0.88746,-0.89389 -1.95177,-1.34405 -3.19292,-1.35048 h -3.66559 -0.0675 l -0.0579,0.01 -0.0675,-0.01 h -0.0579 c -0.34727,0 -0.63987,0.11897 -0.87781,0.35691 -0.24437,0.24437 -0.36656,0.53698 -0.36656,0.87782 v 11.20898 c 0,0.34727 0.12219,0.63987 0.36656,0.87782 0.23794,0.24437 0.53054,0.36656 0.87781,0.36656 0.34084,0 0.63023,-0.12219 0.86817,-0.36656 0.24437,-0.23795 0.36656,-0.53055 0.36656,-0.87782 v -2.92973 c -1e-5,-2.34496 -1e-5,-4.68992 -1e-5,-7.03488 h 2.67202 c 0.55949,0.007 1.0418,0.21245 1.44694,0.61736 0.39871,0.40515 0.59807,0.89068 0.59807,1.45659 0,0.56591 -0.19936,1.05144 -0.59807,1.45659 -0.40514,0.40515 -0.89067,0.61093 -1.45659,0.61736 -1.35819,0.0684 -1.81921,1.32777 -0.88971,2.66782 z" />
        <path
           sodipodi:nodetypes="ccccccsccccccccccccccccccccccccsccc"
           id="path357"
           style="stroke-width:0.264583"
           d="m 212.99805,146.99794 c 0.1865,0.12219 0.32155,0.26688 0.40515,0.43409 0.11575,0.22508 0.16077,0.52411 0.13505,0.8971 -0.0321,0.48231 -0.25078,0.86173 -0.65595,1.13826 -0.40515,0.28296 -0.91318,0.40193 -1.52411,0.35692 -0.57878,-0.0386 -1.04502,-0.23796 -1.39872,-0.59807 -0.23794,-0.24437 -0.53054,-0.36656 -0.87781,-0.36656 -0.34083,0 -0.63344,0.11897 -0.87781,0.35691 -0.23794,0.24437 -0.36013,0.53698 -0.36656,0.87781 0,0.34084 0.12219,0.63344 0.36656,0.87781 0.79099,0.79743 1.78456,1.23794 2.9807,1.32155 1.29261,0.0965 2.39872,-0.21865 3.31833,-0.94534 0.92604,-0.72669 1.43086,-1.67524 1.51446,-2.84566 0.10933,-1.58199 -0.44373,-2.77491 -1.65916,-3.57877 h 3.5e-4 c -0.28648,-0.19019 -0.37413,-0.24287 -0.68855,-0.37087 -0.0631,-0.025 -1.05848,-0.36812 -1.49775,0.79362 -0.26991,0.87062 0.21896,1.28445 0.82582,1.6512 z m -2.70096,-3.50159 c -0.36655,-0.33441 -0.53054,-0.74277 -0.49196,-1.22508 0.0321,-0.48231 0.25078,-0.86495 0.65595,-1.14791 0.40515,-0.27653 0.91318,-0.39228 1.52411,-0.34726 0.50804,0.0321 0.98393,0.25721 1.42766,0.67524 0.2508,0.23151 0.54983,0.34083 0.8971,0.32797 0.34083,-0.007 0.62701,-0.13528 0.85852,-0.38585 0.23794,-0.25081 0.35048,-0.54663 0.33762,-0.88746 -0.0129,-0.34727 -0.1447,-0.63666 -0.3955,-0.86817 -0.39871,-0.37299 -0.791,-0.65916 -1.17685,-0.85851 -0.52733,-0.27653 -1.11896,-0.43731 -1.77491,-0.48232 -1.29261,-0.09 -2.39872,0.22829 -3.31833,0.95498 -0.92604,0.72026 -1.43086,1.66881 -1.51446,2.84566 -0.0836,1.17041 0.27974,2.18006 1.09003,3.02893 0.44326,0.46437 0.95965,0.81519 1.54917,1.05248 1.4204,0.3898 2.26734,-1.33122 1.16183,-2.16162 -0.26965,-0.19887 -0.5725,-0.29921 -0.82998,-0.52108 z" />
        <path
           sodipodi:nodetypes="cscscsccscsssczccscsccccccc"
           id="path359"
           style="stroke-width:0.264583"
           d="m 231.14778,138.45133 h -3.10341 c -0.34727,0 -0.63987,0.12219 -0.87781,0.36656 -0.24437,0.23794 -0.36656,0.53054 -0.36656,0.87781 0,0.34084 0.12219,0.63023 0.36656,0.86817 0.23794,0.24437 0.53054,0.36656 0.87781,0.36656 h 1.61371 c 0.74746,-0.0565 1.07476,0.62521 1.0776,1.04947 v 8.91514 c 0,0.34727 0.12219,0.63987 0.36656,0.87782 0.24437,0.24437 0.53698,0.36656 0.87781,0.36656 0.34084,0 0.63345,-0.12219 0.87782,-0.36656 0.23794,-0.23795 0.35691,-0.53055 0.35691,-0.87782 v -9.60679 c 0,0 0.0452,-1.72348 -0.40836,-2.23581 -0.45356,-0.51233 -1.05718,-0.60111 -1.65864,-0.60111 z m 4.01687,2.4791 h 0.75109 c 0.34083,0 0.63344,-0.12219 0.87781,-0.36656 0.24437,-0.23794 0.36656,-0.52733 0.36656,-0.86817 0,-0.34727 -0.12219,-0.63987 -0.36656,-0.87781 -0.24437,-0.24437 -0.53698,-0.36656 -0.87781,-0.36656 h -0.69788 c -0.60183,-0.0935 -1.06266,0.24417 -1.25281,0.51365 -0.28821,0.39233 -0.32953,1.01333 0.0899,1.4941 0.31258,0.34418 0.67231,0.47135 1.10968,0.47135 z" />
        <path
           sodipodi:nodetypes="sscscssssccscs"
           id="path361"
           style="stroke-width:0.264583"
           d="m 57.825886,171.91676 c 0.74013,-0.28346 1.41587,-0.72745 2.027207,-1.33197 1.15113,-1.13827 1.73634,-2.51126 1.75563,-4.11897 v -6.72346 c 0,-0.34727 -0.12219,-0.63987 -0.36656,-0.87781 -0.24437,-0.24437 -0.53698,-0.36656 -0.87781,-0.36656 v 1e-5 c -0.34084,0 -0.63345,0.12219 -0.877817,0.36656 -0.23794,0.23794 -0.35691,0.53054 -0.35691,0.87781 v 6.70417 c -0.0129,0.92605 -0.35049,1.72026 -1.01286,2.38263 -0.27102,0.26581 -0.56369,0.47776 -0.878,0.63586 -0.0696,0.035 -1.17771,0.33338 -1.01352,1.59721 0.34635,1.19961 1.49291,0.89579 1.60064,0.85452 z" />
        <path
           sodipodi:nodetypes="cccscccccccccccccccccccccccccccccccccscccsccccccscccc"
           id="path363"
           style="stroke-width:0.264583"
           d="m 71.576795,159.32788 c -0.141479,-0.31511 -0.37299,-0.53376 -0.694533,-0.65595 -0.315112,-0.11575 -0.630224,-0.10289 -0.945336,0.0386 -0.308681,0.13505 -0.524115,0.36334 -0.646302,0.68488 -0.122186,0.32155 -0.112539,0.63988 0.02894,0.95499 l 5.054656,11.20898 0.01929,0.0289 0.01929,0.0289 0.05788,0.11576 0.07717,0.0965 0.07717,0.0868 0.09646,0.0868 0.08682,0.0675 0.115755,0.0675 0.03858,0.0193 0.02894,0.0193 0.03858,0.01 0.125402,0.0386 0.106109,0.0386 0.125402,0.01 0.115755,0.01 0.115756,-0.01 0.125402,-0.01 0.106109,-0.0386 0.125402,-0.0386 0.03858,-0.01 0.02894,-0.0193 0.02894,-0.0193 0.115756,-0.0675 0.09646,-0.0675 0.09646,-0.0868 0.07717,-0.0868 0.06752,-0.0965 0.06752,-0.11576 0.01929,-0.0289 0.01929,-0.0289 c 0.163823,-0.34218 0.149967,-0.676 0.01166,-0.98632 -1.735329,-3.89221 -3.55814,-7.90244 -5.06628,-11.24518 z m 7.014644,7.88504 3.094634,-6.86252 c 0.141479,-0.31511 0.151125,-0.63344 0.02894,-0.95499 -0.122187,-0.32154 -0.340836,-0.54983 -0.655948,-0.68488 h 3.1e-5 c -0.308681,-0.14148 -0.623793,-0.15435 -0.945336,-0.0386 -0.321543,0.12219 -0.553054,0.34084 -0.694533,0.65595 l -3.239621,7.19738 c 0,0 -0.236085,0.58814 -0.157455,1.11244 0.08474,0.49737 0.353377,0.79963 0.678868,0.9311 0.268196,0.10833 0.57499,0.10072 0.849305,-0.009 0.330228,-0.13147 0.50875,-0.38983 0.684016,-0.65423 0.203612,-0.33591 0.357099,-0.69245 0.357099,-0.69245 z" />
        <path
           id="path365"
           style="stroke-width:0.264583"
           d="m 102.44591,158.29627 q -0.49196,-0.15434 -0.94534,0.0868 -0.45337,0.24115 -0.61736,0.72347 l -2.353693,7.46622 -2.353695,-7.46622 q -0.115755,-0.38585 -0.443729,-0.62701 -0.327974,-0.24116 -0.733118,-0.24116 -0.405144,0 -0.742764,0.24116 -0.327974,0.24116 -0.443729,0.62701 l -2.353695,7.46622 -2.353694,-7.46622 q -0.163987,-0.48232 -0.617363,-0.72347 -0.453376,-0.24116 -0.945336,-0.0868 -0.491961,0.15434 -0.723472,0.61736 -0.241157,0.45338 -0.08682,0.94534 l 3.540189,11.20899 q 0.279742,0.85852 1.225078,0.85852 0.839227,-0.0289 1.138262,-0.85852 l 2.363341,-7.46623 2.353695,7.46623 q 0.33762,0.85852 1.205786,0.85852 0.897105,0 1.157555,-0.85852 l 3.540192,-11.20899 q 0.15434,-0.49196 -0.0868,-0.94534 -0.23152,-0.46302 -0.72348,-0.61736 z" />
        <path
           sodipodi:nodetypes="cssscccsscc"
           id="path367"
           style="stroke-width:0.264583"
           d="m 117.0702,171.53726 c 0.18649,0.28939 0.44694,0.46946 0.78135,0.5402 0.3344,0.0707 0.6463,0.0129 0.93569,-0.17364 0.28939,-0.18649 0.46945,-0.44694 0.54019,-0.78135 0.0707,-0.3344 0.0129,-0.6463 -0.17363,-0.93569 -2.56319,-3.95356 -4.65937,-7.1947 -7.25401,-11.20898 -0.1865,-0.28296 -0.44695,-0.45981 -0.78136,-0.53055 -0.3344,-0.0772 -0.6463,-0.0225 -0.93569,0.16399 -0.28939,0.18649 -0.46945,0.44694 -0.54019,0.78135 -0.0707,0.3344 -0.0129,0.6463 0.17363,0.93569 2.43915,3.76243 5.17899,8.00348 7.25402,11.20898 z" />
        <path
           sodipodi:nodetypes="cssssccccccsssscsccscccc"
           id="path371"
           style="stroke-width:0.264583"
           d="m 158.10526,158.33349 h -7.88101 c -0.34084,0 -0.63345,0.12219 -0.87782,0.36656 -0.23794,0.23794 -0.35691,0.53054 -0.35691,0.87781 0,0.34084 0.11897,0.63023 0.35691,0.86817 0.24437,0.24437 0.53698,0.36656 0.87782,0.36656 2.62892,0.0148 5.25739,-0.003 7.88605,-0.0337 1.85213,-0.29554 1.41059,-2.42299 -0.005,-2.44541 z m -3.8548,4.56004 -5.03907,7.16985 c -0.28939,0.41157 -0.31833,0.84244 -0.0868,1.2926 0.23151,0.44373 0.59807,0.6656 1.09968,0.6656 h 7.88101 c 0.34084,0 0.63345,-0.12219 0.87782,-0.36656 0.23794,-0.23795 0.35691,-0.53055 0.35691,-0.87782 0,-0.34083 -0.11897,-0.63344 -0.35691,-0.87781 -0.24437,-0.23794 -0.53698,-0.35691 -0.87782,-0.35691 h -5.48873 l 3.77518,-5.37711 c 0.42349,-0.64804 0.73729,-1.20004 0.72542,-1.78644 -0.0986,-1.01637 -1.15409,-1.1651 -1.71197,-0.80071 -0.5461,0.36878 -1.15472,1.31533 -1.15472,1.31533 z" />
      </g>
      <path
         sodipodi:nodetypes="ccssccccccc"
         id="path367-1-9"
         style="font-size:19.7556px;line-height:1.25;font-family:Königsberg;-inkscape-font-specification:Königsberg;stroke-width:0.264583"
         d="m 111.9772,171.4242 1.85356,-2.85384 c 0.1865,-0.28939 0.24437,-0.60129 0.17364,-0.93569 -0.0707,-0.33441 -0.25081,-0.59486 -0.5402,-0.78135 -0.28939,-0.1865 -0.60128,-0.24116 -0.93569,-0.16399 -0.3344,0.0707 -0.59485,0.24759 -0.78135,0.53055 l -1.87237,2.89938 c -0.0527,0.0752 -0.16987,0.36091 -0.20588,0.50571 -0.0938,0.57307 0.14957,1.02453 0.45968,1.21903 0.65174,0.52805 1.5028,0.16505 1.84861,-0.4198 z" />
      <path
         d="m 117.25391,163.11261 1.85355,-2.85384 c 0.1865,-0.28939 0.24438,-0.60129 0.17364,-0.93569 -0.0707,-0.33441 -0.2508,-0.59486 -0.54019,-0.78135 -0.28939,-0.1865 -0.60129,-0.24116 -0.93569,-0.16399 -0.33441,0.0707 -0.59486,0.24759 -0.78136,0.53055 l -1.87237,2.89938 c -0.0527,0.0752 -0.16986,0.36091 -0.20587,0.50571 -0.0938,0.57307 0.14956,1.02453 0.45967,1.21903 0.65175,0.52805 1.50281,0.16505 1.84862,-0.4198 z"
         style="font-size:19.7556px;line-height:1.25;font-family:Königsberg;-inkscape-font-specification:Königsberg;stroke-width:0.264583"
         id="path367-1-9-5"
         sodipodi:nodetypes="ccssccccccc" />
      <text
         id="text171"
         y="132.5602"
         x="70.715302"
         style="font-style:normal;font-variant:normal;font-weight:normal;font-stretch:normal;font-size:19.7556px;line-height:1.25;font-family:Königsberg;-inkscape-font-specification:Königsberg;stroke-width:0.264583"
         xml:space="preserve"><tspan
           style="font-style:normal;font-variant:normal;font-weight:normal;font-stretch:normal;font-family:Königsberg;-inkscape-font-specification:Königsberg;stroke-width:0.264583"
           y="132.5602"
           x="70.715302"
           id="tspan169"
           sodipodi:role="line">b</tspan></text>
      <g
         transform="translate(59.266698)"
         id="g200">
        <g
           aria-label="o"
           id="text175"
           style="font-style:normal;font-variant:normal;font-weight:normal;font-stretch:normal;font-size:19.7556px;line-height:1.25;font-family:Königsberg;-inkscape-font-specification:Königsberg;stroke-width:0.264583">
          <path
             d="m 72.596762,138.46568 c -1.108537,0.31606 -2.100302,0.91159 -2.975294,1.78658 -1.376205,1.37621 -2.064306,3.03215 -2.064306,4.96784 0,1.94212 0.688102,3.59807 2.064306,4.96784 0.820402,0.82425 1.743525,1.40146 2.769173,1.73225 0.07066,0.0228 0.741505,0.27313 1.274595,-0.0577 0.192089,-0.11923 0.392196,-0.3049 0.488084,-0.62191 0.116121,-0.3839 0.026,-0.70232 -0.104015,-0.94565 -0.140268,-0.26251 -0.357825,-0.44584 -0.543673,-0.56446 -0.17558,-0.11207 -0.322856,-0.16639 -0.349915,-0.17515 -0.100793,-0.0326 -0.200095,-0.069 -0.297908,-0.10895 -0.542623,-0.22184 -1.039402,-0.55665 -1.490362,-1.00436 -0.887459,-0.89389 -1.331188,-1.96784 -1.331188,-3.22186 0,-1.25402 0.443729,-2.32476 1.331188,-3.21221 0.521551,-0.5178 1.104417,-0.88449 1.748548,-1.10022 0.06883,-0.0231 0.729304,-0.20478 0.963854,-0.87577 0.06661,-0.19056 0.121453,-0.42358 0.07347,-0.69762 -0.04055,-0.2316 -0.152907,-0.39984 -0.258647,-0.53158 -0.454407,-0.56616 -1.297911,-0.36574 -1.297911,-0.33702 z"
             style="font-style:normal;font-variant:normal;font-weight:normal;font-stretch:normal;font-family:Königsberg;-inkscape-font-specification:Königsberg;stroke-width:0.264583"
             id="path177"
             sodipodi:nodetypes="ssscssssssscscssssss" />
        </g>
        <path
           sodipodi:nodetypes="ssscssssscscssssss"
           id="path177-3"
           style="font-style:normal;font-variant:normal;font-weight:normal;font-stretch:normal;font-size:19.7556px;line-height:1.25;font-family:Königsberg;-inkscape-font-specification:Königsberg;stroke-width:0.264583"
           d="m 76.768211,138.46568 c 1.108537,0.31606 2.100302,0.91159 2.975294,1.78658 1.376205,1.37621 2.064306,3.03215 2.064306,4.96784 0,1.94212 -0.688102,3.59807 -2.064306,4.96784 -0.820402,0.82425 -1.743525,1.40146 -2.769173,1.73225 -0.06556,0.0211 -0.647805,0.23818 -1.157305,0.005 -0.237498,-0.10865 -0.489597,-0.30447 -0.605374,-0.68477 -0.133658,-0.43903 -0.0045,-0.79048 0.164156,-1.04673 0.287932,-0.43755 0.781575,-0.62173 0.833447,-0.63853 0.659943,-0.21375 1.25602,-0.58489 1.78827,-1.11331 0.887459,-0.89389 1.331188,-1.96784 1.331188,-3.22186 0,-1.25402 -0.443729,-2.32476 -1.331188,-3.21221 -0.521551,-0.5178 -1.104417,-0.88449 -1.748548,-1.10022 -0.06186,-0.0207 -0.601554,-0.16959 -0.880513,-0.68656 -0.119598,-0.22165 -0.226384,-0.51584 -0.156812,-0.88683 0.07695,-0.41034 0.309166,-0.63652 0.527414,-0.76874 0.432864,-0.26224 1.029144,-0.12339 1.029144,-0.0999 z" />
      </g>
      <g
         transform="translate(63.681989,-24.214931)"
         id="g271">
        <g
           id="g277">
          <path
             d="m 30.263982,142.95517 c -1.108521,0.31612 -2.100302,0.91159 -2.975294,1.78658 -1.376205,1.37621 -2.064306,3.03215 -2.064306,4.96784 0,1.94212 0.688102,3.59807 2.064306,4.96784 0.820402,0.82425 1.743525,1.40146 2.769173,1.73225 0.07719,0.0249 0.870708,0.32137 1.418367,-0.16509 0.134278,-0.11928 0.273104,-0.27889 0.344312,-0.51457 0.08694,-0.28773 0.04826,-0.54128 -0.02015,-0.74973 -0.214399,-0.65328 -0.915099,-0.91533 -0.977453,-0.93553 -0.659943,-0.21375 -1.25602,-0.58489 -1.78827,-1.11331 -0.887459,-0.89389 -1.331188,-1.96784 -1.331188,-3.22186 0,-1.25402 0.443729,-2.32476 1.331188,-3.21221 0.521551,-0.5178 1.104417,-0.88449 1.748548,-1.10022 0.06797,-0.0228 0.712837,-0.20025 0.954833,-0.85077 0.07267,-0.19534 0.133542,-0.43665 0.08249,-0.72262 -0.04648,-0.26034 -0.175824,-0.44224 -0.298937,-0.57898 -0.456713,-0.50726 -1.159842,-0.3175 -1.257621,-0.28962 z"
             style="font-style:normal;font-variant:normal;font-weight:normal;font-stretch:normal;font-size:19.7556px;line-height:1.25;font-family:Königsberg;-inkscape-font-specification:Königsberg;stroke-width:0.264583"
             id="path177-0"
             sodipodi:nodetypes="ssscssssscscssssss" />
          <path
             d="m 36.697298,155.29021 c -0.392619,0.25911 -1.418323,0.91394 -2.055746,1.11947 -0.06902,0.0223 -0.710488,0.26155 -1.23701,-0.0355 -0.20686,-0.1167 -0.423293,-0.30667 -0.525669,-0.64416 -0.121371,-0.40011 -0.02033,-0.72862 0.120932,-0.97628 0.278537,-0.48835 0.822098,-0.6913 0.876671,-0.70898 0.485112,-0.15718 1.001415,-0.465 1.417539,-0.79217 0.351814,-0.27901 0.697244,-0.4067 1.01038,-0.42144 0.453658,-0.0214 0.874173,0.17219 1.07885,0.53042 0.146547,0.25649 0.172071,0.55027 0.139538,0.78999 -0.05418,0.39924 -0.30432,0.7321 -0.631095,0.99557 -0.06488,0.0537 -0.136353,0.10072 -0.19439,0.14308 z"
             style="font-style:normal;font-variant:normal;font-weight:normal;font-stretch:normal;font-size:19.7556px;line-height:1.25;font-family:Königsberg;-inkscape-font-specification:Königsberg;stroke-width:0.264583"
             id="path177-3-7"
             sodipodi:nodetypes="cssssscssscc" />
          <path
             sodipodi:nodetypes="cssssscssscc"
             id="path177-3-7-2"
             style="font-style:normal;font-variant:normal;font-weight:normal;font-stretch:normal;font-size:19.7556px;line-height:1.25;font-family:Königsberg;-inkscape-font-specification:Königsberg;stroke-width:0.264583"
             d="m 36.704312,144.13541 c -0.392619,-0.25911 -1.418323,-0.91394 -2.055746,-1.11947 -0.06902,-0.0223 -0.710488,-0.26155 -1.23701,0.0355 -0.20686,0.1167 -0.423293,0.30667 -0.525669,0.64416 -0.121371,0.40011 -0.02033,0.72862 0.120932,0.97628 0.278537,0.48835 0.822098,0.6913 0.876671,0.70898 0.485112,0.15718 1.001415,0.465 1.417539,0.79217 0.351814,0.27901 0.697244,0.4067 1.01038,0.42144 0.453658,0.0214 0.874173,-0.17219 1.07885,-0.53042 0.146547,-0.25649 0.172071,-0.55027 0.139538,-0.78999 -0.05418,-0.39924 -0.304321,-0.7321 -0.631096,-0.99557 -0.06488,-0.0537 -0.136353,-0.10072 -0.194389,-0.14308 z" />
        </g>
      </g>
      <path
         sodipodi:nodetypes="cscscscsscc"
         d="m 176.51066,128.27225 h 1.77334 c 0.34083,0 0.63344,-0.12219 0.87781,-0.36656 0.23794,-0.24437 0.35691,-0.53697 0.35691,-0.87781 0,-0.34083 -0.11897,-0.63344 -0.35691,-0.87781 -0.24437,-0.23794 -0.53698,-0.35691 -0.87781,-0.35691 h -1.96414 c -0.0737,-5.5e-4 -0.46337,0.0235 -0.78471,0.25157 -0.24743,0.17564 -0.45437,0.47229 -0.44545,0.97189 0.008,0.46538 0.19296,0.76311 0.41354,0.95129 0.29869,0.25684 0.6389,0.30434 1.00742,0.30434 z"
         style="font-size:19.7556px;line-height:1.25;font-family:Königsberg;-inkscape-font-specification:Königsberg;stroke-width:0.264583"
         id="path333-1" />
      <path
         sodipodi:nodetypes="ccssssssccc"
         d="m 211.33677,131.33306 c 0,0.34727 0.12219,0.63987 0.36656,0.87782 0.24437,0.24437 0.53697,0.36656 0.87781,0.36656 0.34083,0 0.63344,-0.12219 0.87781,-0.36656 0.23794,-0.23795 0.35691,-0.53055 0.35691,-0.87782 v -11.19934 c 0,-0.34727 -0.11897,-0.63987 -0.35691,-0.87781 -0.24437,-0.24437 -0.53698,-0.36656 -0.87781,-0.36656 -0.34084,0 -0.63344,0.12219 -0.87781,0.36656 -0.24437,0.23794 -0.36656,0.53054 -0.36656,0.87781 z"
         style="font-size:19.7556px;line-height:1.25;font-family:Königsberg;-inkscape-font-specification:Königsberg;stroke-width:0.264583"
         id="path337-3" />
    </g>
    <g
       style="font-size:182.857px;line-height:1.25;font-family:Königsberg;-inkscape-font-specification:Königsberg;letter-spacing:-8.45px;stroke-width:2.44898"
       id="text682"
       aria-label="1 2 3 4 5 6 7 8 9 0"
       transform="matrix(0.89691751,0,0,0.89691751,44.823185,-102.10031)">
      <path
         id="path813"
         style="stroke-width:2.44898"
         d="m 351.4,680.21897 q -4.82142,0 -8.12499,3.39285 -3.39286,3.30357 -3.39286,8.125 0,4.55356 3.21429,7.85713 3.12499,3.30357 7.76785,3.57143 v 92.23207 q 0,4.82142 3.30357,8.12499 3.39285,3.39285 8.12499,3.39285 4.73214,0 8.12499,-3.39285 3.39286,-3.30357 3.39286,-8.12499 V 691.73682 q 0,-4.82143 -3.39286,-8.125 -3.39285,-3.39285 -8.12499,-3.39285 z" />
      <path
         id="path815"
         style="stroke-width:2.44898"
         d="m 528.70592,779.9054 30.62498,-41.33925 q -0.0893,0.17857 -0.26786,0.44643 l 0.26786,-0.44643 q 11.07142,-14.82141 8.21428,-32.41069 -2.67857,-16.24998 -15.98213,-25.53569 -13.57142,-9.46428 -30.71426,-6.16071 -17.14285,3.30357 -27.58927,17.4107 -2.85714,3.83928 -2.14285,8.48214 0.625,4.73214 4.46428,7.58928 3.83928,2.85714 8.48214,2.14285 4.73214,-0.71428 7.58928,-4.55357 4.99999,-6.69642 12.85713,-8.48213 7.85714,-1.78571 13.92856,2.41071 5.35714,3.75 6.42857,10.35714 1.33928,7.94642 -3.92857,14.99998 l 0.26785,-0.26785 q -0.71428,0.98214 -33.21425,44.64282 l -11.33928,15.35713 q -4.19643,5.62499 -1.07143,11.96427 3.21428,6.33928 10.26785,6.33928 h 53.57139 q 4.73213,0 8.12499,-3.39285 3.30357,-3.30357 3.30357,-8.12499 0,-4.73214 -3.30357,-8.125 -3.39286,-3.30357 -8.12499,-3.30357 z" />
      <path
         sodipodi:nodetypes="ccccsccccsccscccsssscsssssccccccccscscccccscsssc"
         id="path817"
         style="stroke-width:2.44898"
         d="m 679.31231,684.51057 c -3.54963,3.43551 -6.85267,7.77375 -8.87031,12.49504 -1.19048,2.91667 -1.19048,5.86309 0,8.83928 1.19047,2.91667 3.24404,5 6.16071,6.24999 2.91666,1.19048 5.83332,1.19048 8.74999,0 2.91667,-1.19047 5,-3.24404 6.24999,-6.1607 0.81929,-2.68582 2.86706,-6.15732 4.83644,-7.91794 7.27899,-6.6598 8.24506,-19.11185 -0.63635,-21.44582 -5.73951,-1.48619 -12.366,4.05066 -16.49047,7.94015 z m 16.08355,93.3251 c -2.15453,-1.69423 -3.80583,-3.84592 -4.95388,-6.45513 -1.19047,-2.91667 -3.2738,-4.97024 -6.24999,-6.16071 -2.91667,-1.19047 -5.83333,-1.16071 -8.75,0.0893 -2.91666,1.25 -4.97023,3.33333 -6.16071,6.24999 -1.19047,2.97619 -1.16071,5.92261 0.0893,8.83928 3.03571,7.20237 7.79761,12.94642 14.2857,17.23213 2.47586,1.64307 5.00622,3.07112 7.69567,3.99726 0.86359,0.29739 9.43134,4.66073 11.84529,-6.70654 0.9155,-4.31107 0.17336,-7.17902 -1.07305,-9.74847 -2.2499,-4.63811 -6.53333,-7.18377 -6.72833,-7.33711 z m 22.99187,24.13274 c 5.29232,-1.87427 10.08419,-4.95713 14.37565,-9.24859 7.61905,-7.61905 11.42857,-16.7857 11.42857,-27.49998 0,-10.89285 -3.89881,-20.14879 -11.69642,-27.76783 h -10e-6 c 6.84523,-7.2619 10.26785,-15.86308 10.26785,-25.80355 0,-9.3842 -3.02968,-17.54675 -9.08904,-24.48766 -2.13866,-2.77873 -4.64746,-5.16997 -7.20518,-6.98381 -3.56483,-2.4164 -9.01504,-4.76686 -13.00543,-4.7664 -9.65301,0.92153 -10.24915,12.78476 -5.2862,18.18754 2.53314,2.20241 5.05913,4.76644 7.1162,7.09036 2.62018,2.97933 4.47306,6.04085 4.52324,10.95997 0,3.86904 -1.33929,7.23213 -4.01786,10.08927 -2.61905,2.79762 -5.86309,4.31548 -9.73213,4.55357 h -0.89286 c -3.39285,0 -6.24999,1.27976 -8.57142,3.83928 -1.48809,1.66667 -2.41071,3.63095 -2.76786,5.89286 -0.35714,2.2619 -0.0595,4.40475 0.89286,6.42856 2.02381,4.58333 5.50595,6.875 10.44642,6.875 l 0.44643,-0.0893 h 0.44643 c 4.22619,0.23809 7.79761,1.90476 10.71427,5 2.97619,3.03571 4.46429,6.69642 4.46429,10.98213 0,4.40476 -1.57738,8.15476 -4.73214,11.24999 -1.15544,1.17766 -2.40626,2.13552 -3.75249,2.87356 -0.50264,0.27556 -4.24748,2.80545 -5.90473,7.95504 -0.68932,2.14191 -1.08817,4.14038 -0.44131,7.54571 1.5738,8.28516 7.19503,8.60202 11.97287,7.12428 z" />
      <path
         sodipodi:nodetypes="cccccscccscssscscscscsccsc"
         id="path819"
         style="stroke-width:2.44898"
         d="m 903.75733,741.20438 v 20.65212 h -30.62497 c 9.34595,-18.37711 40.85836,-59.04826 48.63397,-68.98396 5.07249,-6.44752 4.22582,-16.20744 -3.00901,-18.51597 -2.32143,-0.77381 -4.67262,-0.77381 -7.05357,0 -2.38095,0.77381 -4.28571,2.14286 -5.71428,4.10714 l -64.73209,88.12493 c -2.79761,3.75 -3.15476,7.73809 -1.07143,11.96428 2.14286,4.22619 5.56548,6.33928 10.26785,6.33928 h 53.30353 v 4.10714 c 0,3.21428 1.10119,5.92261 3.30357,8.12499 2.2619,2.2619 4.97023,3.39285 8.12499,3.39285 3.21429,0 5.92262,-1.13095 8.125,-3.39285 2.2619,-2.20238 3.39285,-4.91071 3.39285,-8.12499 v -4.10714 h 1.875 c 3.15476,0 5.86309,-1.13095 8.12499,-3.39286 2.20238,-2.2619 3.30357,-4.97023 3.30357,-8.12499 0,-3.15476 -1.10119,-5.86309 -3.30357,-8.12499 -2.2619,-2.26191 -4.97023,-3.39286 -8.12499,-3.39286 h -1.875 v -21.43132 c 0.86867,-8.62772 -6.07598,-12.81598 -11.47321,-12.72703 -5.58353,0.092 -11.4732,3.94533 -11.4732,13.50623 z" />
      <path
         sodipodi:nodetypes="csssssscssccccccccscccccccssscscsccc"
         id="path821"
         style="stroke-width:2.44898"
         d="m 1049.3457,698.05785 h 37.3214 c 3.1548,0 5.8631,-1.13095 8.125,-3.39286 2.2619,-2.2619 3.3929,-4.97023 3.3929,-8.12499 0,-3.15476 -1.131,-5.86309 -3.3929,-8.12499 -2.2619,-2.26191 -4.9702,-3.39286 -8.125,-3.39286 h -48.7499 c -3.2143,0 -5.9226,1.13095 -8.125,3.39286 -2.2619,2.2619 -3.3929,4.97023 -3.3929,8.12499 v 43.48211 c 0,3.15476 1.131,5.86309 3.3929,8.12499 2.2024,2.26191 4.9107,3.39286 8.125,3.39286 5.3048,-0.36181 8.4232,-2.60971 10.0351,-6.95025 1.2246,-3.32639 1.3204,-6.44109 1.3445,-9.95087 0.073,-8.70619 0.036,-17.74561 0.049,-26.58099 z m 27.0536,49.01782 c 3.7799,3.71987 5.625,8.2738 5.625,13.57141 0,5.23809 -1.875,9.73214 -5.625,13.48214 -3.6905,3.74999 -8.1845,5.62499 -13.4821,5.62499 -3.4524,0 -6.6667,-0.89286 -9.6429,-2.67857 -3.0357,-1.72619 -5.3869,-4.10714 -7.0536,-7.14285 -1.5476,-2.73809 -3.8392,-4.52381 -6.875,-5.35714 -3.0952,-0.89285 -6.0119,-0.56547 -8.7499,0.98214 -2.7977,1.54762 -4.6131,3.86905 -5.4465,6.96428 -0.8333,3.03571 -0.4762,5.92262 1.0715,8.66071 3.6904,6.66666 8.8392,11.90475 15.4464,15.71427 6.5476,3.86905 13.6309,5.80357 21.25,5.80357 11.6071,0 21.5178,-4.10714 29.7321,-12.32142 8.2143,-8.21428 12.3214,-18.12499 12.3214,-29.73212 0,-11.60713 -4.1369,-21.48823 -12.3214,-29.73211 -4.4441,-4.47633 -9.3848,-7.74175 -14.822,-9.79628 -5.5036,-2.24871 -12.4411,-2.25067 -16.2131,1.06434 -3.3352,2.93107 -4.6485,6.68502 -4.6234,9.88514 1.5174,7.86818 6.4404,7.97776 11.9801,10.20893 2.8705,1.16878 5.524,2.95149 7.4284,4.79857 z" />
      <path
         sodipodi:nodetypes="cccsssccccccscccscsccssscsccc"
         id="path823"
         style="stroke-width:2.44898"
         d="m 1241.1139,711.43701 c 5.8572,-7.83702 13.4229,-13.61994 22.6972,-17.34877 2.9167,-1.19048 5,-3.27381 6.25,-6.25 1.1905,-2.91666 1.1905,-5.83332 0,-8.74999 -1.1905,-2.91667 -3.2441,-5 -6.1607,-6.24999 -2.9167,-1.25 -5.8334,-1.27977 -8.75,-0.0893 -20.4167,8.33333 -34.8214,23.06546 -43.2143,44.19639 -2.8571,7.20237 -4.8809,14.85118 -6.0714,22.94641 -0.4762,2.91667 -0.8036,5.80357 -0.9821,8.66071 -0.059,1.07143 -0.1191,2.14285 -0.1786,3.21428 v 2.41071 2.5 0.89286 c 0,0.29762 0.03,0.53571 0.089,0.71428 l -0.089,0.0893 c 0,11.48809 4.0178,21.30951 12.0536,29.46426 7.9761,8.15475 17.5892,12.23213 28.8392,12.23213 11.25,0 20.8929,-4.07738 28.9286,-12.23213 7.9761,-8.15475 11.9642,-17.97617 11.9642,-29.46426 0,-11.54761 -3.9881,-21.39879 -11.9642,-29.55355 -10.2633,-10.68048 -27.7466,-13.0232 -31.2889,-2.01983 -3.0946,11.13494 9.0002,13.99325 9.7691,14.36272 1.9061,0.91598 3.6627,2.21835 5.2698,3.9071 3.5119,3.69047 5.2678,8.12499 5.2678,13.30356 0,5.17857 -1.7559,9.58332 -5.2678,13.21427 -3.5119,3.69047 -7.7381,5.53571 -12.6786,5.53571 -4.9405,0 -9.1666,-1.84524 -12.6785,-5.53571 -2.7527,-2.89504 -4.408,-6.28202 -4.9659,-10.16093 -3.5108,-20.20008 6.1913,-40.33905 13.1615,-49.99023 z" />
      <path
         id="path825"
         style="stroke-width:2.44898"
         d="m 1394.3977,675.11144 q -4.8214,0 -8.125,3.30357 -3.3929,3.39285 -3.3929,8.12499 0,4.73214 3.3929,8.12499 3.3036,3.39286 8.125,3.39286 h 40.7142 l -28.3928,88.74993 q -1.4286,4.55356 0.8036,8.74999 2.1428,4.19642 6.6964,5.71428 4.4643,1.42857 8.75,-0.80357 4.1964,-2.14286 5.625,-6.69642 l 33.2142,-103.74992 q 1.7857,-5.53571 -1.6964,-10.26785 -3.3929,-4.64285 -9.2857,-4.64285 z" />
      <path
         sodipodi:nodetypes="cssssscccssscscsccssssscssscsc"
         id="path827"
         style="stroke-width:2.44898"
         d="m 1611.036,756.59424 c 1.8318,2.66191 2.4738,5.29905 2.4738,8.45787 0,4.22619 -1.5179,7.85713 -4.5536,10.89284 -3.0357,3.03571 -6.6964,4.55357 -10.9821,4.55357 -4.2262,0 -7.8572,-1.51786 -10.8929,-4.55357 -3.0357,-3.03571 -4.5535,-6.66665 -4.5535,-10.89284 0,-3.62432 0.2147,-6.00116 3.2565,-9.53207 6.8698,-7.09701 8.8208,-9.07197 9.5048,-17.78168 0.3478,-7.7338 -3.8373,-12.53337 -8.5471,-17.38191 -2.2738,-2.66344 -3.4107,-5.80059 -3.4107,-9.41144 0,-4.04762 1.4286,-7.5 4.2857,-10.35714 2.8572,-2.85714 6.3096,-4.28571 10.3572,-4.28571 4.0476,0 7.5,1.42857 10.3571,4.28571 2.9167,2.85714 4.375,6.30952 4.375,10.35714 0,3.60358 -1.1559,6.73535 -3.4677,9.39533 -6.3257,6.08269 -3.4885,10.8282 -3.3289,17.36306 0.1752,7.17921 0.6917,12.88891 5.1264,18.89084 z m 13.6345,-19.1314 c 7.3214,-7.38095 10.9821,-16.22022 10.9821,-26.51783 0,-10.35714 -3.6905,-19.22618 -11.0714,-26.60713 -7.3214,-7.32142 -16.1904,-10.98213 -26.6071,-10.98213 -10.3571,0 -19.1964,3.66071 -26.5179,10.98213 -7.3809,7.38095 -11.0714,16.24999 -11.0714,26.60713 0,10.29761 3.631,19.13688 10.8929,26.51783 -7.7976,7.55952 -11.6964,16.75594 -11.6964,27.58927 0,10.59523 3.75,19.64284 11.2499,27.14283 7.5,7.49999 16.5476,11.24999 27.1429,11.24999 10.5952,0 19.6726,-3.75 27.2321,-11.24999 7.5,-7.49999 11.25,-16.5476 11.25,-27.14283 0,-10.83333 -3.9286,-20.02975 -11.7857,-27.58927 z" />
      <path
         sodipodi:nodetypes="cccccccccccc"
         id="path831"
         style="stroke-width:2.44898"
         d="m 1348.0673,838.16022 v 0.26786 -0.0893 z m 0,-46.16067 v 0.35714 -0.44643 z m 0,-0.44643 v -0.0893 0.44643 z" />
    </g>
    <path
       d="m 1501.8587,511.69431 c 6.62,6.62011 9.9301,14.57491 9.9301,23.86441 0,9.2361 -3.2567,17.1642 -9.77,23.7843 6.9938,6.78027 10.4907,15.0287 10.4907,24.7453 0,9.50305 -3.3635,17.61801 -10.0903,24.34488 -6.7268,6.72687 -14.8418,10.09031 -24.3449,-0.2002 3.7905,-10.29052 7.0473,-11.65192 9.77,-14.3747 2.7228,-2.72278 4.0841,-5.97944 4.0841,-9.76998 0,-3.25072 -0.1925,-5.38254 -2.9208,-8.54948 -6.1616,-6.36543 -7.9115,-8.13681 -8.525,-15.9487 -0.3119,-6.93658 3.4417,-11.2414 7.666,-15.59014 2.0395,-2.38889 3.0592,-5.20265 3.0592,-8.44128 0,-3.63039 -1.2814,-6.72689 -3.844,-9.2895 -2.5626,-2.56262 -5.6591,-3.84393 -9.2895,-14.13445 9.2895,-10.29052 17.2176,-7.00717 23.7844,-0.44046 z"
       style="font-size:182.857px;line-height:1.25;font-family:Königsberg;-inkscape-font-specification:Königsberg;letter-spacing:-8.45px;stroke-width:2.19653"
       id="path827-5"
       sodipodi:nodetypes="sscsscsscccsscs" />
    <path
       d="m 1645.3433,582.09852 c -5.2534,7.02916 -12.0392,12.21596 -20.3575,15.56041 -2.6161,1.06776 -4.4846,2.93634 -5.6058,5.60574 -1.0677,2.616 -1.0677,5.232 0,7.84802 1.0678,2.61602 2.9097,4.48459 5.5257,5.60573 2.616,1.12115 5.232,1.14785 7.848,0.0801 18.3121,-7.47431 31.2319,-20.68782 38.7597,-39.64052 2.5626,-6.45993 4.3777,-13.32028 5.4455,-20.58104 0.4271,-2.61601 0.7208,-5.20532 0.8809,-7.76794 0.054,-0.96098 0.1068,-1.92196 0.1602,-2.88294 v -2.16221 -2.2423 -0.80082 c 0,-0.26694 -0.027,-0.48049 -0.08,-0.64065 L 1678,540 c 0,-10.30387 -3.6038,-19.11287 -10.8111,-26.427 -7.154,-7.31414 -15.7761,-10.97122 -25.8664,-10.97122 -10.0903,0 -18.7392,3.65708 -25.9466,10.97122 -7.154,7.31413 -10.7309,16.12313 -10.7309,26.427 0,10.35725 3.5769,19.19295 10.7309,26.50709 9.2054,9.57951 24.8864,11.68074 28.0636,1.81162 2.7756,-9.98712 -8.0724,-12.55079 -8.7621,-12.88217 -1.7096,-0.82156 -3.2851,-1.98968 -4.7266,-3.50435 -3.1498,-3.31004 -4.7247,-7.28744 -4.7247,-11.93219 0,-4.64475 1.5749,-8.59545 4.7247,-11.85211 3.1499,-3.31004 6.9405,-4.96507 11.3717,-4.96507 4.4311,0 8.2217,1.65503 11.3716,4.96507 2.4689,2.59661 3.9536,5.63445 4.454,9.11351 3.1488,18.11781 -5.5532,36.1808 -11.8048,44.83712 z"
       style="font-size:182.857px;line-height:1.25;font-family:Königsberg;-inkscape-font-specification:Königsberg;letter-spacing:-8.45px;stroke-width:2.19653"
       id="path823-3"
       sodipodi:nodetypes="cccsssccccccscccscsccssscsccc" />
    <path
       sodipodi:nodetypes="cccccssccscccssccc"
       id="path831-7-5"
       style="font-size:182.857px;line-height:1.25;font-family:Königsberg;-inkscape-font-specification:Königsberg;letter-spacing:-8.45px;stroke-width:2.19653"
       d="m 1814,526 c 0.9773,0.69003 1.9046,1.51029 2.7818,2.46061 3.2566,3.47022 4.9117,7.66117 4.965,12.57286 v 40.52141 c -0.053,4.8583 -1.7082,8.99586 -4.965,12.41269 -0.9028,0.97801 -1.8586,1.81825 -2.8674,2.52059 -0.2169,0.15099 -1.2044,0.78747 -2.4484,1.81313 -1.5155,1.2496 -3.4118,3.07688 -4.7589,5.3077 -5.2554,10.73302 3.493,17.65989 12.3415,13.74704 2.4663,-1.13736 4.4099,-2.49726 4.9231,-2.81629 2.5786,-1.60287 5.0135,-3.57524 7.3049,-5.91719 7.2608,-7.47431 10.9445,-16.47016 11.0513,-26.98758 v -40.68159 c -0.1068,-10.57081 -3.7906,-19.59333 -11.0513,-27.06767 -2.3098,-2.37769 -4.7654,-4.37713 -7.3669,-5.99851 -0.864,-0.53847 -6.5771,-4.51504 -11.7201,-2.94783 -4.653,1.87815 -6.3584,5.85901 -5.5056,10.45363 0.82,4.18997 3.7679,8.06511 7.316,10.607 z" />
    <path
       d="m 1790.5612,526.18765 c -0.9773,0.69002 -1.9046,1.51028 -2.7818,2.46061 -3.2566,3.47022 -4.9117,7.66116 -4.9651,12.57285 v 40.52142 c 0.053,4.8583 1.7083,8.99586 4.9651,12.41268 0.9028,0.97802 1.8586,1.81825 2.8674,2.52059 0.2168,0.151 1.2043,0.78748 2.4484,1.81314 1.5155,1.24959 3.4118,3.07687 4.7588,5.3077 5.2554,10.73301 -3.4929,17.65988 -12.3414,13.74703 -2.4663,-1.13735 -4.4099,-2.49726 -4.9232,-2.81628 -2.5785,-1.60288 -5.0135,-3.57525 -7.3048,-5.91719 -7.2608,-7.47431 -10.9446,-16.47017 -11.0513,-26.98759 v -40.68158 c 0.1067,-10.57081 3.7906,-19.59334 11.0513,-27.06767 2.3097,-2.37769 4.7654,-4.37714 7.3669,-5.99851 0.864,-0.53848 6.5771,-4.51504 11.72,-2.94783 4.6531,1.87814 6.3585,5.859 5.5057,10.45363 -0.82,4.18996 -3.7679,8.0651 -7.316,10.607 z"
       style="font-size:182.857px;line-height:1.25;font-family:Königsberg;-inkscape-font-specification:Königsberg;letter-spacing:-8.45px;stroke-width:2.19653"
       id="path831-7-5-4"
       sodipodi:nodetypes="cccccssccscccssccc" />
    <path
       style="font-variation-settings:normal;opacity:1;vector-effect:none;fill:none;fill-opacity:1;stroke:#000000;stroke-width:0.755928px;stroke-linecap:butt;stroke-linejoin:miter;stroke-miterlimit:4;stroke-dasharray:none;stroke-dashoffset:0;stroke-opacity:1;stop-color:#000000;stop-opacity:1"
       d="M 440,0 V 640 Z"
       id="path1310" />
    <path
       style="font-variation-settings:normal;opacity:1;vector-effect:none;fill:none;fill-opacity:1;stroke:#000000;stroke-width:0.755928px;stroke-linecap:butt;stroke-linejoin:miter;stroke-miterlimit:4;stroke-dasharray:none;stroke-dashoffset:0;stroke-opacity:1;stop-color:#000000;stop-opacity:1"
       d="M 760,0 V 640 Z"
       id="path1314" />
    <path
       style="font-variation-settings:normal;opacity:1;vector-effect:none;fill:none;fill-opacity:1;stroke:#000000;stroke-width:0.755928px;stroke-linecap:butt;stroke-linejoin:miter;stroke-miterlimit:4;stroke-dasharray:none;stroke-dashoffset:0;stroke-opacity:1;stop-color:#000000;stop-opacity:1"
       d="M 920,0 V 640 Z"
       id="path1316" />
    <path
       style="font-variation-settings:normal;opacity:1;vector-effect:none;fill:none;fill-opacity:1;stroke:#000000;stroke-width:0.755928px;stroke-linecap:butt;stroke-linejoin:miter;stroke-miterlimit:4;stroke-dasharray:none;stroke-dashoffset:0;stroke-opacity:1;stop-color:#000000;stop-opacity:1"
       d="M 1080,0 V 640 Z"
       id="path1318" />
    <path
       style="font-variation-settings:normal;opacity:1;vector-effect:none;fill:none;fill-opacity:1;stroke:#000000;stroke-width:0.755928px;stroke-linecap:butt;stroke-linejoin:miter;stroke-miterlimit:4;stroke-dasharray:none;stroke-dashoffset:0;stroke-opacity:1;stop-color:#000000;stop-opacity:1"
       d="M 1240,0 V 640 Z"
       id="path1320" />
    <path
       style="font-variation-settings:normal;opacity:1;vector-effect:none;fill:none;fill-opacity:1;stroke:#000000;stroke-width:0.755928px;stroke-linecap:butt;stroke-linejoin:miter;stroke-miterlimit:4;stroke-dasharray:none;stroke-dashoffset:0;stroke-opacity:1;stop-color:#000000;stop-opacity:1"
       d="M 1402,0 V 640 Z"
       id="path1322" />
    <path
       style="font-variation-settings:normal;opacity:1;vector-effect:none;fill:none;fill-opacity:1;stroke:#000000;stroke-width:0.755928px;stroke-linecap:butt;stroke-linejoin:miter;stroke-miterlimit:4;stroke-dasharray:none;stroke-dashoffset:0;stroke-opacity:1;stop-color:#000000;stop-opacity:1"
       d="M 1560,0 V 640 Z"
       id="path1324" />
    <path
       style="font-variation-settings:normal;opacity:1;vector-effect:none;fill:none;fill-opacity:1;stroke:#000000;stroke-width:0.755928px;stroke-linecap:butt;stroke-linejoin:miter;stroke-miterlimit:4;stroke-dasharray:none;stroke-dashoffset:0;stroke-opacity:1;stop-color:#000000;stop-opacity:1"
       d="M 1720,0 V 640 Z"
       id="path1326" />
    <path
       style="font-variation-settings:normal;opacity:1;vector-effect:none;fill:none;fill-opacity:1;stroke:#000000;stroke-width:0.903507px;stroke-linecap:butt;stroke-linejoin:miter;stroke-miterlimit:4;stroke-dasharray:none;stroke-dashoffset:0;stroke-opacity:1;stop-color:#000000;stop-opacity:1"
       d="M 280,160 H 1880 Z"
       id="path1330" />
    <path
       style="font-variation-settings:normal;opacity:1;vector-effect:none;fill:none;fill-opacity:1;stroke:#000000;stroke-width:0.903507px;stroke-linecap:butt;stroke-linejoin:miter;stroke-miterlimit:4;stroke-dasharray:none;stroke-dashoffset:0;stroke-opacity:1;stop-color:#000000;stop-opacity:1"
       d="M 280,320 H 1880 Z"
       id="path1332" />
    <path
       style="font-variation-settings:normal;opacity:1;vector-effect:none;fill:none;fill-opacity:1;stroke:#000000;stroke-width:0.903507px;stroke-linecap:butt;stroke-linejoin:miter;stroke-miterlimit:4;stroke-dasharray:none;stroke-dashoffset:0;stroke-opacity:1;stop-color:#000000;stop-opacity:1"
       d="M 280,480 H 1880 Z"
       id="path1334" />
    <path
       id="path1310-2"
       d="M 602,0 V 640 Z"
       style="font-variation-settings:normal;opacity:1;vector-effect:none;fill:none;fill-opacity:1;stroke:#000000;stroke-width:0.755928px;stroke-linecap:butt;stroke-linejoin:miter;stroke-miterlimit:4;stroke-dasharray:none;stroke-dashoffset:0;stroke-opacity:1;stop-color:#000000;stop-opacity:1" />
    <path
       d="m 340,458 c -6.05276,-2.31812 -11.57893,-5.94906 -16.57842,-10.8928 -9.4139,-9.30872 -14.19972,-20.53698 -14.35747,-33.68477 v -54.98418 c 0,-2.83996 0.99926,-5.23283 2.99771,-7.1787 1.99845,-1.99845 4.3914,-2.99771 7.17869,-2.99771 v 8e-5 c 2.78738,0 5.18033,0.99927 7.17876,2.99771 1.94586,1.94587 2.91879,4.33874 2.91879,7.1787 v 54.82643 c 0.1055,7.5732 2.8663,14.06822 8.28313,19.48505 2.21639,2.17379 4.60983,3.90711 7.18025,5.20004 0.56919,0.28623 9.63127,2.72637 8.28853,13.06192 C 350.25753,460.82213 340.88101,458.33751 340,458 Z"
       style="font-size:19.7556px;line-height:1.25;font-family:Königsberg;-inkscape-font-specification:Königsberg;stroke-width:2.16375"
       id="path361-9"
       sodipodi:nodetypes="sscscssssccscs" />
    <path
       d="m 1090.0004,745.02014 c -1.157,-2.57696 -3.0503,-4.36507 -5.6799,-5.36434 -2.577,-0.94659 -5.1539,-0.84143 -7.7309,0.31567 -2.5244,1.10444 -4.2862,2.97138 -5.2854,5.60093 -0.9993,2.62962 -0.9204,5.23291 0.2366,7.80986 l 41.3368,91.66659 0.1578,0.23635 0.1577,0.23634 0.4733,0.94668 0.6311,0.78917 0.6311,0.70985 0.7889,0.70985 0.71,0.55201 0.9466,0.55201 0.3155,0.15784 0.2367,0.15783 0.3155,0.0818 1.0255,0.31567 0.8678,0.31567 1.0255,0.0818 0.9467,0.0818 0.9466,-0.0818 1.0256,-0.0818 0.8677,-0.31567 1.0255,-0.31567 0.3155,-0.0818 0.2367,-0.15783 0.2367,-0.15784 0.9466,-0.55201 0.7889,-0.55201 0.7888,-0.70985 0.6311,-0.70985 0.5522,-0.78917 0.5522,-0.94668 0.1577,-0.23634 0.1578,-0.23635 c 1.3397,-2.79833 1.2264,-5.5283 0.095,-8.06608 -14.1915,-31.83034 -29.0983,-64.62584 -41.4319,-91.96263 z m 57.3655,64.48354 25.3077,-56.12142 c 1.1571,-2.57695 1.2359,-5.18024 0.2367,-7.80986 -0.9992,-2.62955 -2.7873,-4.49649 -5.3643,-5.60093 h 3e-4 c -2.5244,-1.15701 -5.1014,-1.26226 -7.731,-0.31567 -2.6295,0.99927 -4.5228,2.78738 -5.6798,5.36434 l -26.4935,58.85988 c 0,0 -1.9307,4.80979 -1.2877,9.09749 0.693,4.06747 2.8899,6.53934 5.5518,7.6145 2.1933,0.88592 4.7022,0.82368 6.9456,-0.0736 2.7005,-1.07516 4.1605,-3.18801 5.5938,-5.35027 1.6651,-2.74706 2.9204,-5.66283 2.9204,-5.66283 z"
       style="font-size:19.7556px;line-height:1.25;font-family:Königsberg;-inkscape-font-specification:Königsberg;stroke-width:2.16375"
       id="path363-4"
       sodipodi:nodetypes="cccscccccccccccccccccccccccccccccccccscccsccccccscccc" />
    <path
       d="m 1550.9934,759.30685 q 4.2599,0 7.1787,-2.99771 2.9977,-2.9188 2.9977,-7.09986 0,-4.2599 -2.9977,-7.1787 -2.9188,-2.99771 -7.1787,-2.99771 h -53.091 q -4.2599,0 -7.1787,2.99771 -2.9977,2.9188 -2.9977,7.1787 v 91.58775 q 0,4.2599 2.9977,7.17878 2.9188,2.99771 7.1787,2.99771 h 53.091 q 4.2599,0 7.1787,-2.99771 2.9977,-2.91888 2.9977,-7.17878 0,-4.18098 -2.9977,-7.1787 -2.9188,-2.91879 -7.1787,-2.91879 H 1508 v -25.79607 h 32.6592 q 4.2599,0 7.1787,-2.99771 2.9977,-2.91879 2.9977,-7.17869 0,-4.18099 -2.9977,-7.09978 -2.9188,-2.99771 -7.1787,-2.99771 H 1508 v -25.32273 z"
       style="font-size:19.7556px;line-height:1.25;font-family:Königsberg;-inkscape-font-specification:Königsberg;stroke-width:2.16375"
       id="path331-3" />
    <path
       sodipodi:nodetypes="cccccsscscsccccccccsscsscsccc"
       d="m 1343.2198,800.83662 -47.4286,-58.02025 c -1.3673,-1.68294 -3.0766,-2.81363 -5.1276,-3.39214 -2.1037,-0.57818 -4.1548,-0.52584 -6.1532,0.15784 -2.0511,0.73601 -3.6814,1.97211 -4.891,3.70764 -1.2622,1.73553 -1.8933,3.68139 -1.8933,5.83767 v 91.66659 c 0,2.83996 0.9992,5.23283 2.9977,7.17878 1.9459,1.99844 4.3388,2.99771 7.1787,2.99771 2.7873,0 5.1539,-0.99927 7.0999,-2.99771 1.9984,-1.94595 2.9976,-4.33882 2.9976,-7.17878 V 778 l 30.8756,37.40124 c 4.0078,5.05014 13.4017,4.84471 16.3408,1.15915 2.9773,-4.02356 2.4857,-11.73284 -1.9966,-15.72295 z m 10.3956,46.3472 c 1.2573,1.45715 3.024,2.81362 5.1276,3.39213 2.0512,0.57819 4.1022,0.52585 6.1532,-0.15783 1.9986,-0.73602 3.6288,-1.9722 4.891,-3.70764 1.2096,-1.78811 1.8145,-3.76031 1.8145,-5.91659 V 749.1273 c 0,-2.78737 -0.973,-5.18033 -2.9188,-7.17878 -1.9986,-1.94586 -4.3914,-2.91879 -7.1788,-2.91879 v 8e-5 c -2.7873,0 -5.1803,0.97293 -7.1787,2.9188 -1.9985,1.99844 -2.9977,4.3914 -2.9977,7.17877 v 90.47931 c -0.1693,2.69358 0.6828,5.61458 2.2877,7.57713 z"
       style="font-size:19.7556px;line-height:1.25;font-family:Königsberg;-inkscape-font-specification:Königsberg;stroke-width:2.16375"
       id="path347-9" />
    <path
       d="m 1461.5244,739.03287 h -64.4506 c -2.7874,0 -5.1803,0.99927 -7.1788,2.99771 -1.9458,1.94587 -2.9188,4.33874 -2.9188,7.1787 0,2.78737 0.973,5.15399 2.9188,7.09986 1.9985,1.99845 4.3914,2.99771 7.1788,2.99771 21.4992,0.12104 42.9947,-0.0245 64.4918,-0.2756 15.1466,-2.41691 11.5357,-19.81511 -0.041,-19.99846 z M 1430,776.3247 l -41.2093,58.63474 c -2.3667,3.3658 -2.6033,6.88944 -0.7099,10.57083 1.8933,3.62881 4.891,5.44325 8.9932,5.44325 h 64.4505 c 2.7874,0 5.1804,-0.99926 7.1788,-2.99771 1.9459,-1.94595 2.9188,-4.33882 2.9188,-7.17878 0,-2.78729 -0.9729,-5.18025 -2.9188,-7.17869 -1.9984,-1.94587 -4.3914,-2.9188 -7.1788,-2.9188 h -44.8866 l 30.8733,-43.97379 c 3.4633,-5.29964 6.0295,-9.81388 5.9324,-14.60943 -0.8063,-8.31184 -9.4381,-9.52814 -14.0004,-6.54818 -4.466,3.01587 -9.4432,10.75672 -9.4432,10.75672 z"
       style="font-size:19.7556px;line-height:1.25;font-family:Königsberg;-inkscape-font-specification:Königsberg;stroke-width:2.16375"
       id="path371-0"
       sodipodi:nodetypes="cssssccccccsssscsccscccc" />
    <path
       d="m 1252.9934,759.30685 q 4.2599,0 7.1787,-2.99771 2.9977,-2.9188 2.9977,-7.09986 0,-4.2599 -2.9977,-7.1787 -2.9188,-2.99771 -7.1787,-2.99771 h -53.091 q -4.2599,0 -7.1787,2.99771 -2.9977,2.9188 -2.9977,7.1787 v 91.58775 q 0,4.2599 2.9977,7.17878 2.9188,2.99771 7.1787,2.99771 h 53.091 q 4.2599,0 7.1787,-2.99771 2.9977,-2.91888 2.9977,-7.17878 0,-4.18098 -2.9977,-7.1787 -2.9188,-2.91879 -7.1787,-2.91879 H 1210 v -25.79607 h 32.6592 q 4.2599,0 7.1787,-2.99771 2.9977,-2.9188 2.9977,-7.17869 0,-4.18099 -2.9977,-7.09978 -2.9188,-2.99771 -7.1787,-2.99771 H 1210 v -25.32273 z"
       style="font-size:19.7556px;line-height:1.25;font-family:Königsberg;-inkscape-font-specification:Königsberg;stroke-width:2.16375"
       id="path331-0" />
    <path
       d="m 1598,830.69954 v -81.49026 q 0,-4.2599 -2.9977,-7.1787 -2.9188,-2.99771 -7.0998,-2.99771 -4.2599,0 -7.1788,2.99771 -2.9977,2.9188 -2.9977,7.1787 v 91.58775 q 0,4.2599 2.9977,7.17878 2.9189,2.99771 7.1788,2.99771 h 46.3855 q 4.181,0 7.1787,-2.99771 2.9188,-2.91888 2.9188,-7.17878 0,-4.18098 -2.9188,-7.1787 -2.9977,-2.91879 -7.1787,-2.91879 z"
       style="font-size:19.7556px;line-height:1.25;font-family:Königsberg;-inkscape-font-specification:Königsberg;stroke-width:2.16375"
       id="path343-3" />
    <path
       d="m 918.0509,1044.7646 24.0791,31.9047 c 1.7355,2.2088 3.9706,3.5236 6.7054,3.9444 2.7873,0.368 5.3117,-0.2895 7.5731,-1.9722 2.2089,-1.683 3.4974,-3.9181 3.8655,-6.7054 0.4212,-2.7874 -0.2364,-5.2855 -1.9722,-7.4943 L 940,1040.1446 c 6.6791,-2.8924 12.0697,-7.389 16.1718,-13.4896 4.1548,-6.2584 6.2321,-13.1479 6.2321,-20.6684 v 0 c 0,-10.20281 -3.6025,-18.93294 -10.8075,-26.19056 -7.2577,-7.31019 -15.9615,-10.99158 -26.1116,-11.04417 h -29.9771 -0.552 l -0.4735,0.0818 -0.552,-0.0818 h -0.4735 c -2.84,0 -5.2328,0.97293 -7.1787,2.9188 -1.9984,1.99845 -2.9977,4.3914 -2.9977,7.17877 v 91.66666 c 0,2.8399 0.9993,5.2328 2.9977,7.1788 1.9459,1.9984 4.3387,2.9977 7.1787,2.9977 2.7874,0 5.154,-0.9993 7.0999,-2.9977 1.9984,-1.946 2.9977,-4.3389 2.9977,-7.1788 v -23.9592 c -10e-5,-19.177 -10e-5,-38.354 -10e-5,-57.53105 h 21.8517 c 4.5755,0.0573 8.5198,1.73741 11.833,5.04875 3.2606,3.3133 4.891,7.2839 4.891,11.912 0,4.628 -1.6304,8.5986 -4.891,11.9119 -3.3132,3.3133 -7.2839,4.9962 -11.9119,5.0488 -11.1073,0.5593 -14.8775,10.8584 -7.2761,21.8173 z"
       style="font-size:19.7556px;line-height:1.25;font-family:Königsberg;-inkscape-font-specification:Königsberg;stroke-width:2.16375"
       id="path355-5"
       sodipodi:nodetypes="ccccccccssscccccsssscscsccccsccc" />
    <path
       sodipodi:nodetypes="ccscscsscscscczcccssssssccc"
       d="M 1047.8242,1014.4375 H 1012 v -35.49911 c 0,-2.83996 -0.9993,-5.23283 -2.9977,-7.1787 -1.946,-1.99845 -4.3126,-2.99771 -7.0999,-2.99771 -2.84,0 -5.2328,0.99926 -7.1787,2.99771 -1.9984,1.94587 -2.9977,4.33874 -2.9977,7.1787 v 91.58771 c 0,2.84 0.9993,5.2329 2.9977,7.1788 1.9459,1.9985 4.3387,2.9977 7.1787,2.9977 2.7873,0 5.1539,-0.9992 7.0999,-2.9977 1.9984,-1.9459 2.9977,-4.3388 2.9977,-7.1788 v -35.8146 h 36.5237 c 0.1325,0.4645 9.6458,-0.9437 9.6623,-9.9038 0.016,-8.9601 -9.5376,-11.1944 -10.3618,-10.3702 z m 17.5034,56.0886 c 0,2.84 0.9992,5.2329 2.9977,7.1788 1.9984,1.9985 4.3913,2.9977 7.1787,2.9977 2.7873,0 5.1802,-0.9992 7.1787,-2.9977 1.9458,-1.9459 2.9188,-4.3388 2.9188,-7.1788 v -91.58771 c 0,-2.83996 -0.973,-5.23283 -2.9188,-7.1787 -1.9985,-1.99845 -4.3914,-2.99771 -7.1787,-2.99771 -2.7874,0 -5.1803,0.99926 -7.1787,2.99771 -1.9985,1.94587 -2.9977,4.33874 -2.9977,7.1787 z"
       style="font-size:19.7556px;line-height:1.25;font-family:Königsberg;-inkscape-font-specification:Königsberg;stroke-width:2.16375"
       id="path337-4" />
    <path
       sodipodi:nodetypes="ssscssssssscscssssss"
       id="path177-5"
       style="font-style:normal;font-variant:normal;font-weight:normal;font-stretch:normal;font-size:19.7556px;line-height:1.25;font-family:Königsberg;-inkscape-font-specification:Königsberg;stroke-width:2.16375"
       d="m 1151.8861,969.49424 c -9.0656,2.58473 -17.1762,7.45495 -24.3319,14.61058 -11.2545,11.25462 -16.8818,24.79678 -16.8818,40.62678 0,15.8826 5.6273,29.4248 16.8818,40.6268 6.7092,6.7407 14.2585,11.4611 22.6462,14.1663 0.5779,0.1864 6.064,2.2336 10.4236,-0.4719 1.5709,-0.9751 3.2074,-2.4935 3.9915,-5.086 0.9497,-3.1395 0.2127,-5.7435 -0.8506,-7.7335 -1.1471,-2.1468 -2.9263,-3.646 -4.4461,-4.6161 -1.4359,-0.9165 -2.6404,-1.3607 -2.8616,-1.4324 -0.8243,-0.2666 -1.6364,-0.5642 -2.4363,-0.8909 -4.4376,-1.8142 -8.5002,-4.5523 -12.1881,-8.2137 -7.2576,-7.3102 -10.8864,-16.0929 -10.8864,-26.3482 0,-10.2553 3.6288,-19.0118 10.8864,-26.26926 4.2652,-4.2346 9.0318,-7.2334 14.2995,-8.99759 0.5629,-0.18891 5.9642,-1.67468 7.8824,-7.16201 0.5447,-1.55839 0.9932,-3.46402 0.6008,-5.70511 -0.3316,-1.89402 -1.2505,-3.26988 -2.1152,-4.34724 -3.7161,-4.63003 -10.6143,-2.99101 -10.6143,-2.75614 z" />
    <path
       d="m 1186,969.49508 c 9.0656,2.58473 17.1762,7.45495 24.3318,14.61058 11.2545,11.25462 16.8818,24.79684 16.8818,40.62684 0,15.8826 -5.6273,29.4248 -16.8818,40.6268 -6.7092,6.7407 -14.2584,11.4611 -22.6462,14.1663 -0.5361,0.1725 -5.2977,1.9478 -9.4644,0.041 -1.9422,-0.8886 -4.0039,-2.49 -4.9507,-5.6001 -1.093,-3.5903 -0.037,-6.4645 1.3425,-8.5601 2.3547,-3.5782 6.3917,-5.0845 6.8159,-5.2219 5.397,-1.748 10.2717,-4.7832 14.6244,-9.1046 7.2576,-7.3101 10.8864,-16.0929 10.8864,-26.3482 0,-10.2553 -3.6288,-19.0118 -10.8864,-26.26932 -4.2652,-4.2346 -9.0319,-7.2333 -14.2996,-8.99758 -0.5059,-0.16928 -4.9195,-1.3869 -7.2008,-5.61466 -0.978,-1.81264 -1.8513,-4.21852 -1.2824,-7.25246 0.6293,-3.35574 2.5284,-5.20543 4.3132,-6.28672 3.5399,-2.14469 8.4163,-1.00918 8.4163,-0.81708 z"
       style="font-style:normal;font-variant:normal;font-weight:normal;font-stretch:normal;font-size:19.7556px;line-height:1.25;font-family:Königsberg;-inkscape-font-specification:Königsberg;stroke-width:2.16375"
       id="path177-3-2"
       sodipodi:nodetypes="ssscssssscscssssss" />
    <path
       sodipodi:nodetypes="cccccsscscsccccccccsscsscsccc"
       d="m 1315.6044,1030.5688 -47.4286,-58.02024 c -1.3673,-1.68294 -3.0766,-2.81363 -5.1276,-3.39214 -2.1037,-0.57818 -4.1547,-0.52584 -6.1532,0.15784 -2.0511,0.73601 -3.6814,1.97211 -4.891,3.70764 -1.2622,1.73553 -1.8933,3.68139 -1.8933,5.83767 v 91.66663 c 0,2.8399 0.9992,5.2328 2.9977,7.1787 1.9459,1.9985 4.3388,2.9977 7.1787,2.9977 2.7873,0 5.154,-0.9992 7.0999,-2.9977 1.9985,-1.9459 2.9976,-4.3388 2.9976,-7.1787 v -62.794 l 30.8756,37.4012 c 4.0079,5.0502 13.4017,4.8447 16.3408,1.1592 2.9773,-4.0236 2.4858,-11.7329 -1.9966,-15.723 z M 1326,1076.916 c 1.2574,1.4572 3.024,2.8136 5.1277,3.3921 2.0511,0.5782 4.1021,0.5259 6.1531,-0.1578 1.9986,-0.736 3.6289,-1.9722 4.891,-3.7076 1.2096,-1.7881 1.8145,-3.7604 1.8145,-5.9166 v -91.66661 c 0,-2.78737 -0.973,-5.18033 -2.9188,-7.17878 -1.9986,-1.94586 -4.3914,-2.91879 -7.1788,-2.91879 v 8e-5 c -2.7873,0 -5.1802,0.97293 -7.1787,2.9188 -1.9984,1.99844 -2.9977,4.3914 -2.9977,7.17877 v 90.47933 c -0.1693,2.6936 0.6829,5.6146 2.2877,7.5771 z"
       style="font-size:19.7556px;line-height:1.25;font-family:Königsberg;-inkscape-font-specification:Königsberg;stroke-width:2.16375"
       id="path347-4" />
    <path
       d="m 1406,1080.7021 c 15.2515,-0.1578 28.2678,-5.7059 39.0492,-16.6452 10.8864,-10.9916 16.3296,-24.1131 16.3296,-39.3646 0,-15.3041 -5.4432,-28.42562 -16.3296,-39.36462 -10.8865,-10.93901 -24.0081,-16.46109 -39.3648,-16.56626 l -33.4481,-0.003 c -2.84,0 -5.2328,0.97293 -7.1787,2.9188 -1.9985,1.99844 -2.9977,4.3914 -2.9977,7.17877 v 0.15784 85.78377 c 0.016,3.5623 0.2118,15.2701 9.9359,15.3431 10.872,0.3263 10.287,-14.7657 10.338,-21.4324 v -69.67593 h 23.2717 c 9.7294,0.0573 18.0651,3.57811 25.0072,10.57084 6.9421,6.99469 10.4132,15.35669 10.4132,25.08609 0,9.7294 -3.4448,18.0914 -10.3343,25.0861 -6.9421,6.9946 -15.3041,10.5445 -25.0861,10.6497 -8.2922,-0.3541 -16.5333,2.6719 -16.5646,11.2767 1.606,10.5529 9.3192,8.8099 16.959,9.0003 z"
       style="font-size:19.7556px;line-height:1.25;font-family:Königsberg;-inkscape-font-specification:Königsberg;stroke-width:2.16375"
       id="path329-0"
       sodipodi:nodetypes="ccssccsscccccccsccccc" />
    <path
       d="m 1560,1080.0001 c 2.6296,0.9993 5.2065,0.9204 7.7309,-0.2364 2.577,-1.157 4.3651,-3.024 5.3643,-5.601 0.9993,-2.6295 0.9204,-5.2328 -0.2366,-7.8098 l -41.3368,-91.66668 c -1.6303,-3.94431 -4.7069,-5.91651 -9.2298,-5.91651 -4.5228,0 -7.5994,1.9722 -9.2297,5.91651 l -41.3368,91.66668 c -1.157,2.577 -1.2359,5.1803 -0.2367,7.8098 0.9992,2.577 2.761,4.444 5.2854,5.601 2.577,1.1571 5.1803,1.2358 7.8098,0.2364 2.577,-0.9993 4.444,-2.7611 5.601,-5.2854 l 6.1532,-13.5657 28.2988,0.3377 c 7.7834,0.404 12.5576,-4.9107 12.0414,-10.8676 -0.5161,-5.957 -4.6538,-9.7542 -12.142,-9.5855 l -19.0473,-0.1587 16.8029,-37.3136 23.5493,51.903 c 9.6358,22.8353 11.5291,23.5364 14.1587,24.5357 z"
       style="font-size:19.7556px;line-height:1.25;font-family:Königsberg;-inkscape-font-specification:Königsberg;stroke-width:2.16375"
       id="path323-5"
       sodipodi:nodetypes="sccccscccccccczccccs" />
    <path
       sodipodi:nodetypes="cscscscsscccscscsscsscscscc"
       d="m 614,841.73978 h 14.5023 c 2.7873,0 5.1802,-0.99926 7.1787,-2.99771 1.9458,-1.99845 2.9188,-4.39132 2.9188,-7.17869 0,-2.7873 -0.973,-5.18025 -2.9188,-7.1787 -1.9985,-1.94586 -4.3914,-2.9188 -7.1787,-2.9188 h -16.0627 c -0.6027,-0.005 -3.7894,0.19219 -6.4173,2.05733 -2.0235,1.43638 -3.7158,3.86237 -3.6429,7.94808 0.065,3.80586 1.578,6.24068 3.3819,7.77961 2.4427,2.10043 5.2249,2.48888 8.2387,2.48888 z m -15.9481,-49.61985 h 42.9934 c 2.84,0 5.2328,-0.99927 7.1787,-2.99771 1.9984,-1.94587 2.9977,-4.31249 2.9977,-7.09986 0,-2.83996 -0.9993,-5.23283 -2.9977,-7.1787 -1.9459,-1.99845 -4.3387,-2.99771 -7.1787,-2.99771 h -53.091 c -2.84,0 -5.2328,0.99926 -7.1787,2.99771 -1.9984,1.94587 -2.9977,4.33874 -2.9977,7.1787 v 91.58775 c 0,2.83996 0.9993,5.23283 2.9977,7.17878 1.9459,1.99844 4.3387,2.99771 7.1787,2.99771 2.7874,0 5.154,-0.99927 7.0999,-2.99771 1.9984,-1.94595 2.9977,-4.33882 2.9977,-7.17878 v -42.13882 z"
       style="font-size:19.7556px;line-height:1.25;font-family:Königsberg;-inkscape-font-specification:Königsberg;stroke-width:2.16375"
       id="path333-19" />
    <path
       d="m 742.99342,792.11993 q 4.25989,0 7.17869,-2.99771 2.99771,-2.9188 2.99771,-7.09986 0,-4.2599 -2.99771,-7.1787 -2.9188,-2.99771 -7.17869,-2.99771 h -53.09099 q -4.2599,0 -7.1787,2.99771 -2.99771,2.9188 -2.99771,7.1787 v 91.58775 q 0,4.2599 2.99771,7.17878 2.9188,2.99771 7.1787,2.99771 h 53.09099 q 4.25989,0 7.17869,-2.99771 2.99771,-2.91888 2.99771,-7.17878 0,-4.18098 -2.99771,-7.1787 -2.9188,-2.91879 -7.17869,-2.91879 H 700 v -25.79607 h 32.65917 q 4.2599,0 7.1787,-2.99771 2.99771,-2.91879 2.99771,-7.17869 0,-4.18099 -2.99771,-7.09978 -2.9188,-2.99771 -7.1787,-2.99771 H 700 v -25.32273 z"
       style="font-size:19.7556px;line-height:1.25;font-family:Königsberg;-inkscape-font-specification:Königsberg;stroke-width:2.16375"
       id="path331-33" />
    <path
       d="m 818.0509,847.84856 24.0791,31.90467 c 1.7355,2.20887 3.9706,3.52364 6.7054,3.94439 2.7873,0.36801 5.3117,-0.2895 7.5731,-1.97219 2.2089,-1.68295 3.4974,-3.91806 3.8655,-6.70536 0.4212,-2.78737 -0.2364,-5.28549 -1.9722,-7.49428 L 840,843.22858 c 6.6791,-2.89246 12.0697,-7.38903 16.1718,-13.48962 4.1548,-6.25835 6.2321,-13.14787 6.2321,-20.66841 v 0 c 0,-10.20274 -3.6025,-18.93287 -10.8075,-26.19049 -7.2577,-7.31019 -15.9615,-10.99158 -26.1116,-11.04417 h -29.9771 -0.552 l -0.4735,0.0818 -0.552,-0.0818 h -0.4735 c -2.84,0 -5.2328,0.97293 -7.1787,2.9188 -1.9984,1.99845 -2.9977,4.3914 -2.9977,7.17877 v 91.66659 c 0,2.83996 0.9993,5.23283 2.9977,7.17878 1.9459,1.99844 4.3387,2.99771 7.1787,2.99771 2.7874,0 5.154,-0.99927 7.0999,-2.99771 1.9984,-1.94595 2.9977,-4.33882 2.9977,-7.17878 v -23.95921 c -10e-5,-19.17699 -10e-5,-38.35398 -10e-5,-57.53097 h 21.8517 c 4.5755,0.0573 8.5198,1.73741 11.833,5.04875 3.2606,3.3133 4.891,7.28394 4.891,11.91193 0,4.62799 -1.6304,8.59864 -4.891,11.91194 -3.3132,3.3133 -7.2839,4.99616 -11.9119,5.04874 -11.1073,0.55937 -14.8775,10.85845 -7.2761,21.81733 z"
       style="font-size:19.7556px;line-height:1.25;font-family:Königsberg;-inkscape-font-specification:Königsberg;stroke-width:2.16375"
       id="path355-8"
       sodipodi:nodetypes="ccccccccssscccccsssscscsccccsccc" />
    <path
       sodipodi:nodetypes="cccccsscscsccccccccsscsscsccc"
       d="m 949.60442,833.6528 -47.42857,-58.02025 c -1.36735,-1.68294 -3.07663,-2.81363 -5.12766,-3.39214 -2.1037,-0.57818 -4.15473,-0.52584 -6.15318,0.15784 -2.05111,0.73601 -3.68139,1.97211 -4.89099,3.70764 -1.26219,1.73553 -1.89328,3.68139 -1.89328,5.83767 v 91.66659 c 0,2.83996 0.99918,5.23283 2.99771,7.17878 1.94587,1.99844 4.33874,2.99771 7.1787,2.99771 2.78729,0 5.15391,-0.99927 7.09986,-2.99771 1.99845,-1.94595 2.99763,-4.33882 2.99763,-7.17878 v -62.79397 l 30.87556,37.40124 c 4.00785,5.05014 13.40171,4.84471 16.34079,1.15915 2.97735,-4.02356 2.48577,-11.73284 -1.99657,-15.72295 z M 960,880 c 1.25736,1.45715 3.02405,2.81362 5.12766,3.39213 2.05112,0.57819 4.10215,0.52585 6.15318,-0.15783 1.99853,-0.73602 3.62881,-1.9722 4.89099,-3.70764 1.20961,-1.78811 1.81445,-3.76031 1.81445,-5.91659 v -91.66659 c 0,-2.78737 -0.97294,-5.18033 -2.9188,-7.17878 -1.99853,-1.94586 -4.3914,-2.91879 -7.17878,-2.91879 v 8e-5 c -2.78729,0 -5.18024,0.97293 -7.17869,2.9188 -1.99845,1.99844 -2.99771,4.3914 -2.99771,7.17877 v 90.47931 c -0.16929,2.69358 0.68286,5.61458 2.2877,7.57713 z"
       style="font-size:19.7556px;line-height:1.25;font-family:Königsberg;-inkscape-font-specification:Königsberg;stroke-width:2.16375"
       id="path347-6" />
    <path
       sodipodi:nodetypes="ccscscsscscscczcccssssssccc"
       d="m 177.7733,1009.6729 h -35.8242 v -35.4991 c 0,-2.83996 -0.9993,-5.23283 -2.9977,-7.1787 -1.946,-1.99845 -4.3126,-2.99771 -7.0999,-2.99771 -2.84,0 -5.2328,0.99926 -7.1787,2.99771 -1.9984,1.94587 -2.9977,4.33874 -2.9977,7.1787 v 91.5878 c 0,2.8399 0.9993,5.2328 2.9977,7.1787 1.9459,1.9985 4.3387,2.9977 7.1787,2.9977 2.7873,0 5.1539,-0.9992 7.0999,-2.9977 1.9984,-1.9459 2.9977,-4.3388 2.9977,-7.1787 v -35.8147 h 36.5237 c 0.1325,0.4645 9.6458,-0.9437 9.6623,-9.9038 0.016,-8.9601 -9.5376,-11.1944 -10.3618,-10.3702 z m 17.5034,56.0887 c 0,2.8399 0.9992,5.2328 2.9977,7.1787 1.9984,1.9985 4.3913,2.9977 7.1787,2.9977 2.7873,0 5.1802,-0.9992 7.1787,-2.9977 1.9458,-1.9459 2.9188,-4.3388 2.9188,-7.1787 v -91.5878 c 0,-2.83996 -0.973,-5.23283 -2.9188,-7.1787 -1.9985,-1.99845 -4.3914,-2.99771 -7.1787,-2.99771 -2.7874,0 -5.1803,0.99926 -7.1787,2.99771 -1.9985,1.94587 -2.9977,4.33874 -2.9977,7.1787 z"
       style="font-size:19.7556px;line-height:1.25;font-family:Königsberg;-inkscape-font-specification:Königsberg;stroke-width:2.16375"
       id="path337-31" />
    <path
       d="m 325.61087,1075.2355 c 2.62956,0.9992 5.20654,0.9204 7.73092,-0.2364 2.57697,-1.157 4.36507,-3.024 5.36431,-5.601 0.99924,-2.6295 0.92034,-5.2328 -0.23667,-7.8098 l -41.33677,-91.66664 c -1.63033,-3.94431 -4.70692,-5.91651 -9.22978,-5.91651 -4.52284,0 -7.59943,1.9722 -9.22976,5.91651 l -41.33678,91.66664 c -1.15701,2.577 -1.23589,5.1803 -0.23667,7.8098 0.99924,2.577 2.76105,4.444 5.28543,5.601 2.57698,1.157 5.18024,1.2358 7.80981,0.2364 2.57697,-0.9993 4.44397,-2.7611 5.60098,-5.2854 l 6.15321,-13.5657 28.29878,0.3377 c 7.78335,0.404 12.55756,-4.9107 12.04143,-10.8676 -0.51612,-5.957 -4.65385,-9.7542 -12.14208,-9.5855 l -19.04724,-0.1587 16.80292,-37.31357 23.54926,51.90297 c 9.63584,22.8353 11.52913,23.5364 14.1587,24.5357 z"
       style="font-size:19.7556px;line-height:1.25;font-family:Königsberg;-inkscape-font-specification:Königsberg;stroke-width:2.16375"
       id="path323-7"
       sodipodi:nodetypes="sccccscccccccczccccs" />
    <path
       d="m 400,1040 24.0791,31.9047 c 1.7355,2.2088 3.9706,3.5236 6.7054,3.9443 2.7873,0.3681 5.3117,-0.2895 7.5731,-1.9721 2.2089,-1.683 3.4974,-3.9181 3.8655,-6.7054 0.4212,-2.7874 -0.2364,-5.2855 -1.9722,-7.4943 L 421.9491,1035.38 c 6.6791,-2.8924 12.0697,-7.389 16.1718,-13.4896 4.1548,-6.2583 6.2321,-13.1479 6.2321,-20.6684 v 0 c 0,-10.20275 -3.6025,-18.93288 -10.8075,-26.1905 -7.2577,-7.31019 -15.9615,-10.99158 -26.1116,-11.04417 h -29.9771 -0.552 l -0.4735,0.0818 -0.552,-0.0818 h -0.4735 c -2.84,0 -5.2328,0.97293 -7.1787,2.9188 -1.9984,1.99845 -2.9977,4.3914 -2.9977,7.17877 v 91.6666 c 0,2.84 0.9993,5.2328 2.9977,7.1788 1.9459,1.9984 4.3387,2.9977 7.1787,2.9977 2.7874,0 5.154,-0.9993 7.0999,-2.9977 1.9984,-1.946 2.9977,-4.3389 2.9977,-7.1788 v -23.9592 c -10e-5,-19.177 -10e-5,-38.354 -10e-5,-57.53099 h 21.8517 c 4.5755,0.0573 8.5198,1.73741 11.833,5.04875 3.2606,3.3133 4.891,7.28394 4.891,11.91194 0,4.628 -1.6304,8.5986 -4.891,11.9119 -3.3132,3.3133 -7.2839,4.9962 -11.9119,5.0488 C 396.1688,1018.742 392.3986,1029.0411 400,1040 Z"
       style="font-size:19.7556px;line-height:1.25;font-family:Königsberg;-inkscape-font-specification:Königsberg;stroke-width:2.16375"
       id="path355-2"
       sodipodi:nodetypes="ccccccccssscccccsssscscsccccsccc" />
    <path
       d="m 487.9491,1055.664 v -81.49021 q 0,-4.2599 -2.99771,-7.1787 -2.91882,-2.99771 -7.09982,-2.99771 -4.2599,0 -7.17872,2.99771 -2.9977,2.9188 -2.9977,7.1787 v 91.58781 q 0,4.2599 2.9977,7.1787 2.91882,2.9978 7.17872,2.9978 h 46.38553 q 4.18101,0 7.17871,-2.9978 2.91882,-2.9188 2.91882,-7.1787 0,-4.181 -2.91882,-7.1788 -2.9977,-2.9188 -7.17871,-2.9188 z"
       style="font-size:19.7556px;line-height:1.25;font-family:Königsberg;-inkscape-font-specification:Königsberg;stroke-width:2.16375"
       id="path343-2" />
    <path
       d="m 620.94252,984.27136 q 4.25989,0 7.17869,-2.99771 2.99771,-2.9188 2.99771,-7.09986 0,-4.2599 -2.99771,-7.1787 -2.9188,-2.99771 -7.17869,-2.99771 h -53.09099 q -4.2599,0 -7.1787,2.99771 -2.99771,2.9188 -2.99771,7.1787 v 91.58781 q 0,4.2599 2.99771,7.1787 2.9188,2.9978 7.1787,2.9978 h 53.09099 q 4.25989,0 7.17869,-2.9978 2.99771,-2.9188 2.99771,-7.1787 0,-4.181 -2.99771,-7.1788 -2.9188,-2.9188 -7.17869,-2.9188 H 577.9491 v -25.796 h 32.65917 q 4.2599,0 7.1787,-2.9977 2.99771,-2.9188 2.99771,-7.1787 0,-4.181 -2.99771,-7.0998 -2.9188,-2.9977 -7.1787,-2.9977 H 577.9491 v -25.32273 z"
       style="font-size:19.7556px;line-height:1.25;font-family:Königsberg;-inkscape-font-specification:Königsberg;stroke-width:2.16375"
       id="path331-4" />
    <path
       d="m 685.2088,1009.0958 -25.20439,-40.34137 c -1.4726,-2.36662 -3.57622,-3.86548 -6.31101,-4.49657 -2.73471,-0.63134 -5.28542,-0.21018 -7.65204,1.26218 -2.36662,1.52511 -3.86547,3.65506 -4.49657,6.38985 -0.63133,2.68213 -0.21017,5.23283 1.26219,7.65204 l 34.86812,55.85197 v 30.3715 c 0,2.8399 0.99918,5.2328 2.99763,7.1787 1.99853,1.9985 4.39137,2.9977 7.17877,2.9977 2.7873,0 5.1803,-0.9992 7.1787,-2.9977 1.9459,-1.9459 2.9189,-4.3388 2.9189,-7.1787 v -27.9655 c 0,0 0.7499,-5.3258 -1.3781,-10.1154 -2.1281,-4.7895 -11.3622,-18.6087 -11.3622,-18.6087 z m 27.306,3.8009 20.3812,-33.33502 c 1.4726,-2.4192 1.8932,-4.96991 1.2621,-7.65203 -0.6313,-2.73479 -2.1299,-4.86474 -4.4965,-6.38985 -2.3666,-1.47261 -4.9173,-1.89328 -7.6521,-1.26219 -2.7347,0.63134 -4.8383,2.12995 -6.3109,4.49657 l -20.9273,33.83562 c -2.094,3.6126 -3.0624,9.7242 1.8392,14.2643 2.5294,2.3427 6.2746,2.8288 9.5586,1.7315 3.1865,-1.4063 4.684,-2.971 6.3457,-5.6889 z"
       style="font-size:19.7556px;line-height:1.25;font-family:Königsberg;-inkscape-font-specification:Königsberg;stroke-width:2.16375"
       id="path369-9"
       sodipodi:nodetypes="ccsccccscssscscccccsccscc" />
    <path
       d="m 59.726,878.1147 c 15.25148,-0.1578 28.26785,-5.7059 39.04918,-16.6452 10.88642,-10.9916 16.32959,-24.1131 16.32959,-39.3646 0,-15.304 -5.44317,-28.4256 -16.32959,-39.3646 -10.8865,-10.939 -24.00812,-16.4611 -39.36477,-16.5663 h -33.4481 c -2.83996,0 -5.23283,0.9729 -7.1787,2.9187 -1.99853,1.9985 -2.99771,4.3914 -2.99771,7.1788 v 0.1579 85.7837 c 0.0164,3.5623 0.21181,15.2701 9.93589,15.3431 10.87203,0.3263 10.28706,-14.7657 10.33801,-21.4324 v -69.6759 h 23.27169 c 9.7294,0.057 18.06512,3.5781 25.00722,10.5708 6.94211,6.9947 10.41316,15.3567 10.41316,25.0861 0,9.7294 -3.4448,18.0914 -10.33424,25.0861 -6.94211,6.9946 -15.30415,10.5445 -25.08614,10.6497 -8.2922,-0.3541 -16.5333,2.6719 -16.56462,11.2767 1.60599,10.5529 9.31919,8.8099 16.95904,9.0003 z"
       style="font-size:19.7556px;line-height:1.25;font-family:Königsberg;-inkscape-font-specification:Königsberg;stroke-width:2.16375"
       id="path329-6"
       sodipodi:nodetypes="ccssccsscccccccsccccc" />
    <path
       d="m 219.726,877.4155 c 2.62956,0.9993 5.20654,0.9204 7.73092,-0.2363 2.57697,-1.1571 4.36507,-3.0241 5.36431,-5.601 0.99924,-2.6296 0.92034,-5.2329 -0.23667,-7.8098 l -41.33677,-91.6667 c -1.63033,-3.9443 -4.70692,-5.9165 -9.22978,-5.9165 -4.52284,0 -7.59943,1.9722 -9.22976,5.9165 l -41.33678,91.6667 c -1.15701,2.5769 -1.23589,5.1802 -0.23667,7.8098 0.99924,2.5769 2.76105,4.4439 5.28543,5.601 2.57698,1.157 5.18024,1.2357 7.80981,0.2363 2.57697,-0.9993 4.44397,-2.761 5.60098,-5.2854 l 6.15321,-13.5657 28.29878,0.3378 c 7.78335,0.4039 12.55756,-4.9107 12.04143,-10.8677 -0.51612,-5.9569 -4.65385,-9.7541 -12.14208,-9.5855 l -19.04724,-0.1587 16.80292,-37.3135 23.54926,51.9029 c 9.63584,22.8354 11.52913,23.5365 14.1587,24.5357 z"
       style="font-size:19.7556px;line-height:1.25;font-family:Königsberg;-inkscape-font-specification:Königsberg;stroke-width:2.16375"
       id="path323-2"
       sodipodi:nodetypes="sccccscccccccczccccs" />
    <path
       id="path337-3-2"
       style="font-size:19.7556px;line-height:1.25;font-family:Königsberg;-inkscape-font-specification:Königsberg;stroke-width:2.16375"
       d="m 251.726,867.9416 c 0,2.84 0.9993,5.2328 2.9977,7.1788 1.9985,1.9984 4.3913,2.9977 7.1787,2.9977 2.7873,0 5.1803,-0.9993 7.1787,-2.9977 1.9459,-1.946 2.9188,-4.3388 2.9188,-7.1788 v -91.5878 c 0,-2.8399 -0.9729,-5.2328 -2.9188,-7.1786 -1.9984,-1.9985 -4.3914,-2.9978 -7.1787,-2.9978 -2.7874,0 -5.1802,0.9993 -7.1787,2.9978 -1.9984,1.9458 -2.9977,4.3387 -2.9977,7.1786 z"
       sodipodi:nodetypes="ccssssssccc" />
    <path
       d="m 339.7289,836.0627 c 1.5252,0.9993 2.6296,2.1825 3.3133,3.55 0.9466,1.8407 1.3148,4.2861 1.1044,7.3364 -0.2625,3.9443 -2.0509,7.0472 -5.3643,9.3087 -3.3133,2.314 -7.468,3.2869 -12.4641,2.9188 -4.7333,-0.3156 -8.5462,-1.946 -11.4387,-4.891 -1.9459,-1.9984 -4.3387,-2.9977 -7.1787,-2.9977 -2.7873,0 -5.1802,0.973 -7.1787,2.9188 -1.9459,1.9985 -2.9451,4.3914 -2.9977,7.1787 0,2.7874 0.9993,5.1803 2.9977,7.1787 6.4687,6.5214 14.5941,10.1238 24.3761,10.8076 10.5709,0.7892 19.6166,-1.7881 27.1371,-7.7309 7.5731,-5.9429 11.7015,-13.7001 12.3852,-23.2718 0.8941,-12.9374 -3.6288,-22.6931 -13.5685,-29.267 v 0 c -2.3429,-1.5553 -3.0597,-1.9862 -5.631,-3.0329 -0.516,-0.2045 -8.6562,-3.0105 -12.2485,6.4901 -2.2073,7.1199 1.7906,10.5042 6.7535,13.5035 z m -22.0884,-28.6359 c -2.9976,-2.7348 -4.3387,-6.0743 -4.0232,-10.0186 0.2625,-3.9443 2.0509,-7.0735 5.3643,-9.3876 3.3133,-2.2614 7.468,-3.208 12.4642,-2.8399 4.1547,0.2626 8.0465,2.1035 11.6753,5.5221 2.051,1.8933 4.4965,2.7873 7.3364,2.6822 2.7873,-0.057 5.1277,-1.1064 7.021,-3.1555 1.9459,-2.0511 2.8662,-4.4703 2.761,-7.2576 -0.1055,-2.84 -1.1833,-5.2066 -3.2344,-7.0999 -3.2606,-3.0503 -6.4687,-5.3906 -9.6242,-7.0209 -4.3125,-2.2614 -9.1508,-3.5762 -14.5151,-3.9443 -10.5709,-0.7361 -19.6167,1.8669 -27.1372,7.8098 -7.5731,5.8902 -11.7015,13.6474 -12.3852,23.2716 -0.6837,9.5716 2.2877,17.8285 8.9142,24.7705 3.625,3.7976 7.848,6.6666 12.6691,8.6072 11.616,3.1877 18.5422,-10.8867 9.5014,-17.6777 -2.2052,-1.6263 -4.6819,-2.4469 -6.7876,-4.2614 z"
       style="font-size:19.7556px;line-height:1.25;font-family:Königsberg;-inkscape-font-specification:Königsberg;stroke-width:2.16375"
       id="path357-4"
       sodipodi:nodetypes="ccccccsccccccccccccccccccccccccsccc" />
    <path
       d="m 1001.0397,390.51021 -25.20439,-40.34138 c -1.4726,-2.36662 -3.57622,-3.86548 -6.31101,-4.49657 -2.73471,-0.63134 -5.28542,-0.21018 -7.65204,1.26218 -2.36662,1.52511 -3.86547,3.65506 -4.49657,6.38985 -0.63133,2.68213 -0.21017,5.23283 1.26219,7.65204 l 34.86812,55.85195 v 30.37147 c 0,2.83996 0.99918,5.23283 2.99763,7.17877 1.99853,1.99845 4.39137,2.99772 7.17877,2.99772 2.7873,0 5.1803,-0.99927 7.1787,-2.99772 1.9459,-1.94594 2.9189,-4.33881 2.9189,-7.17877 v -27.96544 c 0,0 0.7499,-5.32581 -1.3781,-10.1154 -2.1281,-4.7895 -11.3622,-18.6087 -11.3622,-18.6087 z m 27.306,3.80087 20.3812,-33.335 c 1.4726,-2.4192 1.8932,-4.96991 1.2621,-7.65203 -0.6313,-2.73479 -2.1299,-4.86474 -4.4965,-6.38985 -2.3666,-1.47261 -4.9173,-1.89328 -7.6521,-1.26219 -2.7347,0.63134 -4.8383,2.12995 -6.3109,4.49657 l -20.9273,33.83566 c -2.094,3.61261 -3.0624,9.72416 1.8392,14.26424 2.5294,2.34274 6.2746,2.82884 9.5586,1.73152 3.1865,-1.40628 4.684,-2.97097 6.3457,-5.68892 z"
       style="font-size:19.7556px;line-height:1.25;font-family:Königsberg;-inkscape-font-specification:Königsberg;stroke-width:2.16375"
       id="path369-8"
       sodipodi:nodetypes="ccsccccscssscscccccsccscc" />
    <path
       d="m 427.2597,811.2759 -25.2044,-40.3414 c -1.4726,-2.3666 -3.5762,-3.8654 -6.311,-4.4965 -2.7347,-0.6314 -5.2854,-0.2102 -7.652,1.2622 -2.3667,1.5251 -3.8655,3.655 -4.4966,6.3898 -0.6313,2.6821 -0.2102,5.2328 1.2622,7.6521 l 34.8681,55.8519 v 30.3715 c 0,2.8399 0.9992,5.2328 2.9976,7.1787 1.9986,1.9985 4.3914,2.9978 7.1788,2.9978 2.7873,0 5.1803,-0.9993 7.1787,-2.9978 C 439.027,873.1983 440,870.8054 440,867.9655 V 840 c 0,0 0.7499,-5.3258 -1.3781,-10.1154 -2.1281,-4.7895 -11.3622,-18.6087 -11.3622,-18.6087 z m 27.306,3.8009 20.3812,-33.335 c 1.4726,-2.4192 1.8932,-4.9699 1.2621,-7.652 -0.6313,-2.7348 -2.1299,-4.8648 -4.4965,-6.3899 -2.3666,-1.4726 -4.9173,-1.8933 -7.6521,-1.2622 -2.7347,0.6314 -4.8383,2.13 -6.3109,4.4966 L 436.8222,804.77 c -2.094,3.6126 -3.0624,9.7241 1.8392,14.2642 2.5294,2.3427 6.2746,2.8288 9.5586,1.7315 3.1865,-1.4063 4.684,-2.9709 6.3457,-5.6889 z"
       style="font-size:19.7556px;line-height:1.25;font-family:Königsberg;-inkscape-font-specification:Königsberg;stroke-width:2.16375"
       id="path369-1"
       sodipodi:nodetypes="ccsccccscssscscccccsccscc" />
  </g>
</svg>
