<?xml version="1.0" encoding="UTF-8" standalone="no"?>
<svg
   xmlns:dc="http://purl.org/dc/elements/1.1/"
   xmlns:cc="http://creativecommons.org/ns#"
   xmlns:rdf="http://www.w3.org/1999/02/22-rdf-syntax-ns#"
   xmlns:svg="http://www.w3.org/2000/svg"
   xmlns="http://www.w3.org/2000/svg"
   xmlns:sodipodi="http://sodipodi.sourceforge.net/DTD/sodipodi-0.dtd"
   xmlns:inkscape="http://www.inkscape.org/namespaces/inkscape"
   inkscape:export-ydpi="96"
   inkscape:export-xdpi="96"
   inkscape:export-filename="C:\Users\yarov\Documents\newone\img\done\vtc\arialfont.png"
   sodipodi:docname="myfonts.svg"
   inkscape:version="1.0 (4035a4fb49, 2020-05-01)"
   width="1980px"
   height="1120px"
   viewBox="0 0 1980 1120"
   version="1.1"
   id="SVGRoot">
  <defs
     id="defs512">
    <inkscape:path-effect
       lpeversion="1"
       is_visible="true"
       id="path-effect1007"
       effect="spiro" />
  </defs>
  <sodipodi:namedview
     showguides="false"
     inkscape:window-maximized="1"
     inkscape:window-y="-8"
     inkscape:window-x="-8"
     inkscape:window-height="1017"
     inkscape:window-width="1920"
     showgrid="true"
     inkscape:document-rotation="0"
     inkscape:current-layer="layer1"
     inkscape:document-units="px"
     inkscape:cy="685.8833"
     inkscape:cx="704.29964"
     inkscape:zoom="0.37"
     inkscape:pageshadow="2"
     inkscape:pageopacity="0.0"
     borderopacity="1.0"
     bordercolor="#666666"
     pagecolor="#ffffff"
     id="base">
    <inkscape:grid
       id="grid868"
       type="xygrid" />
  </sodipodi:namedview>
  <metadata
     id="metadata515">
    <rdf:RDF>
      <cc:Work
         rdf:about="">
        <dc:format>image/svg+xml</dc:format>
        <dc:type
           rdf:resource="http://purl.org/dc/dcmitype/StillImage" />
        <dc:title />
      </cc:Work>
    </rdf:RDF>
  </metadata>
  <g
     id="layer1"
     inkscape:groupmode="layer"
     inkscape:label="Слой 1">
    <g
       id="g123"
       inkscape:export-xdpi="96"
       inkscape:export-ydpi="96">
      <g
         style="font-size:80.6695px;line-height:1.25;font-family:Arial;-inkscape-font-specification:Arial;letter-spacing:-8.30826px;stroke-width:1.0804"
         id="text368"
         aria-label="A B C D E F G H I J 
K L M N O P Q R S T 
U V W X Y Z
1 2 3 4 5 6 7 8 9 0">
        <path
           id="path70"
           style="stroke-width:1.0804"
           d="m 1132.4629,340.18405 22.1762,-57.74487 h 8.2324 l 23.6337,57.74487 h -8.7051 l -6.7356,-17.48889 h -24.1457 l -6.3417,17.48889 z m 16.6617,-23.71242 h 19.5765 l -6.0265,-15.9921 q -2.7573,-7.28704 -4.0965,-11.97438 -1.1029,5.55391 -3.1118,11.02904 z" />
        <path
           id="path72"
           style="stroke-width:1.0804"
           d="m 1193.7192,340.18405 v -57.74487 h 21.6642 q 6.6174,0 10.5957,1.77253 4.0178,1.73313 6.263,5.39634 2.2845,3.62383 2.2845,7.60216 0,3.7026 -2.0088,6.97192 -2.0089,3.26933 -6.066,5.27819 5.2388,1.53618 8.0355,5.23879 2.836,3.7026 2.836,8.74444 0,4.05711 -1.7331,7.56277 -1.6938,3.46627 -4.2147,5.35696 -2.5209,1.89069 -6.3417,2.87543 -3.7814,0.94534 -9.2959,0.94534 z m 7.6416,-33.48099 h 12.4864 q 5.0812,0 7.2871,-0.66962 2.9148,-0.86657 4.3722,-2.87543 1.4968,-2.00886 1.4968,-5.04184 0,-2.87543 -1.3787,-5.04185 -1.3786,-2.2058 -3.9389,-2.99359 -2.5603,-0.82718 -8.7838,-0.82718 h -11.5411 z m 0,26.66662 h 14.3771 q 3.7026,0 5.1994,-0.27572 2.6391,-0.47267 4.4116,-1.57558 1.7725,-1.1029 2.9148,-3.19054 1.1423,-2.12703 1.1423,-4.88429 0,-3.22993 -1.6543,-5.59329 -1.6544,-2.40276 -4.6086,-3.3481 -2.9148,-0.98474 -8.4293,-0.98474 h -13.353 z" />
        <path
           id="path74"
           style="stroke-width:1.0804"
           d="m 1294.877,319.9379 7.6416,1.93008 q -2.4028,9.41407 -8.6657,14.37713 -6.2235,4.92368 -15.2437,4.92368 -9.3353,0 -15.2043,-3.78139 -5.8296,-3.82077 -8.902,-11.02903 -3.033,-7.20826 -3.033,-15.48004 0,-9.02017 3.4269,-15.71637 3.4662,-6.73559 9.8079,-10.20185 6.3811,-3.50566 14.0227,-3.50566 8.6656,0 14.574,4.41161 5.9085,4.41161 8.2324,12.40766 l -7.5233,1.77253 q -2.0089,-6.30231 -5.8297,-9.17773 -3.8207,-2.87543 -9.611,-2.87543 -6.6568,0 -11.1472,3.19054 -4.451,3.19054 -6.2629,8.58689 -1.8119,5.35696 -1.8119,11.06842 0,7.36582 2.127,12.88034 2.1664,5.47513 6.6962,8.193 4.5298,2.71787 9.808,2.71787 6.4204,0 10.8714,-3.70261 4.451,-3.7026 6.0266,-10.98964 z" />
        <path
           id="path76"
           style="stroke-width:1.0804"
           d="m 1317.7287,340.18405 v -57.74487 h 19.8916 q 6.7356,0 10.2807,0.82718 4.963,1.14229 8.4687,4.13589 4.5692,3.86016 6.8144,9.88674 2.2846,5.98719 2.2846,13.70751 0,6.57803 -1.5362,11.65927 -1.5362,5.08123 -3.939,8.42933 -2.4027,3.30871 -5.2781,5.23879 -2.8361,1.89069 -6.8932,2.87543 -4.0177,0.98473 -9.2565,0.98473 z m 7.6415,-6.81437 h 12.3289 q 5.7115,0 8.9414,-1.06351 3.2693,-1.06351 5.1994,-2.99359 2.7179,-2.71787 4.2147,-7.28704 1.5362,-4.60856 1.5362,-11.14721 0,-9.05956 -2.9936,-13.90446 -2.9542,-4.88428 -7.2083,-6.53864 -3.0724,-1.18168 -9.8867,-1.18168 h -12.132 z" />
        <path
           id="path78"
           style="stroke-width:1.0804"
           d="m 1381.9392,340.18405 v -57.74487 h 41.7528 v 6.81437 h -34.1112 v 17.68584 h 31.9448 v 6.77498 h -31.9448 v 19.65531 h 35.4504 v 6.81437 z" />
        <path
           id="path80"
           style="stroke-width:1.0804"
           d="m 1441.8169,340.18405 v -57.74487 h 38.9562 v 6.81437 h -31.3146 v 17.88279 h 27.0999 v 6.81437 h -27.0999 v 26.23334 z" />
        <path
           id="path82"
           style="stroke-width:1.0804"
           d="m 1523.5164,317.53514 v -6.77497 l 24.4608,-0.0394 v 21.42783 q -5.6327,4.4904 -11.6199,6.77498 -5.9872,2.2452 -12.2895,2.2452 -8.5081,0 -15.48,-3.62383 -6.9325,-3.66321 -10.4776,-10.55636 -3.545,-6.89315 -3.545,-15.40126 0,-8.42933 3.5056,-15.71637 3.5451,-7.32643 10.1625,-10.87148 6.6174,-3.54504 15.2437,-3.54504 6.2629,0 11.3048,2.04825 5.0812,2.00886 7.9566,5.63268 2.8754,3.62383 4.3722,9.45346 l -6.8931,1.89069 q -1.2999,-4.41161 -3.2299,-6.93253 -1.9301,-2.52093 -5.5146,-4.01772 -3.5844,-1.53619 -7.9566,-1.53619 -5.2388,0 -9.0596,1.61496 -3.8207,1.57558 -6.1841,4.17528 -2.324,2.5997 -3.6238,5.71147 -2.2058,5.35695 -2.2058,11.61987 0,7.72032 2.639,12.91973 2.6785,5.1994 7.7598,7.72032 5.0812,2.52092 10.7927,2.52092 4.963,0 9.6897,-1.89069 4.7268,-1.93008 7.1689,-4.0965 v -10.75331 z" />
        <path
           id="path84"
           style="stroke-width:1.0804"
           d="m 1565.1962,340.18405 v -57.74487 h 7.6415 v 23.71243 h 30.0148 v -23.71243 h 7.6415 v 57.74487 h -7.6415 v -27.21808 h -30.0148 v 27.21808 z" />
        <path
           id="path86"
           style="stroke-width:1.0804"
           d="m 1630.3127,340.18405 v -57.74487 h 7.6415 v 57.74487 z" />
        <path
           id="path88"
           style="stroke-width:1.0804"
           d="m 1653.2431,323.79806 6.8931,-0.94535 q 0.2758,6.61742 2.4816,9.05957 2.2058,2.44214 6.1053,2.44214 2.8755,0 4.9631,-1.29985 2.0876,-1.33924 2.8754,-3.58444 0.7878,-2.28458 0.7878,-7.24765 v -39.7833 h 7.6416 v 39.35002 q 0,7.24765 -1.7726,11.22598 -1.7331,3.97833 -5.5539,6.06597 -3.7813,2.08764 -8.902,2.08764 -7.6021,0 -11.6592,-4.37223 -4.0178,-4.37222 -3.8602,-12.9985 z" />
        <path
           id="path90"
           style="stroke-width:1.0804"
           d="m 1138.4895,441.02093 v -57.74487 h 7.6415 v 28.6361 l 28.6755,-28.6361 h 10.3594 l -24.2245,23.39731 25.288,34.34756 h -10.0837 l -20.5612,-29.22694 -9.4535,9.21712 v 20.00982 z" />
        <path
           id="path92"
           style="stroke-width:1.0804"
           d="m 1198.1308,441.02093 v -57.74487 h 7.6416 v 50.9305 h 28.4391 v 6.81437 z" />
        <path
           id="path94"
           style="stroke-width:1.0804"
           d="m 1245.8766,441.02093 v -57.74487 h 11.5017 l 13.6681,40.8862 q 1.8907,5.71147 2.7573,8.5475 0.9847,-3.15115 3.0724,-9.25651 l 13.8257,-40.17719 h 10.2806 v 57.74487 h -7.3658 v -48.3308 l -16.7799,48.3308 h -6.8932 l -16.7011,-49.15798 v 49.15798 z" />
        <path
           id="path96"
           style="stroke-width:1.0804"
           d="m 1319.0679,441.02093 v -57.74487 h 7.8385 l 30.3299,45.33721 v -45.33721 h 7.3264 v 57.74487 h -7.8385 l -30.3298,-45.3766 v 45.3766 z" />
        <path
           id="path98"
           style="stroke-width:1.0804"
           d="m 1380.8757,412.89689 q 0,-14.37713 7.7203,-22.49135 7.7204,-8.1536 19.9311,-8.1536 7.996,0 14.4165,3.82077 6.4205,3.82077 9.7686,10.67453 3.3875,6.81436 3.3875,15.48003 0,8.78384 -3.5451,15.71638 -3.545,6.93253 -10.0443,10.51697 -6.4992,3.54504 -14.0226,3.54504 -8.1536,0 -14.5741,-3.93894 -6.4205,-3.93894 -9.7292,-10.7533 -3.3087,-6.81437 -3.3087,-14.41653 z m 7.8779,0.11817 q 0,10.43819 5.5933,16.46477 5.6327,5.98719 14.1014,5.98719 8.6263,0 14.1802,-6.06597 5.5933,-6.06596 5.5933,-17.21317 0,-7.0507 -2.4028,-12.28949 -2.3633,-5.27818 -6.9719,-8.15361 -4.5692,-2.91481 -10.2806,-2.91481 -8.1142,0 -13.9833,5.59329 -5.8296,5.55391 -5.8296,18.5918 z" />
        <path
           id="path100"
           style="stroke-width:1.0804"
           d="m 1451.6643,441.02093 v -57.74487 h 21.7823 q 5.7509,0 8.7839,0.55145 4.254,0.70901 7.1295,2.71787 2.8754,1.96947 4.6085,5.55391 1.7725,3.58443 1.7725,7.87788 0,7.36582 -4.6873,12.48644 -4.6873,5.08123 -16.9374,5.08123 h -14.8105 v 23.47609 z m 7.6415,-30.29045 h 14.9286 q 7.4052,0 10.517,-2.75726 3.1118,-2.75726 3.1118,-7.75971 0,-3.62383 -1.8513,-6.18414 -1.812,-2.5997 -4.8056,-3.42688 -1.93,-0.51206 -7.1294,-0.51206 h -14.7711 z" />
        <path
           id="path102"
           style="stroke-width:1.0804"
           d="m 1553.6493,434.83679 q 5.3175,3.66322 9.8079,5.35696 l -2.2452,5.31757 q -6.2235,-2.24519 -12.4076,-7.09009 -6.4205,3.58443 -14.1802,3.58443 -7.8385,0 -14.2196,-3.78138 -6.3811,-3.78138 -9.8473,-10.63514 -3.4269,-6.85375 -3.4269,-15.44064 0,-8.54751 3.4663,-15.55882 3.4662,-7.01131 9.8473,-10.67453 6.4205,-3.66321 14.3378,-3.66321 7.996,0 14.4165,3.82077 6.4204,3.78138 9.7685,10.63514 3.3875,6.81437 3.3875,15.40126 0,7.12948 -2.1664,12.84094 -2.1664,5.67208 -6.5386,9.88674 z m -16.8193,-9.76857 q 6.6174,1.8513 10.9109,5.51452 6.7356,-6.14475 6.7356,-18.47363 0,-7.01132 -2.4028,-12.25011 -2.3634,-5.23879 -6.9719,-8.11422 -4.5692,-2.91481 -10.2807,-2.91481 -8.5475,0 -14.1801,5.86902 -5.6327,5.82963 -5.6327,17.44951 0,11.26537 5.5539,17.29194 5.5933,6.02658 14.2589,6.02658 4.0965,0 7.7204,-1.53618 -3.5845,-2.32398 -7.5628,-3.30871 z" />
        <path
           id="path104"
           style="stroke-width:1.0804"
           d="m 1578.4704,441.02093 v -57.74487 h 25.6031 q 7.7203,0 11.738,1.57558 4.0178,1.53618 6.4205,5.47512 2.4028,3.93895 2.4028,8.70506 0,6.14475 -3.9784,10.35942 -3.9783,4.21466 -12.2895,5.35696 3.033,1.4574 4.6086,2.87542 3.3481,3.07238 6.3417,7.68094 l 10.0443,15.71637 h -9.611 l -7.6416,-12.01377 q -3.3481,-5.1994 -5.5145,-7.95666 -2.1664,-2.75726 -3.8995,-3.86016 -1.6938,-1.1029 -3.4663,-1.53619 -1.2998,-0.27572 -4.2541,-0.27572 h -8.8626 v 25.6425 z m 7.6415,-32.25992 h 16.4254 q 5.2388,0 8.193,-1.06352 2.9542,-1.1029 4.4904,-3.46627 1.5362,-2.40275 1.5362,-5.1994 0,-4.09649 -2.9936,-6.73559 -2.9542,-2.63909 -9.3747,-2.63909 h -18.2767 z" />
        <path
           id="path106"
           style="stroke-width:1.0804"
           d="m 1639.8055,422.46852 7.2083,-0.63023 q 0.5121,4.33283 2.3634,7.12948 1.8906,2.75726 5.8296,4.49039 3.9389,1.69375 8.8626,1.69375 4.3722,0 7.7203,-1.29985 3.3481,-1.29985 4.9631,-3.54505 1.6543,-2.28458 1.6543,-4.96306 0,-2.71787 -1.5755,-4.72673 -1.5756,-2.04825 -5.1994,-3.42688 -2.324,-0.90596 -10.2807,-2.79665 -7.9566,-1.93008 -11.1472,-3.62382 -4.1359,-2.16642 -6.1841,-5.35696 -2.0089,-3.22993 -2.0089,-7.20826 0,-4.37223 2.4816,-8.15361 2.4815,-3.82077 7.2476,-5.79024 4.7661,-1.96947 10.5958,-1.96947 6.4204,0 11.3047,2.08763 4.9237,2.04825 7.5628,6.06597 2.6391,4.01772 2.836,9.09896 l -7.3264,0.55145 q -0.5908,-5.47513 -4.0177,-8.27178 -3.3875,-2.79665 -10.0443,-2.79665 -6.9326,0 -10.1231,2.56032 -3.1511,2.52092 -3.1511,6.10535 0,3.11177 2.2451,5.12063 2.2059,2.00886 11.5018,4.13588 9.3352,2.08764 12.8015,3.66322 5.0419,2.32397 7.4446,5.90841 2.4028,3.54505 2.4028,8.193 0,4.60856 -2.6391,8.70505 -2.6391,4.05711 -7.6022,6.3417 -4.9237,2.24519 -11.1078,2.24519 -7.8385,0 -13.1561,-2.28458 -5.2781,-2.28459 -8.3111,-6.85376 -2.9936,-4.60856 -3.1512,-10.3988 z" />
        <path
           id="path108"
           style="stroke-width:1.0804"
           d="m 1715.3208,441.02093 v -50.9305 h -19.0251 v -6.81437 h 45.7705 v 6.81437 h -19.1039 v 50.9305 z" />
        <path
           id="path110"
           style="stroke-width:1.0804"
           d="m 1176.6972,484.11294 h 7.6415 v 33.36283 q 0,8.70505 -1.9694,13.82568 -1.9695,5.12062 -7.1295,8.35055 -5.1206,3.19054 -13.4712,3.19054 -8.1142,0 -13.2742,-2.79665 -5.16,-2.79664 -7.3658,-8.07482 -2.2059,-5.31757 -2.2059,-14.4953 v -33.36283 h 7.6416 v 33.32344 q 0,7.52337 1.3786,11.10781 1.418,3.54504 4.8055,5.47513 3.4269,1.93008 8.3506,1.93008 8.4293,0 12.0138,-3.82078 3.5844,-3.82077 3.5844,-14.69224 z" />
        <path
           id="path112"
           style="stroke-width:1.0804"
           d="m 1219.3617,541.85781 -22.3732,-57.74487 h 8.2718 l 15.0074,41.94972 q 1.8119,5.04184 3.033,9.45345 1.3392,-4.72673 3.1117,-9.45345 l 15.5982,-41.94972 h 7.7991 l -22.6095,57.74487 z" />
        <path
           id="path114"
           style="stroke-width:1.0804"
           d="m 1272.5826,541.85781 -15.3225,-57.74487 h 7.8385 l 8.7839,37.85322 q 1.418,5.9478 2.4421,11.81682 2.2058,-9.25651 2.5997,-10.67453 l 10.9897,-38.99551 h 9.2171 l 8.2718,29.22694 q 3.1117,10.87147 4.4903,20.4431 1.1029,-5.47513 2.8755,-12.56522 l 9.0595,-37.10482 h 7.681 l -15.8346,57.74487 h -7.3658 l -12.1713,-43.99797 q -1.5362,-5.51452 -1.8119,-6.77498 -0.906,3.97833 -1.6938,6.77498 l -12.2501,43.99797 z" />
        <path
           id="path116"
           style="stroke-width:1.0804"
           d="m 1338.4869,541.85781 22.3338,-30.09351 -19.6947,-27.65136 h 9.0989 l 10.4776,14.81042 q 3.2694,4.60856 4.648,7.09009 1.9301,-3.15115 4.5692,-6.57803 l 11.6198,-15.32248 h 8.3112 l -20.2856,27.21808 21.8612,30.52679 h -9.4535 l -14.5347,-20.60066 q -1.2211,-1.77253 -2.5209,-3.86016 -1.9301,3.15115 -2.7573,4.33283 l -14.4953,20.12799 z" />
        <path
           id="path118"
           style="stroke-width:1.0804"
           d="m 1418.8471,541.85781 v -24.46082 l -22.255,-33.28405 h 9.2959 l 11.3835,17.41012 q 3.1512,4.88428 5.8691,9.76857 2.5997,-4.52978 6.3023,-10.20186 l 11.1866,-16.97683 h 8.902 l -23.0428,33.28405 v 24.46082 z" />
        <path
           id="path120"
           style="stroke-width:1.0804"
           d="m 1456.1941,541.85781 v -7.0901 l 29.5814,-36.98665 q 3.1512,-3.93894 5.9872,-6.85375 h -32.2205 v -6.81437 h 41.3588 v 6.81437 l -32.4174,40.05902 -3.5057,4.05711 h 36.8685 v 6.81437 z" />
        <path
           id="path122"
           style="stroke-width:1.0804"
           d="m 1162.6352,642.69468 h -7.0901 v -45.17964 q -2.5603,2.44214 -6.7356,4.88428 -4.1359,2.44215 -7.4446,3.66322 v -6.85376 q 5.9478,-2.79665 10.3988,-6.77498 4.451,-3.97833 6.3023,-7.72032 h 4.5692 z" />
        <path
           id="path124"
           style="stroke-width:1.0804"
           d="m 1223.8521,635.88032 v 6.81436 h -38.1683 q -0.079,-2.56031 0.8272,-4.92367 1.4574,-3.89955 4.6479,-7.68093 3.2299,-3.78139 9.2959,-8.74445 9.4141,-7.72033 12.7228,-12.21072 3.3087,-4.52978 3.3087,-8.5475 0,-4.21467 -3.033,-7.09009 -2.9936,-2.91482 -7.8385,-2.91482 -5.1206,0 -8.193,3.07238 -3.0723,3.07237 -3.1117,8.50811 l -7.2871,-0.7484 q 0.7484,-8.15361 5.6327,-12.40766 4.8843,-4.29345 13.1167,-4.29345 8.3111,0 13.156,4.60856 4.8449,4.60856 4.8449,11.42293 0,3.46627 -1.418,6.81437 -1.418,3.34809 -4.7267,7.0507 -3.2693,3.7026 -10.9109,10.16247 -6.3811,5.35695 -8.193,7.28704 -1.8119,1.89069 -2.9936,3.82077 z" />
        <path
           id="path126"
           style="stroke-width:1.0804"
           d="m 1237.2897,627.45099 7.0901,-0.94535 q 1.2211,6.02658 4.1359,8.70506 2.9542,2.63909 7.1689,2.63909 5.0024,0 8.4293,-3.46627 3.4663,-3.46627 3.4663,-8.58689 0,-4.88429 -3.1906,-8.03544 -3.1905,-3.19054 -8.1142,-3.19054 -2.0089,0 -5.0025,0.78779 l 0.7878,-6.22353 q 0.709,0.0788 1.1423,0.0788 4.5298,0 8.1536,-2.36336 3.6239,-2.36337 3.6239,-7.28704 0,-3.89956 -2.6391,-6.45987 -2.6391,-2.56031 -6.8144,-2.56031 -4.1359,0 -6.8931,2.5997 -2.7573,2.5997 -3.5451,7.79911 l -7.0901,-1.26047 q 1.2999,-7.12948 5.9084,-11.02903 4.6086,-3.93894 11.4623,-3.93894 4.7268,0 8.7051,2.04825 3.9783,2.00886 6.066,5.51452 2.127,3.50565 2.127,7.44459 0,3.742 -2.0089,6.81437 -2.0088,3.07237 -5.9478,4.88429 5.1207,1.18168 7.9567,4.92367 2.836,3.70261 2.836,9.2959 0,7.56277 -5.5145,12.84095 -5.5145,5.23879 -13.9438,5.23879 -7.6022,0 -12.644,-4.52978 -5.0025,-4.52978 -5.7115,-11.73804 z" />
        <path
           id="path128"
           style="stroke-width:1.0804"
           d="M 1310.6386,642.69468 V 628.869 h -25.0517 v -6.49925 l 26.3515,-37.41993 h 5.7903 v 37.41993 h 7.7991 v 6.49925 h -7.7991 v 13.82568 z m 0,-20.32493 v -26.0364 l -18.0797,26.0364 z" />
        <path
           id="path130"
           style="stroke-width:1.0804"
           d="m 1338.5715,627.56915 7.4446,-0.63023 q 0.8272,5.43574 3.8208,8.193 3.0329,2.71787 7.287,2.71787 5.1206,0 8.6657,-3.86016 3.545,-3.86017 3.545,-10.24125 0,-6.06597 -3.4269,-9.57162 -3.3875,-3.50566 -8.902,-3.50566 -3.4268,0 -6.1841,1.57557 -2.7573,1.53619 -4.3328,4.01772 l -6.6569,-0.86656 5.5933,-29.66023 h 28.7149 v 6.77498 h -23.0428 l -3.1117,15.51943 q 5.1994,-3.62383 10.9108,-3.62383 7.5628,0 12.7622,5.23879 5.1994,5.23879 5.1994,13.47118 0,7.83849 -4.5692,13.54996 -5.5539,7.01131 -15.1649,7.01131 -7.8779,0 -12.8803,-4.41161 -4.9631,-4.41162 -5.6721,-11.69866 z" />
        <path
           id="path132"
           style="stroke-width:1.0804"
           d="m 1426.0218,599.09061 -7.0507,0.55145 q -0.9454,-4.17527 -2.6785,-6.06596 -2.8754,-3.03299 -7.0901,-3.03299 -3.3875,0 -5.9478,1.89069 -3.3481,2.44215 -5.2782,7.12949 -1.93,4.68734 -2.0088,13.353 2.5603,-3.89955 6.2629,-5.79024 3.7026,-1.89069 7.7597,-1.89069 7.0901,0 12.0532,5.23879 5.0024,5.1994 5.0024,13.47118 0,5.43574 -2.3633,10.12308 -2.324,4.64795 -6.4205,7.12948 -4.0965,2.48153 -9.2959,2.48153 -8.8626,0 -14.4559,-6.49925 -5.5933,-6.53864 -5.5933,-21.50662 0,-16.74049 6.1841,-24.34265 5.3964,-6.61742 14.5347,-6.61742 6.8144,0 11.1472,3.82077 4.3722,3.82077 5.2388,10.55636 z m -28.9512,24.89411 q 0,3.66321 1.5362,7.01131 1.5755,3.3481 4.3722,5.12062 2.7966,1.73314 5.869,1.73314 4.4904,0 7.7203,-3.62383 3.23,-3.62382 3.23,-9.84735 0,-5.98719 -3.1906,-9.41407 -3.1905,-3.46626 -8.0354,-3.46626 -4.8055,0 -8.1536,3.46626 -3.3481,3.42688 -3.3481,9.02018 z" />
        <path
           id="path134"
           style="stroke-width:1.0804"
           d="m 1440.3653,592.51258 v -6.81436 h 37.3806 v 5.51451 q -5.5145,5.86902 -10.9503,15.59821 -5.3963,9.72918 -8.3505,20.00981 -2.1271,7.24766 -2.7179,15.87393 h -7.287 q 0.1181,-6.81436 2.6784,-16.46477 2.5603,-9.6504 7.3265,-18.5918 4.8055,-8.98078 10.2018,-15.12553 z" />
        <path
           id="path136"
           style="stroke-width:1.0804"
           d="m 1501.4641,611.38011 q -4.4116,-1.61497 -6.5386,-4.60856 -2.1271,-2.9936 -2.1271,-7.16887 0,-6.30231 4.5298,-10.59575 4.5298,-4.29345 12.0532,-4.29345 7.5627,0 12.1713,4.41161 4.6086,4.37223 4.6086,10.67453 0,4.01772 -2.1271,7.01132 -2.0876,2.9542 -6.3811,4.56917 5.3176,1.73313 8.0749,5.59329 2.7966,3.86016 2.7966,9.21712 0,7.40521 -5.2388,12.44706 -5.2388,5.04184 -13.7863,5.04184 -8.5475,0 -13.7862,-5.04184 -5.2388,-5.08124 -5.2388,-12.644 0,-5.63269 2.836,-9.41407 2.8754,-3.82077 8.1536,-5.1994 z m -1.418,-12.01377 q 0,4.0965 2.6391,6.6962 2.6391,2.5997 6.8537,2.5997 4.0965,0 6.6962,-2.56031 2.6391,-2.5997 2.6391,-6.3417 0,-3.89955 -2.7178,-6.53864 -2.6785,-2.67848 -6.6962,-2.67848 -4.0572,0 -6.7356,2.5997 -2.6785,2.5997 -2.6785,6.22353 z m -2.2846,26.66663 q 0,3.03298 1.418,5.86902 1.4574,2.83604 4.2935,4.41161 2.836,1.53619 6.1053,1.53619 5.0813,0 8.39,-3.26932 3.3087,-3.26932 3.3087,-8.31117 0,-5.12062 -3.4269,-8.46872 -3.3875,-3.3481 -8.5081,-3.3481 -5.0025,0 -8.3112,3.30871 -3.2693,3.30871 -3.2693,8.27178 z" />
        <path
           id="path138"
           style="stroke-width:1.0804"
           d="m 1542.2773,629.34168 6.8144,-0.63023 q 0.8666,4.8055 3.3087,6.97192 2.4422,2.16642 6.2629,2.16642 3.2693,0 5.7115,-1.4968 2.4815,-1.4968 4.0571,-3.97833 1.5756,-2.52092 2.6391,-6.77498 1.0635,-4.25405 1.0635,-8.66567 0,-0.47267 -0.039,-1.41801 -2.127,3.38748 -5.8296,5.51451 -3.6632,2.08764 -7.9567,2.08764 -7.1688,0 -12.1319,-5.1994 -4.9631,-5.1994 -4.9631,-13.70751 0,-8.78384 5.16,-14.1408 5.1994,-5.35696 12.9985,-5.35696 5.6327,0 10.2807,3.03298 4.6873,3.03299 7.0901,8.66567 2.4421,5.5933 2.4421,16.22844 0,11.06842 -2.4027,17.64645 -2.4028,6.53864 -7.1689,9.96552 -4.7267,3.42688 -11.1078,3.42688 -6.775,0 -11.0685,-3.74199 -4.2934,-3.78139 -5.16,-10.59575 z m 29.03,-25.48495 q 0,-6.10536 -3.2693,-9.68979 -3.2299,-3.58444 -7.7991,-3.58444 -4.7267,0 -8.2324,3.86016 -3.5056,3.86017 -3.5056,10.00491 0,5.51452 3.3087,8.98079 3.3481,3.42688 8.2324,3.42688 4.9236,0 8.0748,-3.42688 3.1905,-3.46627 3.1905,-9.57163 z" />
        <path
           id="path140"
           style="stroke-width:1.0804"
           d="m 1591.8744,614.21614 q 0,-10.24124 2.0877,-16.46477 2.127,-6.26291 6.2629,-9.6504 4.1753,-3.38749 10.4776,-3.38749 4.6479,0 8.1536,1.89069 3.5056,1.8513 5.7902,5.39635 2.2846,3.50566 3.5845,8.58689 1.2998,5.04184 1.2998,13.62873 0,10.16247 -2.0876,16.42539 -2.0877,6.22352 -6.2629,9.6504 -4.1359,3.38749 -10.4776,3.38749 -8.3506,0 -13.1167,-5.98719 -5.7115,-7.20826 -5.7115,-23.47609 z m 7.2871,0 q 0,14.21958 3.3087,18.94631 3.3481,4.68734 8.2324,4.68734 4.8843,0 8.193,-4.72673 3.3481,-4.72673 3.3481,-18.90692 0,-14.25896 -3.3481,-18.9463 -3.3087,-4.68734 -8.2718,-4.68734 -4.8843,0 -7.7991,4.13589 -3.6632,5.27818 -3.6632,19.49775 z" />
      </g>
      <g
         transform="matrix(4.6309715,0,0,4.6309715,8.892445,-270.00369)"
         id="g490">
        <g
           aria-label="ABCDEFGHKJ LMNOPQRSTU VWXYZ"
           id="text44"
           style="font-size:19.7556px;line-height:1.25;font-family:Königsberg;-inkscape-font-specification:Königsberg;stroke-width:0.264583">
          <path
             d="m 117.13882,169.39877 -3.08199,-4.93294 c -0.18007,-0.28939 -0.4373,-0.47267 -0.77171,-0.54984 -0.3344,-0.0772 -0.6463,-0.0257 -0.93569,0.15434 -0.28939,0.18649 -0.47267,0.44694 -0.54984,0.78135 -0.0772,0.32797 -0.0257,0.63987 0.15434,0.93569 l 4.26367,6.82957 v 3.71382 c 0,0.34727 0.12218,0.63987 0.36655,0.87782 0.24438,0.24437 0.53698,0.36656 0.87782,0.36656 0.34083,0 0.63344,-0.12219 0.87781,-0.36656 0.23795,-0.23795 0.35692,-0.53055 0.35692,-0.87782 v -3.41961 c 0,0 0.0917,-0.65124 -0.16851,-1.23691 -0.26023,-0.58566 -1.38937,-2.27547 -1.38937,-2.27547 z m 3.33898,0.46477 2.4922,-4.0762 c 0.18007,-0.29582 0.23151,-0.60772 0.15434,-0.93569 -0.0772,-0.33441 -0.26045,-0.59486 -0.54984,-0.78135 -0.28939,-0.18007 -0.60128,-0.23151 -0.93569,-0.15434 -0.3344,0.0772 -0.59163,0.26045 -0.7717,0.54984 l -2.55899,4.13742 c -0.25605,0.44175 -0.37447,1.18907 0.2249,1.74423 0.30929,0.28647 0.76725,0.34591 1.16882,0.21173 0.38965,-0.17196 0.57276,-0.36329 0.77596,-0.69564 z"
             style="stroke-width:0.264583"
             id="path369"
             sodipodi:nodetypes="ccsccccscssscscccccsccscc" />
          <path
             d="m 61.108362,132.48597 c 0.321543,0.12219 0.636655,0.11255 0.945336,-0.0289 0.315112,-0.14148 0.533761,-0.36978 0.655948,-0.68489 0.122186,-0.32154 0.112539,-0.63987 -0.02894,-0.95498 L 57.62605,119.60821 c -0.199357,-0.48231 -0.575562,-0.72347 -1.128616,-0.72347 -0.553053,0 -0.929258,0.24116 -1.128615,0.72347 l -5.054656,11.20899 c -0.141479,0.31511 -0.151125,0.63344 -0.02894,0.95498 0.122187,0.31511 0.337621,0.54341 0.646302,0.68489 0.315112,0.14148 0.633439,0.15111 0.954982,0.0289 0.315112,-0.12219 0.543408,-0.33762 0.684887,-0.6463 l 0.752414,-1.65881 3.460372,0.0413 c 0.951747,0.0494 1.535537,-0.60048 1.472424,-1.32889 -0.06311,-0.72842 -0.569072,-1.19274 -1.484732,-1.17212 l -2.329094,-0.0194 2.054659,-4.5627 2.879601,6.34669 c 1.17827,2.7923 1.409781,2.87803 1.731324,3.00022 z"
             style="stroke-width:0.264583"
             id="path323"
             sodipodi:nodetypes="sccccscccccccczccccs" />
          <path
             d="m 98.199718,132.57351 c 1.864952,-0.0193 3.456592,-0.69772 4.774932,-2.03537 1.33119,-1.34405 1.99678,-2.94855 1.99678,-4.8135 0,-1.87138 -0.66559,-3.47588 -1.99678,-4.8135 -1.3312,-1.33762 -2.93571,-2.01286 -4.813517,-2.02572 l -4.090026,-3.7e-4 c -0.347267,0 -0.639871,0.11897 -0.877813,0.35691 -0.244373,0.24437 -0.366559,0.53698 -0.366559,0.87782 v 0.0193 10.48963 c 0.0019,0.43559 0.02587,1.86722 1.214966,1.87615 1.329427,0.0399 1.257898,-1.80555 1.264127,-2.62075 v -8.51996 h 2.845655 c 1.189709,0.007 2.208997,0.43753 3.057877,1.2926 0.84888,0.85531 1.27332,1.87781 1.27332,3.06752 0,1.18971 -0.42123,2.21221 -1.26367,3.06752 -0.84888,0.85531 -1.871387,1.28939 -3.067527,1.30225 -1.013972,-0.0433 -2.021693,0.32672 -2.025521,1.37891 0.196378,1.29041 1.139549,1.07728 2.073752,1.10056 z"
             style="stroke-width:0.264583"
             id="path329"
             sodipodi:nodetypes="ccssccsscccccccsccccc" />
          <path
             d="m 114.9333,121.36415 q 0.5209,0 0.87781,-0.36656 0.36656,-0.35691 0.36656,-0.86817 0,-0.5209 -0.36656,-0.87781 -0.35691,-0.36656 -0.87781,-0.36656 h -6.49196 q -0.5209,0 -0.87781,0.36656 -0.36656,0.35691 -0.36656,0.87781 v 11.19934 q 0,0.5209 0.36656,0.87782 0.35691,0.36656 0.87781,0.36656 h 6.49196 q 0.5209,0 0.87781,-0.36656 0.36656,-0.35692 0.36656,-0.87782 0,-0.51125 -0.36656,-0.87781 -0.35691,-0.35691 -0.87781,-0.35691 h -5.25723 v -3.15434 h 3.99356 q 0.5209,0 0.87781,-0.36656 0.36656,-0.35691 0.36656,-0.87781 0,-0.51125 -0.36656,-0.86816 -0.35691,-0.36656 -0.87781,-0.36656 h -3.99356 v -3.09646 z"
             style="stroke-width:0.264583"
             id="path331" />
          <path
             sodipodi:nodetypes="cscscscsscccscscsscsscscscc"
             d="m 123.60414,127.43166 h 1.77334 c 0.34083,0 0.63344,-0.12219 0.87781,-0.36656 0.23794,-0.24437 0.35691,-0.53697 0.35691,-0.87781 0,-0.34083 -0.11897,-0.63344 -0.35691,-0.87781 -0.24437,-0.23794 -0.53698,-0.35691 -0.87781,-0.35691 h -1.96414 c -0.0737,-5.6e-4 -0.46337,0.0235 -0.78471,0.25157 -0.24743,0.17564 -0.45437,0.47229 -0.44545,0.97189 0.008,0.46538 0.19296,0.76311 0.41354,0.95129 0.29869,0.25684 0.6389,0.30434 1.00742,0.30434 z m -1.95013,-6.06751 h 5.25723 c 0.34727,0 0.63987,-0.12219 0.87781,-0.36656 0.24437,-0.23794 0.36656,-0.52733 0.36656,-0.86817 0,-0.34727 -0.12219,-0.63987 -0.36656,-0.87781 -0.23794,-0.24437 -0.53054,-0.36656 -0.87781,-0.36656 h -6.49196 c -0.34727,0 -0.63987,0.12219 -0.87781,0.36656 -0.24437,0.23794 -0.36656,0.53054 -0.36656,0.87781 v 11.19934 c 0,0.34727 0.12219,0.63987 0.36656,0.87782 0.23794,0.24437 0.53054,0.36656 0.87781,0.36656 0.34084,0 0.63023,-0.12219 0.86817,-0.36656 0.24437,-0.23795 0.36656,-0.53055 0.36656,-0.87782 v -5.15273 z"
             style="stroke-width:0.264583"
             id="path333" />
          <path
             sodipodi:nodetypes="cscscscccscssscsccsscc"
             d="m 138.27305,129.88536 c -0.56779,0.25536 -1.17618,0.38231 -1.82439,0.38231 -1.25401,0 -2.32797,-0.44373 -3.22186,-1.33119 -0.88745,-0.89389 -1.33118,-1.96784 -1.33118,-3.22186 0,-1.25401 0.44373,-2.32475 1.33118,-3.21221 0.89389,-0.88746 1.96785,-1.33119 3.22186,-1.33119 1.08682,0 2.04823,0.34727 2.88424,1.0418 0.2701,0.21865 0.57557,0.31189 0.9164,0.27974 0.34083,-0.0386 0.61736,-0.18972 0.82958,-0.45337 0.21865,-0.26367 0.3119,-0.56592 0.27974,-0.90675 -0.0321,-0.34084 -0.18004,-0.62058 -0.44372,-0.83923 -1.29261,-1.06752 -2.78135,-1.60128 -4.46624,-1.60128 -1.94212,0 -3.59807,0.68488 -4.96784,2.05465 -1.3762,1.37621 -2.0643,3.03215 -2.0643,4.96784 0,1.94212 0.6881,3.59807 2.0643,4.96784 1.36977,1.37621 3.02572,2.06431 4.96784,2.06431 1.73432,0 3.17661,-0.32342 4.4781,-1.42392 0.22229,-0.16866 0.38796,-0.4191 0.52126,-0.63806 0.22617,-0.44521 0.18472,-0.85271 0.0237,-1.15383 -0.25628,-0.47925 -0.64682,-0.5954 -1.11571,-0.61265 -0.53713,-0.0198 -0.94408,0.26461 -1.39709,0.59299 -0.23414,0.16024 -0.44411,0.27407 -0.68587,0.37406 z"
             style="stroke-width:0.264583"
             id="path335" />
          <path
             sodipodi:nodetypes="ccscscsscscscczcccssssssccc"
             d="m 151.41812,124.47025 h -4.38058 v -4.34083 c 0,-0.34727 -0.12219,-0.63987 -0.36656,-0.87781 -0.23795,-0.24437 -0.52734,-0.36656 -0.86817,-0.36656 -0.34727,0 -0.63987,0.12219 -0.87781,0.36656 -0.24437,0.23794 -0.36656,0.53054 -0.36656,0.87781 v 11.19934 c 0,0.34727 0.12219,0.63987 0.36656,0.87782 0.23794,0.24437 0.53054,0.36656 0.87781,0.36656 0.34083,0 0.63022,-0.12219 0.86817,-0.36656 0.24437,-0.23795 0.36656,-0.53055 0.36656,-0.87782 v -4.37941 h 4.46612 c 0.0162,0.0568 1.17948,-0.1154 1.1815,-1.21104 0.002,-1.09564 -1.16625,-1.36885 -1.26704,-1.26806 z m 2.14031,6.85851 c 0,0.34727 0.12219,0.63987 0.36656,0.87782 0.24437,0.24437 0.53697,0.36656 0.87781,0.36656 0.34083,0 0.63344,-0.12219 0.87781,-0.36656 0.23794,-0.23795 0.35691,-0.53055 0.35691,-0.87782 v -11.19934 c 0,-0.34727 -0.11897,-0.63987 -0.35691,-0.87781 -0.24437,-0.24437 -0.53698,-0.36656 -0.87781,-0.36656 -0.34084,0 -0.63344,0.12219 -0.87781,0.36656 -0.24437,0.23794 -0.36656,0.53054 -0.36656,0.87781 z"
             style="stroke-width:0.264583"
             id="path337" />
          <path
             sodipodi:nodetypes="ccsscccccccccsccscsscsscccc"
             d="m 54.036921,150.38117 3.98114,4.33371 c 0.237937,0.2508 0.527327,0.38263 0.868157,0.3955 0.34084,0.0129 0.63666,-0.0965 0.88746,-0.32798 0.25081,-0.23151 0.38264,-0.51768 0.3955,-0.85852 0.0193,-0.34727 -0.0868,-0.6463 -0.31833,-0.8971 l -4.456577,-4.83279 4.437287,-4.67845 c 0.23794,-0.25081 0.3537,-0.54663 0.34727,-0.88746 -0.0129,-0.34084 -0.1447,-0.63023 -0.3955,-0.86817 -0.24437,-0.23151 -0.53698,-0.34405 -0.87781,-0.33762 -0.34727,0.007 -0.63666,0.13528 -0.868167,0.38585 l -4.12223,4.34998 c -0.66093,0.54663 -0.92211,1.39899 -0.89295,2.18537 0.0281,0.75827 0.48154,1.45726 1.01475,2.03768 z m -1.661917,-8.59229 c -0.23324,-0.21481 -0.53698,-0.36656 -0.87781,-0.36656 -0.34727,0 -0.63987,0.12219 -0.87782,0.36656 -0.24437,0.23794 -0.36656,0.52733 -0.36656,0.86817 v 11.20898 c 0,0.34727 0.12219,0.63987 0.36656,0.87782 0.23795,0.24437 0.53055,0.36656 0.87782,0.36656 0.34083,0 0.67154,-0.12573 0.87781,-0.36656 0.24845,-0.29008 0.35984,-0.71364 0.35334,-1.07817 -0.0591,-3.47757 -0.0219,-9.78405 -0.0138,-11.00917 0.004,-0.29787 -0.13943,-0.6698 -0.33949,-0.86763 z"
             style="stroke-width:0.264583"
             id="path339" />
          <path
             d="m 174.32512,118.88505 q -0.51125,0 -0.87781,0.36656 -0.35691,0.35691 -0.35691,0.87781 v 7.50482 q 0,1.06109 -0.78135,1.8135 -0.76206,0.75241 -1.82315,0.75241 -1.10932,0 -1.88102,-0.81029 -0.35692,-0.37621 -0.86817,-0.38585 -0.51125,-0.0193 -0.88746,0.33762 -0.36656,0.34726 -0.38585,0.86816 -0.01,0.51126 0.33762,0.88746 1.50482,1.58199 3.68488,1.58199 2.0836,0 3.56913,-1.47588 1.48553,-1.46623 1.51447,-3.54983 0,0 0,-7.52411 0,-0.5209 -0.36656,-0.87781 -0.36656,-0.36656 -0.87782,-0.36656 z"
             style="stroke-width:0.264583"
             id="path341" />
          <path
             d="m 66.339377,152.59504 v -9.96462 q 0,-0.5209 -0.366559,-0.87781 -0.356913,-0.36656 -0.868166,-0.36656 -0.5209,0 -0.877812,0.36656 -0.366559,0.35691 -0.366559,0.87781 v 11.19934 q 0,0.5209 0.366559,0.87782 0.356912,0.36656 0.877812,0.36656 h 5.672018 q 0.511253,0 0.877812,-0.36656 0.356913,-0.35692 0.356913,-0.87782 0,-0.51125 -0.356913,-0.87781 -0.366559,-0.35691 -0.877812,-0.35691 z"
             style="stroke-width:0.264583"
             id="path343" />
          <path
             d="m 87.230481,141.41499 q -0.424437,-0.0965 -0.810288,0.0868 -0.395498,0.18328 -0.588424,0.56913 l -4.244367,8.47909 -4.244367,-8.47909 q -0.192926,-0.38585 -0.588424,-0.56913 -0.395498,-0.18328 -0.810288,-0.0868 -0.424437,0.10611 -0.684887,0.44373 -0.270096,0.33762 -0.270096,0.7717 v 11.19934 q 0,0.5209 0.366559,0.87782 0.356913,0.36656 0.877813,0.36656 0.511253,0 0.868166,-0.36656 0.366559,-0.35692 0.366559,-0.87782 v -5.9614 l 2.951764,5.88423 q 0.04823,0.13505 0.106109,0.23151 0.366559,0.58843 1.051446,0.58843 0.704179,0 1.061091,-0.58843 0.04823,-0.0868 0.09646,-0.18327 l 2.971057,-5.93247 v 5.9614 q 0,0.5209 0.356913,0.87782 0.366559,0.36656 0.877812,0.36656 0.5209,0 0.877813,-0.36656 0.366559,-0.35692 0.366559,-0.87782 v -11.19934 q 0,-0.43408 -0.270096,-0.7717 -0.270097,-0.33762 -0.684887,-0.44373 z"
             style="stroke-width:0.264583"
             id="path345" />
          <path
             sodipodi:nodetypes="cccccsscscsccccccccsscsscsccc"
             d="m 99.181616,148.94378 -5.799561,-7.09471 c -0.167203,-0.20579 -0.376206,-0.34405 -0.627009,-0.41479 -0.257234,-0.0707 -0.508037,-0.0643 -0.75241,0.0193 -0.250804,0.09 -0.450161,0.24115 -0.59807,0.45337 -0.154341,0.21222 -0.231511,0.45016 -0.231511,0.71383 v 11.20898 c 0,0.34727 0.122186,0.63987 0.366559,0.87782 0.237941,0.24437 0.530545,0.36656 0.877812,0.36656 0.340835,0 0.630224,-0.12219 0.868166,-0.36656 0.244373,-0.23795 0.366559,-0.53055 0.366559,-0.87782 v -7.67844 l 3.775453,4.57342 c 0.49008,0.61753 1.638754,0.59241 1.998144,0.14174 0.364075,-0.492 0.303965,-1.43469 -0.244135,-1.9226 z m 1.271164,5.66733 c 0.15375,0.17818 0.36978,0.34405 0.62701,0.41479 0.25081,0.0707 0.50161,0.0643 0.75241,-0.0193 0.24438,-0.09 0.44373,-0.24116 0.59807,-0.45337 0.14791,-0.21865 0.22187,-0.45981 0.22187,-0.72348 v -11.20898 c 0,-0.34084 -0.11897,-0.63345 -0.35691,-0.87782 -0.24438,-0.23794 -0.53698,-0.35691 -0.87782,-0.35691 v 1e-5 c -0.34083,0 -0.63344,0.11897 -0.87781,0.35691 -0.24437,0.24437 -0.36656,0.53698 -0.36656,0.87782 v 11.0638 c -0.0207,0.32937 0.0835,0.68655 0.27974,0.92653 z"
             style="stroke-width:0.264583"
             id="path347" />
          <path
             d="m 125.91349,151.16739 c 1.32476,-0.0129 2.45981,-0.4984 3.40514,-1.45659 0.94534,-0.9582 1.41801,-2.10289 1.41801,-3.43408 0,-1.33762 -0.47588,-2.48553 -1.42765,-3.44373 -0.94534,-0.95177 -2.08682,-1.43408 -3.42444,-1.44694 h -2.93247 -0.0675 l -0.0579,0.01 -0.0675,-0.01 h -0.0579 c -0.34727,0 -0.63987,0.12219 -0.87781,0.36656 -0.24437,0.23794 -0.36656,0.53054 -0.36656,0.87781 v 11.19934 c 0,0.34727 0.12219,0.63987 0.36656,0.87782 0.23794,0.24437 0.53054,0.36656 0.87781,0.36656 0.34083,0 0.63022,-0.12219 0.86816,-0.36656 0.24437,-0.23795 0.36656,-0.53055 0.36656,-0.87782 v -9.96461 h 1.93891 c 0.65595,0.007 1.21543,0.24461 1.67845,0.71382 0.46945,0.47589 0.70418,1.0418 0.70418,1.69775 0,0.65595 -0.23473,1.22186 -0.70418,1.69775 -0.46302,0.46945 -1.0225,0.70739 -1.67845,0.71382 0.11327,0.002 -1.27049,0.0852 -1.23648,1.26615 0.034,1.18093 1.25594,1.24162 1.27506,1.21295 z"
             style="stroke-width:0.264583"
             id="path351"
             sodipodi:nodetypes="cssscccccscsscscccccscczc" />
          <path
             d="m 145.45293,152.01306 c 0.71269,-0.74097 1.25011,-2.56509 1.18769,-3.76852 -0.10027,-1.93309 -0.68489,-3.59163 -2.05466,-4.96784 -1.37621,-1.3762 -3.03215,-2.0643 -4.96784,-2.0643 v -2e-5 c -1.94212,0 -3.59807,0.6881 -4.96784,2.0643 -1.3762,1.37621 -2.0643,3.03215 -2.0643,4.96784 0,1.93569 0.6881,3.59164 2.0643,4.96784 1.24023,1.24023 2.71507,1.919 4.42452,2.03628 0.17855,0.0122 1.34392,-0.11461 1.16418,-1.38044 -0.4326,-1.27613 -1.4855,-1.15502 -1.55349,-1.16842 -0.86237,-0.16964 -1.62544,-0.58397 -2.28923,-1.24297 -0.88746,-0.88746 -1.33119,-1.9582 -1.33119,-3.21222 0,-1.25401 0.44373,-2.32475 1.33119,-3.21221 0.89389,-0.89389 1.96784,-1.34084 3.22186,-1.34084 1.25402,0 2.32476,0.44695 3.21221,1.34084 0.88746,0.88746 1.33119,1.9582 1.33119,3.21221 0,0.85585 -0.41393,1.99394 -0.70975,2.35723 -0.37411,0.74932 -0.12101,1.47844 0.19383,1.66334 0.79933,0.74659 1.70652,-0.0557 1.80733,-0.2521 z m -4.33963,-1.83928 c -0.33441,-0.0772 -0.6463,-0.0257 -0.93569,0.15434 -0.28939,0.18007 -0.47267,0.4373 -0.54984,0.7717 -0.0772,0.33441 -0.0257,0.6463 0.15434,0.93569 0.89932,1.4229 2.86306,4.18403 2.86306,4.18403 0.34663,0.40046 0.90915,0.34876 1.2752,0.12789 0.28939,-0.18007 0.47266,-0.4373 0.54983,-0.77171 0.0772,-0.32797 0.0257,-0.63987 -0.15434,-0.93569 l -1.45658,-2.34888 c -1.15435,-1.85692 -1.41158,-2.0402 -1.74598,-2.11737 z"
             style="stroke-width:0.264583"
             id="path353"
             sodipodi:nodetypes="cscsscssscscssscscccsssccccccs" />
          <path
             d="m 153.21438,150.68087 2.94438,3.9013 c 0.21222,0.2701 0.48553,0.43087 0.81994,0.48232 0.34083,0.045 0.64951,-0.0354 0.92604,-0.24116 0.2701,-0.20579 0.42766,-0.4791 0.47267,-0.81993 0.0515,-0.34084 -0.0289,-0.64631 -0.24116,-0.9164 l -2.23794,-2.97106 c 0.81672,-0.35369 1.47588,-0.90353 1.97749,-1.64951 0.50804,-0.76527 0.76206,-1.60772 0.76206,-2.52733 h -1e-5 c 0,-1.24759 -0.44051,-2.31511 -1.32154,-3.20257 -0.88746,-0.89389 -1.95177,-1.34405 -3.19292,-1.35048 h -3.66559 -0.0675 l -0.0579,0.01 -0.0675,-0.01 h -0.0579 c -0.34727,0 -0.63987,0.11897 -0.87781,0.35691 -0.24437,0.24437 -0.36656,0.53698 -0.36656,0.87782 v 11.20898 c 0,0.34727 0.12219,0.63987 0.36656,0.87782 0.23794,0.24437 0.53054,0.36656 0.87781,0.36656 0.34084,0 0.63023,-0.12219 0.86817,-0.36656 0.24437,-0.23795 0.36656,-0.53055 0.36656,-0.87782 v -2.92973 c -1e-5,-2.34496 -1e-5,-4.68992 -1e-5,-7.03488 h 2.67202 c 0.55949,0.007 1.0418,0.21245 1.44694,0.61736 0.39871,0.40515 0.59807,0.89068 0.59807,1.45659 0,0.56591 -0.19936,1.05144 -0.59807,1.45659 -0.40514,0.40515 -0.89067,0.61093 -1.45659,0.61736 -1.35819,0.0684 -1.81921,1.32777 -0.88971,2.66782 z"
             style="stroke-width:0.264583"
             id="path355"
             sodipodi:nodetypes="ccccccccssscccccsssscscsccccsccc" />
          <path
             d="m 166.77621,149.93266 c 0.1865,0.12219 0.32155,0.26688 0.40515,0.43409 0.11575,0.22508 0.16077,0.52411 0.13505,0.8971 -0.0321,0.48231 -0.25078,0.86173 -0.65595,1.13826 -0.40515,0.28296 -0.91318,0.40193 -1.52411,0.35692 -0.57878,-0.0386 -1.04502,-0.23796 -1.39872,-0.59807 -0.23794,-0.24437 -0.53054,-0.36656 -0.87781,-0.36656 -0.34083,0 -0.63344,0.11897 -0.87781,0.35691 -0.23794,0.24437 -0.36013,0.53698 -0.36656,0.87781 0,0.34084 0.12219,0.63344 0.36656,0.87781 0.79099,0.79743 1.78456,1.23794 2.9807,1.32155 1.29261,0.0965 2.39872,-0.21865 3.31833,-0.94534 0.92604,-0.72669 1.43086,-1.67524 1.51446,-2.84566 0.10933,-1.58199 -0.44373,-2.77491 -1.65916,-3.57877 h 3.5e-4 c -0.28648,-0.19019 -0.37413,-0.24287 -0.68855,-0.37087 -0.0631,-0.025 -1.05848,-0.36812 -1.49775,0.79362 -0.26991,0.87062 0.21896,1.28445 0.82582,1.6512 z m -2.70096,-3.50159 c -0.36655,-0.33441 -0.53054,-0.74277 -0.49196,-1.22508 0.0321,-0.48231 0.25078,-0.86495 0.65595,-1.14791 0.40515,-0.27653 0.91318,-0.39228 1.52411,-0.34726 0.50804,0.0321 0.98393,0.25721 1.42766,0.67524 0.2508,0.23151 0.54983,0.34083 0.8971,0.32797 0.34083,-0.007 0.62701,-0.13528 0.85852,-0.38585 0.23794,-0.25081 0.35048,-0.54663 0.33762,-0.88746 -0.0129,-0.34727 -0.1447,-0.63666 -0.3955,-0.86817 -0.39871,-0.37299 -0.791,-0.65916 -1.17685,-0.85851 -0.52733,-0.27653 -1.11896,-0.43731 -1.77491,-0.48232 -1.29261,-0.09 -2.39872,0.22829 -3.31833,0.95498 -0.92604,0.72026 -1.43086,1.66881 -1.51446,2.84566 -0.0836,1.17041 0.27974,2.18006 1.09003,3.02893 0.44326,0.46437 0.95965,0.81519 1.54917,1.05248 1.4204,0.3898 2.26734,-1.33122 1.16183,-2.16162 -0.26965,-0.19887 -0.5725,-0.29921 -0.82998,-0.52108 z"
             style="stroke-width:0.264583"
             id="path357"
             sodipodi:nodetypes="ccccccsccccccccccccccccccccccccsccc" />
          <path
             d="m 175.87722,141.38605 h -3.10341 c -0.34727,0 -0.63987,0.12219 -0.87781,0.36656 -0.24437,0.23794 -0.36656,0.53054 -0.36656,0.87781 0,0.34084 0.12219,0.63023 0.36656,0.86817 0.23794,0.24437 0.53054,0.36656 0.87781,0.36656 h 1.61371 c 0.74746,-0.0565 1.07476,0.62521 1.0776,1.04947 v 8.91514 c 0,0.34727 0.12219,0.63987 0.36656,0.87782 0.24437,0.24437 0.53698,0.36656 0.87781,0.36656 0.34084,0 0.63345,-0.12219 0.87782,-0.36656 0.23794,-0.23795 0.35691,-0.53055 0.35691,-0.87782 v -9.60679 c 0,0 0.0452,-1.72348 -0.40836,-2.23581 -0.45356,-0.51233 -1.05718,-0.60111 -1.65864,-0.60111 z m 4.01687,2.4791 h 0.75109 c 0.34083,0 0.63344,-0.12219 0.87781,-0.36656 0.24437,-0.23794 0.36656,-0.52733 0.36656,-0.86817 0,-0.34727 -0.12219,-0.63987 -0.36656,-0.87781 -0.24437,-0.24437 -0.53698,-0.36656 -0.87781,-0.36656 h -0.69788 c -0.60183,-0.0935 -1.06266,0.24417 -1.25281,0.51365 -0.28821,0.39233 -0.32953,1.01333 0.0899,1.4941 0.31258,0.34418 0.67231,0.47135 1.10968,0.47135 z"
             style="stroke-width:0.264583"
             id="path359"
             sodipodi:nodetypes="cscscsccscsssczccscsccccccc" />
          <path
             d="m 58.277595,177.36282 c 0.74013,-0.28346 1.41587,-0.72745 2.027207,-1.33197 1.15113,-1.13827 1.73634,-2.51126 1.75563,-4.11897 v -6.72346 c 0,-0.34727 -0.12219,-0.63987 -0.36656,-0.87781 -0.24437,-0.24437 -0.53698,-0.36656 -0.87781,-0.36656 v 1e-5 c -0.34084,0 -0.63345,0.12219 -0.877817,0.36656 -0.23794,0.23794 -0.35691,0.53054 -0.35691,0.87781 v 6.70417 c -0.0129,0.92605 -0.35049,1.72026 -1.01286,2.38263 -0.27102,0.26581 -0.56369,0.47776 -0.878,0.63586 -0.0696,0.035 -1.17771,0.33338 -1.01352,1.59721 0.34635,1.19961 1.49291,0.89579 1.60064,0.85452 z m -4.503327,-3.09722 c -0.66881,-0.66238 -1.00643,-1.45981 -1.01286,-2.39228 v -6.68488 c 0,-0.34727 -0.11897,-0.63987 -0.35691,-0.87781 -0.24437,-0.24437 -0.53698,-0.36656 -0.87781,-0.36656 -0.34727,0 -0.63987,0.12219 -0.87781,0.36656 -0.24437,0.23794 -0.36656,0.53054 -0.36656,0.87781 v 6.72346 c 0.0129,1.60771 0.59486,2.98071 1.74598,4.11897 0.68498,0.60788 1.3686,1.14425 2.14992,1.30979 0.50574,0.0707 1.309847,0.0238 1.571847,-0.82401 0.0928,-0.81451 -0.41801,-1.26627 -0.82251,-1.49781 -0.438347,-0.17486 -0.858707,-0.46125 -1.153287,-0.75324 z"
             style="stroke-width:0.264583"
             id="path361"
             sodipodi:nodetypes="sscscssssccscsccssscscccccc" />
          <path
             d="m 67.917232,164.62016 c -0.141479,-0.31511 -0.37299,-0.53376 -0.694533,-0.65595 -0.315112,-0.11575 -0.630224,-0.10289 -0.945336,0.0386 -0.308681,0.13505 -0.524115,0.36334 -0.646302,0.68488 -0.122186,0.32155 -0.112539,0.63988 0.02894,0.95499 l 5.054656,11.20898 0.01929,0.0289 0.01929,0.0289 0.05788,0.11576 0.07717,0.0965 0.07717,0.0868 0.09646,0.0868 0.08682,0.0675 0.115755,0.0675 0.03858,0.0193 0.02894,0.0193 0.03858,0.01 0.125402,0.0386 0.106109,0.0386 0.125402,0.01 0.115755,0.01 0.115756,-0.01 0.125402,-0.01 0.106109,-0.0386 0.125402,-0.0386 0.03858,-0.01 0.02894,-0.0193 0.02894,-0.0193 0.115756,-0.0675 0.09646,-0.0675 0.09646,-0.0868 0.07717,-0.0868 0.06752,-0.0965 0.06752,-0.11576 0.01929,-0.0289 0.01929,-0.0289 c 0.163823,-0.34218 0.149967,-0.676 0.01166,-0.98632 -1.735329,-3.89221 -3.55814,-7.90244 -5.06628,-11.24518 z m 7.014644,7.88504 3.094634,-6.86252 c 0.141479,-0.31511 0.151125,-0.63344 0.02894,-0.95499 -0.122187,-0.32154 -0.340836,-0.54983 -0.655948,-0.68488 h 3.1e-5 c -0.308681,-0.14148 -0.623793,-0.15435 -0.945336,-0.0386 -0.321543,0.12219 -0.553054,0.34084 -0.694533,0.65595 l -3.239621,7.19738 c 0,0 -0.236085,0.58814 -0.157455,1.11244 0.08474,0.49737 0.353377,0.79963 0.678868,0.9311 0.268196,0.10833 0.57499,0.10072 0.849305,-0.009 0.330228,-0.13147 0.50875,-0.38983 0.684016,-0.65423 0.203612,-0.33591 0.357099,-0.69245 0.357099,-0.69245 z"
             style="stroke-width:0.264583"
             id="path363"
             sodipodi:nodetypes="cccscccccccccccccccccccccccccccccccccscccsccccccscccc" />
          <path
             d="m 96.071991,163.94493 q -0.49196,-0.15434 -0.945336,0.0868 -0.453376,0.24115 -0.617362,0.72347 l -2.353695,7.46622 -2.353695,-7.46622 q -0.115755,-0.38585 -0.443729,-0.62701 -0.327974,-0.24116 -0.733118,-0.24116 -0.405144,0 -0.742764,0.24116 -0.327974,0.24116 -0.443729,0.62701 l -2.353695,7.46622 -2.353694,-7.46622 q -0.163987,-0.48232 -0.617363,-0.72347 -0.453376,-0.24116 -0.945336,-0.0868 -0.491961,0.15434 -0.723472,0.61736 -0.241157,0.45338 -0.08682,0.94534 l 3.540189,11.20899 q 0.279742,0.85852 1.225078,0.85852 0.839227,-0.0289 1.138262,-0.85852 l 2.363341,-7.46623 2.353695,7.46623 q 0.33762,0.85852 1.205786,0.85852 0.897105,0 1.157555,-0.85852 l 3.540188,-11.20899 q 0.15434,-0.49196 -0.08682,-0.94534 -0.231511,-0.46302 -0.723472,-0.61736 z"
             style="stroke-width:0.264583"
             id="path365" />
          <path
             d="m 106.89238,177.006 c 0.18649,0.28939 0.44694,0.46946 0.78135,0.5402 0.3344,0.0707 0.6463,0.0129 0.93569,-0.17364 0.28939,-0.18649 0.46945,-0.44694 0.54019,-0.78135 0.0707,-0.3344 0.0129,-0.6463 -0.17363,-0.93569 -2.56319,-3.95356 -4.65937,-7.1947 -7.25401,-11.20898 -0.1865,-0.28296 -0.44695,-0.45981 -0.78136,-0.53055 -0.3344,-0.0772 -0.6463,-0.0225 -0.93569,0.16399 -0.289391,0.18649 -0.469455,0.44694 -0.540194,0.78135 -0.07074,0.3344 -0.01286,0.6463 0.173633,0.93569 2.439151,3.76243 5.178991,8.00348 7.254021,11.20898 z"
             style="stroke-width:0.264583"
             id="path367"
             sodipodi:nodetypes="cssscccsscc" />
          <path
             d="m 134.72605,163.88705 h -7.88101 c -0.34084,0 -0.63345,0.12219 -0.87782,0.36656 -0.23794,0.23794 -0.35691,0.53054 -0.35691,0.87781 0,0.34084 0.11897,0.63023 0.35691,0.86817 0.24437,0.24437 0.53698,0.36656 0.87782,0.36656 2.62892,0.0148 5.25739,-0.003 7.88605,-0.0337 1.85213,-0.29554 1.41059,-2.42299 -0.005,-2.44541 z m -3.8548,4.56004 -5.03907,7.16985 c -0.28939,0.41157 -0.31833,0.84244 -0.0868,1.2926 0.23151,0.44373 0.59807,0.6656 1.09968,0.6656 h 7.88101 c 0.34084,0 0.63345,-0.12219 0.87782,-0.36656 0.23794,-0.23795 0.35691,-0.53055 0.35691,-0.87782 0,-0.34083 -0.11897,-0.63344 -0.35691,-0.87781 -0.24437,-0.23794 -0.53698,-0.35691 -0.87782,-0.35691 h -5.48873 l 3.77518,-5.37711 c 0.42349,-0.64804 0.73729,-1.20004 0.72542,-1.78644 -0.0986,-1.01637 -1.15409,-1.1651 -1.71197,-0.80071 -0.5461,0.36878 -1.15472,1.31533 -1.15472,1.31533 z"
             style="stroke-width:0.264583"
             id="path371"
             sodipodi:nodetypes="cssssccccccsssscsccscccc" />
        </g>
        <path
           d="m 101.79938,176.89294 1.85356,-2.85384 c 0.1865,-0.28939 0.24437,-0.60129 0.17364,-0.93569 -0.0707,-0.33441 -0.25081,-0.59486 -0.5402,-0.78135 -0.28939,-0.1865 -0.60128,-0.24116 -0.93569,-0.16399 -0.3344,0.0707 -0.59485,0.24759 -0.78135,0.53055 l -1.872374,2.89938 c -0.05266,0.0752 -0.169869,0.36091 -0.205876,0.50571 -0.09384,0.57307 0.149566,1.02453 0.459676,1.21903 0.651744,0.52805 1.502804,0.16505 1.848614,-0.4198 z"
           style="font-size:19.7556px;line-height:1.25;font-family:Königsberg;-inkscape-font-specification:Königsberg;stroke-width:0.264583"
           id="path367-1-9"
           sodipodi:nodetypes="ccssccccccc" />
        <path
           sodipodi:nodetypes="ccssccccccc"
           id="path367-1-9-5"
           style="font-size:19.7556px;line-height:1.25;font-family:Königsberg;-inkscape-font-specification:Königsberg;stroke-width:0.264583"
           d="m 107.07609,168.58135 1.85355,-2.85384 c 0.1865,-0.28939 0.24438,-0.60129 0.17364,-0.93569 -0.0707,-0.33441 -0.2508,-0.59486 -0.54019,-0.78135 -0.28939,-0.1865 -0.60129,-0.24116 -0.93569,-0.16399 -0.33441,0.0707 -0.59486,0.24759 -0.78136,0.53055 l -1.87237,2.89938 c -0.0527,0.0752 -0.16986,0.36091 -0.20587,0.50571 -0.0938,0.57307 0.14956,1.02453 0.45967,1.21903 0.65175,0.52805 1.50281,0.16505 1.84862,-0.4198 z" />
        <g
           style="font-style:normal;font-variant:normal;font-weight:normal;font-stretch:normal;font-size:19.7556px;line-height:1.25;font-family:Königsberg;-inkscape-font-specification:Königsberg;stroke-width:0.264583"
           id="text171"
           aria-label="b">
          <path
             id="path143"
             style="font-style:normal;font-variant:normal;font-weight:normal;font-stretch:normal;font-family:Königsberg;-inkscape-font-specification:Königsberg;stroke-width:0.264583"
             d="m 67.814072,130.0811 v -3.19292 h 3.839224 q 0.646301,0 1.109323,0.47267 0.463022,0.46302 0.463022,1.11897 0,0.65594 -0.463022,1.12861 -0.463022,0.46302 -1.11897,0.47267 z m 4.900315,-7.22507 q 0,0.61736 -0.434083,1.06109 -0.434083,0.44373 -1.051445,0.44373 h -3.414787 v -3.00964 h 3.414787 q 0.617362,0.01 1.051445,0.44373 0.434083,0.44373 0.434083,1.06109 z m 1.562699,2.53697 q 0.916398,-1.10932 0.916398,-2.53697 0,-1.63022 -1.157555,-2.79742 -1.157555,-1.17685 -2.787778,-1.1865 h -4.418 -0.06752 l -0.05788,0.01 -0.06752,-0.01 h -0.05788 q -0.520899,0 -0.877812,0.36656 -0.366559,0.35691 -0.366559,0.87781 v 11.19934 q 0,0.5209 0.366559,0.87782 0.356913,0.36656 0.877812,0.36656 h 0.05788 l 0.06752,-0.01 0.05788,0.01 h 0.06752 4.86173 q 1.649515,-0.0193 2.836009,-1.21544 1.176847,-1.19614 1.176847,-2.86494 0,-1.86174 -1.427651,-3.08682 z" />
        </g>
        <g
           id="g200"
           transform="translate(59.266698)">
          <g
             style="font-style:normal;font-variant:normal;font-weight:normal;font-stretch:normal;font-size:19.7556px;line-height:1.25;font-family:Königsberg;-inkscape-font-specification:Königsberg;stroke-width:0.264583"
             id="text175"
             aria-label="o">
            <path
               sodipodi:nodetypes="ssscssssssscscssssss"
               id="path177"
               style="font-style:normal;font-variant:normal;font-weight:normal;font-stretch:normal;font-family:Königsberg;-inkscape-font-specification:Königsberg;stroke-width:0.264583"
               d="m 50.830944,141.4004 c -1.108537,0.31606 -2.100302,0.91159 -2.975294,1.78658 -1.376205,1.37621 -2.064306,3.03215 -2.064306,4.96784 0,1.94212 0.688102,3.59807 2.064306,4.96784 0.820402,0.82425 1.743525,1.40146 2.769173,1.73225 0.07066,0.0228 0.741505,0.27313 1.274595,-0.0577 0.192089,-0.11923 0.392196,-0.3049 0.488084,-0.62191 0.116121,-0.3839 0.026,-0.70232 -0.104015,-0.94565 -0.140268,-0.26251 -0.357825,-0.44584 -0.543673,-0.56446 -0.17558,-0.11207 -0.322856,-0.16639 -0.349915,-0.17515 -0.100793,-0.0326 -0.200095,-0.069 -0.297908,-0.10895 -0.542623,-0.22184 -1.039402,-0.55665 -1.490362,-1.00436 -0.887459,-0.89389 -1.331188,-1.96784 -1.331188,-3.22186 0,-1.25402 0.443729,-2.32476 1.331188,-3.21221 0.521551,-0.5178 1.104417,-0.88449 1.748548,-1.10022 0.06883,-0.0231 0.729304,-0.20478 0.963854,-0.87577 0.06661,-0.19056 0.121453,-0.42358 0.07347,-0.69762 -0.04055,-0.2316 -0.152907,-0.39984 -0.258647,-0.53158 -0.454407,-0.56616 -1.297911,-0.36574 -1.297911,-0.33702 z" />
          </g>
          <path
             d="m 55.002393,141.4004 c 1.108537,0.31606 2.100302,0.91159 2.975294,1.78658 1.376205,1.37621 2.064306,3.03215 2.064306,4.96784 0,1.94212 -0.688102,3.59807 -2.064306,4.96784 -0.820402,0.82425 -1.743525,1.40146 -2.769173,1.73225 -0.06556,0.0211 -0.647805,0.23818 -1.157305,0.005 -0.237498,-0.10865 -0.489597,-0.30447 -0.605374,-0.68477 -0.133658,-0.43903 -0.0045,-0.79048 0.164156,-1.04673 0.287932,-0.43755 0.781575,-0.62173 0.833447,-0.63853 0.659943,-0.21375 1.25602,-0.58489 1.78827,-1.11331 0.887459,-0.89389 1.331188,-1.96784 1.331188,-3.22186 0,-1.25402 -0.443729,-2.32476 -1.331188,-3.21221 -0.521551,-0.5178 -1.104417,-0.88449 -1.748548,-1.10022 -0.06186,-0.0207 -0.601554,-0.16959 -0.880513,-0.68656 -0.119598,-0.22165 -0.226384,-0.51584 -0.156812,-0.88683 0.07695,-0.41034 0.309166,-0.63652 0.527414,-0.76874 0.432864,-0.26224 1.029144,-0.12339 1.029144,-0.0999 z"
             style="font-style:normal;font-variant:normal;font-weight:normal;font-stretch:normal;font-size:19.7556px;line-height:1.25;font-family:Königsberg;-inkscape-font-specification:Königsberg;stroke-width:0.264583"
             id="path177-3"
             sodipodi:nodetypes="ssscssssscscssssss" />
        </g>
        <g
           id="g271"
           transform="translate(63.681989,-24.214931)">
          <g
             id="g277">
            <path
               sodipodi:nodetypes="ssscssssscscssssss"
               id="path177-0"
               style="font-style:normal;font-variant:normal;font-weight:normal;font-stretch:normal;font-size:19.7556px;line-height:1.25;font-family:Königsberg;-inkscape-font-specification:Königsberg;stroke-width:0.264583"
               d="m 19.243495,143.13011 c -1.108521,0.31612 -2.100302,0.91159 -2.975294,1.78658 -1.376205,1.37621 -2.064306,3.03215 -2.064306,4.96784 0,1.94212 0.688102,3.59807 2.064306,4.96784 0.820402,0.82425 1.743525,1.40146 2.769173,1.73225 0.07719,0.0249 0.870708,0.32137 1.418367,-0.16509 0.134278,-0.11928 0.273104,-0.27889 0.344312,-0.51457 0.08694,-0.28773 0.04826,-0.54128 -0.02015,-0.74973 -0.214399,-0.65328 -0.915099,-0.91533 -0.977453,-0.93553 -0.659943,-0.21375 -1.25602,-0.58489 -1.78827,-1.11331 -0.887459,-0.89389 -1.331188,-1.96784 -1.331188,-3.22186 0,-1.25402 0.443729,-2.32476 1.331188,-3.21221 0.521551,-0.5178 1.104417,-0.88449 1.748548,-1.10022 0.06797,-0.0228 0.712837,-0.20025 0.954833,-0.85077 0.07267,-0.19534 0.133542,-0.43665 0.08249,-0.72262 -0.04648,-0.26034 -0.175824,-0.44224 -0.298937,-0.57898 -0.456713,-0.50726 -1.159842,-0.3175 -1.257621,-0.28962 z" />
            <path
               sodipodi:nodetypes="cssssscssscc"
               id="path177-3-7"
               style="font-style:normal;font-variant:normal;font-weight:normal;font-stretch:normal;font-size:19.7556px;line-height:1.25;font-family:Königsberg;-inkscape-font-specification:Königsberg;stroke-width:0.264583"
               d="m 25.676811,155.46515 c -0.392619,0.25911 -1.418323,0.91394 -2.055746,1.11947 -0.06902,0.0223 -0.710488,0.26155 -1.23701,-0.0355 -0.20686,-0.1167 -0.423293,-0.30667 -0.525669,-0.64416 -0.121371,-0.40011 -0.02033,-0.72862 0.120932,-0.97628 0.278537,-0.48835 0.822098,-0.6913 0.876671,-0.70898 0.485112,-0.15718 1.001415,-0.465 1.417539,-0.79217 0.351814,-0.27901 0.697244,-0.4067 1.01038,-0.42144 0.453658,-0.0214 0.874173,0.17219 1.07885,0.53042 0.146547,0.25649 0.172071,0.55027 0.139538,0.78999 -0.05418,0.39924 -0.30432,0.7321 -0.631095,0.99557 -0.06488,0.0537 -0.136353,0.10072 -0.19439,0.14308 z" />
            <path
               d="m 25.683825,144.31035 c -0.392619,-0.25911 -1.418323,-0.91394 -2.055746,-1.11947 -0.06902,-0.0223 -0.710488,-0.26155 -1.23701,0.0355 -0.20686,0.1167 -0.423293,0.30667 -0.525669,0.64416 -0.121371,0.40011 -0.02033,0.72862 0.120932,0.97628 0.278537,0.48835 0.822098,0.6913 0.876671,0.70898 0.485112,0.15718 1.001415,0.465 1.417539,0.79217 0.351814,0.27901 0.697244,0.4067 1.01038,0.42144 0.453658,0.0214 0.874173,-0.17219 1.07885,-0.53042 0.146547,-0.25649 0.172071,-0.55027 0.139538,-0.78999 -0.05418,-0.39924 -0.304321,-0.7321 -0.631096,-0.99557 -0.06488,-0.0537 -0.136353,-0.10072 -0.194389,-0.14308 z"
               style="font-style:normal;font-variant:normal;font-weight:normal;font-stretch:normal;font-size:19.7556px;line-height:1.25;font-family:Königsberg;-inkscape-font-specification:Königsberg;stroke-width:0.264583"
               id="path177-3-7-2"
               sodipodi:nodetypes="cssssscssscc" />
          </g>
        </g>
        <path
           id="path333-1"
           style="font-size:19.7556px;line-height:1.25;font-family:Königsberg;-inkscape-font-specification:Königsberg;stroke-width:0.264583"
           d="m 138.60386,128.27225 h 1.77334 c 0.34083,0 0.63344,-0.12219 0.87781,-0.36656 0.23794,-0.24437 0.35691,-0.53697 0.35691,-0.87781 0,-0.34083 -0.11897,-0.63344 -0.35691,-0.87781 -0.24437,-0.23794 -0.53698,-0.35691 -0.87781,-0.35691 h -1.96414 c -0.0737,-5.5e-4 -0.46337,0.0235 -0.78471,0.25157 -0.24743,0.17564 -0.45437,0.47229 -0.44545,0.97189 0.008,0.46538 0.19296,0.76311 0.41354,0.95129 0.29869,0.25684 0.6389,0.30434 1.00742,0.30434 z"
           sodipodi:nodetypes="cscscscsscc" />
        <path
           id="path337-3"
           style="font-size:19.7556px;line-height:1.25;font-family:Königsberg;-inkscape-font-specification:Königsberg;stroke-width:0.264583"
           d="m 160.46829,131.33306 c 0,0.34727 0.12219,0.63987 0.36656,0.87782 0.24437,0.24437 0.53697,0.36656 0.87781,0.36656 0.34083,0 0.63344,-0.12219 0.87781,-0.36656 0.23794,-0.23795 0.35691,-0.53055 0.35691,-0.87782 v -11.19934 c 0,-0.34727 -0.11897,-0.63987 -0.35691,-0.87781 -0.24437,-0.24437 -0.53698,-0.36656 -0.87781,-0.36656 -0.34084,0 -0.63344,0.12219 -0.87781,0.36656 -0.24437,0.23794 -0.36656,0.53054 -0.36656,0.87781 z"
           sodipodi:nodetypes="ccssssssccc" />
      </g>
      <g
         aria-label="1 2 3 4 5 6 7 8 9 0"
         id="text682"
         style="font-size:182.857px;line-height:1.25;font-family:Königsberg;-inkscape-font-specification:Königsberg;letter-spacing:-8.45px;stroke-width:2.44898"
         transform="matrix(0.50790168,0,0,0.50790168,89.14543,211.23243)">
        <path
           d="m 311.68612,751.82101 q -4.82142,0 -8.12499,3.39285 -3.39286,3.30357 -3.39286,8.125 0,4.55356 3.21429,7.85713 3.12499,3.30357 7.76785,3.57143 v 92.23207 q 0,4.82142 3.30357,8.12499 3.39285,3.39285 8.12499,3.39285 4.73214,0 8.12499,-3.39285 3.39286,-3.30357 3.39286,-8.12499 V 763.33886 q 0,-4.82143 -3.39286,-8.125 -3.39285,-3.39285 -8.12499,-3.39285 z"
           style="stroke-width:2.44898"
           id="path813" />
        <path
           d="m 402.28603,855.57092 30.62498,-41.33925 q -0.0893,0.17857 -0.26786,0.44643 l 0.26786,-0.44643 q 11.07142,-14.82141 8.21428,-32.41069 -2.67857,-16.24998 -15.98213,-25.53569 -13.57142,-9.46428 -30.71426,-6.16071 -17.14285,3.30357 -27.58927,17.4107 -2.85714,3.83928 -2.14285,8.48214 0.625,4.73214 4.46428,7.58928 3.83928,2.85714 8.48214,2.14285 4.73214,-0.71428 7.58928,-4.55357 4.99999,-6.69642 12.85713,-8.48213 7.85714,-1.78571 13.92856,2.41071 5.35714,3.75 6.42857,10.35714 1.33928,7.94642 -3.92857,14.99998 l 0.26785,-0.26785 q -0.71428,0.98214 -33.21425,44.64282 l -11.33928,15.35713 q -4.19643,5.62499 -1.07143,11.96427 3.21428,6.33928 10.26785,6.33928 h 53.57139 q 4.73213,0 8.12499,-3.39285 3.30357,-3.30357 3.30357,-8.12499 0,-4.73214 -3.30357,-8.125 -3.39286,-3.30357 -8.12499,-3.30357 z"
           style="stroke-width:2.44898"
           id="path815" />
        <path
           d="m 486.04199,760.57595 c -3.54963,3.43551 -6.85267,7.77375 -8.87031,12.49504 -1.19048,2.91667 -1.19048,5.86309 0,8.83928 1.19047,2.91667 3.24404,5 6.16071,6.24999 2.91666,1.19048 5.83332,1.19048 8.74999,0 2.91667,-1.19047 5,-3.24404 6.24999,-6.1607 0.81929,-2.68582 2.86706,-6.15732 4.83644,-7.91794 7.27899,-6.6598 8.24506,-19.11185 -0.63635,-21.44582 -5.73951,-1.48619 -12.366,4.05066 -16.49047,7.94015 z m 16.08355,93.3251 c -2.15453,-1.69423 -3.80583,-3.84592 -4.95388,-6.45513 -1.19047,-2.91667 -3.2738,-4.97024 -6.24999,-6.16071 -2.91667,-1.19047 -5.83333,-1.16071 -8.75,0.0893 -2.91666,1.25 -4.97023,3.33333 -6.16071,6.24999 -1.19047,2.97619 -1.16071,5.92261 0.0893,8.83928 3.03571,7.20237 7.79761,12.94642 14.2857,17.23213 2.47586,1.64307 5.00622,3.07112 7.69567,3.99726 0.86359,0.29739 9.43134,4.66073 11.84529,-6.70654 0.9155,-4.31107 0.17336,-7.17902 -1.07305,-9.74847 -2.2499,-4.63811 -6.53333,-7.18377 -6.72833,-7.33711 z m 22.99187,24.13274 c 5.29232,-1.87427 10.08419,-4.95713 14.37565,-9.24859 7.61905,-7.61905 11.42857,-16.7857 11.42857,-27.49998 0,-10.89285 -3.89881,-20.14879 -11.69642,-27.76783 h -10e-6 c 6.84523,-7.2619 10.26785,-15.86308 10.26785,-25.80355 0,-9.3842 -3.02968,-17.54675 -9.08904,-24.48766 -2.13866,-2.77873 -4.64746,-5.16997 -7.20518,-6.98381 -3.56483,-2.4164 -9.01504,-4.76686 -13.00543,-4.7664 -9.65301,0.92153 -10.24915,12.78476 -5.2862,18.18754 2.53314,2.20241 5.05913,4.76644 7.1162,7.09036 2.62018,2.97933 4.47306,6.04085 4.52324,10.95997 0,3.86904 -1.33929,7.23213 -4.01786,10.08927 -2.61905,2.79762 -5.86309,4.31548 -9.73213,4.55357 h -0.89286 c -3.39285,0 -6.24999,1.27976 -8.57142,3.83928 -1.48809,1.66667 -2.41071,3.63095 -2.76786,5.89286 -0.35714,2.2619 -0.0595,4.40475 0.89286,6.42856 2.02381,4.58333 5.50595,6.875 10.44642,6.875 l 0.44643,-0.0893 h 0.44643 c 4.22619,0.23809 7.79761,1.90476 10.71427,5 2.97619,3.03571 4.46429,6.69642 4.46429,10.98213 0,4.40476 -1.57738,8.15476 -4.73214,11.24999 -1.15544,1.17766 -2.40626,2.13552 -3.75249,2.87356 -0.50264,0.27556 -4.24748,2.80545 -5.90473,7.95504 -0.68932,2.14191 -1.08817,4.14038 -0.44131,7.54571 1.5738,8.28516 7.19503,8.60202 11.97287,7.12428 z"
           style="stroke-width:2.44898"
           id="path817"
           sodipodi:nodetypes="ccccsccccsccscccsssscsssssccccccccscscccccscsssc" />
        <path
           d="m 647.59295,819.20453 v 20.65212 h -30.62497 c 9.34595,-18.37711 40.85836,-59.04826 48.63397,-68.98396 5.07249,-6.44752 4.22582,-16.20744 -3.00901,-18.51597 -2.32143,-0.77381 -4.67262,-0.77381 -7.05357,0 -2.38095,0.77381 -4.28571,2.14286 -5.71428,4.10714 L 585.093,844.58879 c -2.79761,3.75 -3.15476,7.73809 -1.07143,11.96428 2.14286,4.22619 5.56548,6.33928 10.26785,6.33928 h 53.30353 v 4.10714 c 0,3.21428 1.10119,5.92261 3.30357,8.12499 2.2619,2.2619 4.97023,3.39285 8.12499,3.39285 3.21429,0 5.92262,-1.13095 8.125,-3.39285 2.2619,-2.20238 3.39285,-4.91071 3.39285,-8.12499 v -4.10714 h 1.875 c 3.15476,0 5.86309,-1.13095 8.12499,-3.39286 2.20238,-2.2619 3.30357,-4.97023 3.30357,-8.12499 0,-3.15476 -1.10119,-5.86309 -3.30357,-8.12499 -2.2619,-2.26191 -4.97023,-3.39286 -8.12499,-3.39286 h -1.875 v -21.43132 c 0.86867,-8.62772 -6.07598,-12.81598 -11.47321,-12.72703 -5.58353,0.092 -11.4732,3.94533 -11.4732,13.50623 z"
           style="stroke-width:2.44898"
           id="path819"
           sodipodi:nodetypes="cccccscccscssscscscscsccsc" />
        <path
           d="m 739.08572,774.94599 h 37.3214 c 3.15476,0 5.86309,-1.13095 8.12499,-3.39286 2.26191,-2.2619 3.39286,-4.97023 3.39286,-8.12499 0,-3.15476 -1.13095,-5.86309 -3.39286,-8.12499 -2.2619,-2.26191 -4.97023,-3.39286 -8.12499,-3.39286 h -48.74996 c -3.21429,0 -5.92262,1.13095 -8.12499,3.39286 -2.26191,2.2619 -3.39286,4.97023 -3.39286,8.12499 v 43.48211 c 0,3.15476 1.13095,5.86309 3.39286,8.12499 2.20237,2.26191 4.9107,3.39286 8.12499,3.39286 5.30478,-0.36181 8.42319,-2.60971 10.03508,-6.95025 1.22465,-3.32639 1.32044,-6.44109 1.34452,-9.95087 0.0733,-8.70619 0.0356,-17.74561 0.049,-26.58099 z m 27.05355,49.01782 c 3.77988,3.71987 5.625,8.2738 5.625,13.57141 0,5.23809 -1.875,9.73214 -5.625,13.48214 -3.69047,3.74999 -8.18452,5.62499 -13.48213,5.62499 -3.45238,0 -6.66666,-0.89286 -9.64285,-2.67857 -3.03571,-1.72619 -5.3869,-4.10714 -7.05357,-7.14285 -1.54761,-2.73809 -3.83928,-4.52381 -6.87499,-5.35714 -3.09523,-0.89285 -6.0119,-0.56547 -8.74999,0.98214 -2.79762,1.54762 -4.6131,3.86905 -5.44643,6.96428 -0.83333,3.03571 -0.47619,5.92262 1.07143,8.66071 3.69047,6.66666 8.83928,11.90475 15.44642,15.71427 6.54761,3.86905 13.63094,5.80357 21.24998,5.80357 11.60713,0 21.51784,-4.10714 29.73212,-12.32142 8.21428,-8.21428 12.32142,-18.12499 12.32142,-29.73212 0,-11.60713 -4.13686,-21.48823 -12.32142,-29.73211 -4.44412,-4.47633 -9.38479,-7.74175 -14.82202,-9.79628 -5.50352,-2.24871 -12.44102,-2.25067 -16.21305,1.06434 -3.33516,2.93107 -4.64849,6.68502 -4.62341,9.88514 1.5174,7.86818 6.44038,7.97776 11.98008,10.20893 2.8705,1.16878 5.52399,2.95149 7.42841,4.79857 z"
           style="stroke-width:2.44898"
           id="path821"
           sodipodi:nodetypes="csssssscssccccccccscccccccssscscsccc" />
        <path
           d="m 861.00627,790.68762 c 5.85719,-7.83702 13.42292,-13.61994 22.6972,-17.34877 2.91667,-1.19048 5,-3.27381 6.24999,-6.25 1.19048,-2.91666 1.19048,-5.83332 0,-8.74999 -1.19047,-2.91667 -3.24404,-5 -6.1607,-6.24999 -2.91667,-1.25 -5.83333,-1.27977 -8.75,-0.0893 -20.41665,8.33333 -34.8214,23.06546 -43.21425,44.19639 -2.85714,7.20237 -4.88095,14.85118 -6.07142,22.94641 -0.47619,2.91667 -0.80357,5.80357 -0.98214,8.66071 -0.0595,1.07143 -0.11906,2.14285 -0.17858,3.21428 v 2.41071 2.5 0.89286 c 0,0.29762 0.0298,0.53571 0.0893,0.71428 l -0.0893,0.0893 c 0,11.48809 4.01786,21.30951 12.05357,29.46426 7.97618,8.15475 17.58927,12.23213 28.83926,12.23213 11.24999,0 20.89284,-4.07738 28.92855,-12.23213 7.97618,-8.15475 11.96427,-17.97617 11.96427,-29.46426 0,-11.54761 -3.98809,-21.39879 -11.96427,-29.55355 -10.26325,-10.68048 -27.74652,-13.0232 -31.28883,-2.01983 -3.09465,11.13494 9.00016,13.99325 9.76902,14.36272 1.90618,0.91598 3.66278,2.21835 5.26982,3.9071 3.5119,3.69047 5.26785,8.12499 5.26785,13.30356 0,5.17857 -1.75595,9.58332 -5.26785,13.21427 -3.5119,3.69047 -7.73809,5.53571 -12.67856,5.53571 -4.94047,0 -9.16666,-1.84524 -12.67856,-5.53571 -2.75267,-2.89504 -4.40795,-6.28202 -4.96585,-10.16093 -3.51076,-20.20008 6.19134,-40.33905 13.16148,-49.99023 z"
           style="stroke-width:2.44898"
           id="path823"
           sodipodi:nodetypes="cccsssccccccscccscsccssscsccc" />
        <path
           d="m 947.78555,751.82101 q -4.82143,0 -8.125,3.30357 -3.39285,3.39285 -3.39285,8.12499 0,4.73214 3.39285,8.12499 3.30357,3.39286 8.125,3.39286 h 40.71425 l -28.39283,88.74993 q -1.42857,4.55356 0.80357,8.74999 2.14285,4.19642 6.69642,5.71428 4.46428,1.42857 8.74999,-0.80357 4.19643,-2.14286 5.625,-6.69642 l 33.21425,-103.74992 q 1.7857,-5.53571 -1.6964,-10.26785 -3.3929,-4.64285 -9.2857,-4.64285 z"
           style="stroke-width:2.44898"
           id="path825" />
        <path
           d="m 1098.3223,833.36307 c 1.8318,2.66191 2.4738,5.29905 2.4738,8.45787 0,4.22619 -1.5179,7.85713 -4.5536,10.89284 -3.0357,3.03571 -6.6964,4.55357 -10.9821,4.55357 -4.2262,0 -7.8572,-1.51786 -10.8929,-4.55357 -3.0357,-3.03571 -4.5535,-6.66665 -4.5535,-10.89284 0,-3.62432 0.2147,-6.00116 3.2565,-9.53207 6.8698,-7.09701 8.8208,-9.07197 9.5048,-17.78168 0.3478,-7.7338 -3.8373,-12.53337 -8.5471,-17.38191 -2.2738,-2.66344 -3.4107,-5.80059 -3.4107,-9.41144 0,-4.04762 1.4286,-7.5 4.2857,-10.35714 2.8572,-2.85714 6.3096,-4.28571 10.3572,-4.28571 4.0476,0 7.5,1.42857 10.3571,4.28571 2.9167,2.85714 4.375,6.30952 4.375,10.35714 0,3.60358 -1.1559,6.73535 -3.4677,9.39533 -6.3257,6.08269 -3.4885,10.8282 -3.3289,17.36306 0.1752,7.17921 0.6917,12.88891 5.1264,18.89084 z m 13.6345,-19.1314 c 7.3214,-7.38095 10.9821,-16.22022 10.9821,-26.51783 0,-10.35714 -3.6905,-19.22618 -11.0714,-26.60713 -7.3214,-7.32142 -16.1904,-10.98213 -26.6071,-10.98213 -10.3571,0 -19.1964,3.66071 -26.5179,10.98213 -7.3809,7.38095 -11.0714,16.24999 -11.0714,26.60713 0,10.29761 3.631,19.13688 10.8929,26.51783 -7.7976,7.55952 -11.6964,16.75594 -11.6964,27.58927 0,10.59523 3.75,19.64284 11.2499,27.14283 7.5,7.49999 16.5476,11.24999 27.1429,11.24999 10.5952,0 19.6726,-3.75 27.2321,-11.24999 7.5,-7.49999 11.25,-16.5476 11.25,-27.14283 0,-10.83333 -3.9286,-20.02975 -11.7857,-27.58927 z"
           style="stroke-width:2.44898"
           id="path827"
           sodipodi:nodetypes="cssssscccssscscsccssssscssscsc" />
        <path
           d="m 1348.0673,838.16022 v 0.26786 -0.0893 z m 0,-46.16067 v 0.35714 -0.44643 z m 0,-0.44643 v -0.0893 0.44643 z"
           style="stroke-width:2.44898"
           id="path831"
           sodipodi:nodetypes="cccccccccccc" />
      </g>
    </g>
    <path
       d="m 653.81949,597.7998 c 3.74878,3.74879 5.62319,8.2534 5.62319,13.51381 0,5.23017 -1.84419,9.71964 -5.53253,13.46845 3.96042,3.83948 5.94062,8.51038 5.94062,14.01264 0,5.38132 -1.90462,9.97663 -5.71384,13.78588 -3.80926,3.80927 -8.40455,5.71389 -13.78591,-0.11337 2.14648,-5.82726 3.99068,-6.59818 5.53251,-8.14002 1.54184,-1.54184 2.31272,-3.386 2.31272,-5.53249 0,-1.84081 -0.10904,-3.04801 -1.65397,-4.84136 -3.48919,-3.60458 -4.4801,-4.60767 -4.82751,-9.03135 -0.17664,-3.928 1.94897,-6.36572 4.34109,-8.82831 1.15487,-1.35275 1.7323,-2.94611 1.7323,-4.78007 0,-2.0558 -0.72559,-3.80927 -2.17671,-5.26041 -1.45117,-1.45115 -3.20466,-2.17673 -5.26043,-8.00398 5.26037,-5.82726 9.74987,-3.96799 13.46847,-0.24942 z"
       style="font-size:182.857px;line-height:1.25;font-family:Königsberg;-inkscape-font-specification:Königsberg;letter-spacing:-8.45px;stroke-width:1.24384"
       id="path827-5"
       sodipodi:nodetypes="sscsscsscccsscs" />
    <path
       d="m 698.03101,637.28431 c -2.97488,3.98043 -6.8175,6.91759 -11.52795,8.81147 -1.48139,0.60464 -2.5395,1.66277 -3.17437,3.17437 -0.60466,1.48138 -0.60466,2.96276 0,4.44414 0.60465,1.4814 1.64768,2.53951 3.12902,3.1744 1.48141,0.63487 2.96275,0.64999 4.44414,0.0453 10.36968,-4.23252 17.68584,-11.715 21.94862,-22.44743 1.45112,-3.65809 2.47901,-7.54294 3.08367,-11.65452 0.24186,-1.48139 0.40815,-2.94764 0.49882,-4.39879 0.0305,-0.54418 0.0605,-1.08835 0.0907,-1.63253 v -1.22441 -1.26975 -0.45348 c 0,-0.15116 -0.0152,-0.27209 -0.0452,-0.3628 l 0.0452,-0.0453 c 0,-5.83484 -2.0407,-10.82315 -6.12204,-14.96495 -4.05113,-4.14181 -8.93359,-6.21272 -14.64748,-6.21272 -5.7139,0 -10.61155,2.07091 -14.69289,6.21272 -4.05112,4.1418 -6.07663,9.13011 -6.07663,14.96495 0,5.86505 2.02551,10.86847 6.07663,15.01028 5.21275,5.42464 14.09249,6.61452 15.89169,1.02587 1.57174,-5.65544 -4.57122,-7.10718 -4.96174,-7.29483 -0.96812,-0.46524 -1.86029,-1.12671 -2.67655,-1.98443 -1.78369,-1.8744 -2.67552,-4.12669 -2.67552,-6.75689 0,-2.63021 0.89183,-4.8674 2.67552,-6.71156 1.7837,-1.87439 3.9302,-2.81158 6.43949,-2.81158 2.50924,0 4.65573,0.93719 6.43943,2.81158 1.3981,1.4704 2.23883,3.19066 2.5222,5.16076 1.78308,10.25964 -3.14464,20.48826 -6.68477,25.39012 z"
       style="font-size:182.857px;line-height:1.25;font-family:Königsberg;-inkscape-font-specification:Königsberg;letter-spacing:-8.45px;stroke-width:1.24384"
       id="path823-3"
       sodipodi:nodetypes="cccsssccccccscccscsccssscsccc" />
    <path
       d="m 761.39673,645.10484 c 0.55341,-0.39075 1.07852,-0.85524 1.57525,-1.39339 1.84413,-1.9651 2.78138,-4.33832 2.81159,-7.11969 v -22.94625 c -0.03,-2.75113 -0.96734,-5.09412 -2.81159,-7.02899 -0.51119,-0.55383 -1.05247,-1.02962 -1.62371,-1.42735 -0.12281,-0.0855 -0.68201,-0.44592 -1.38647,-1.02673 -0.85819,-0.70761 -1.93201,-1.74235 -2.69483,-3.00561 -2.97598,-6.07783 1.97799,-10.00034 6.98863,-7.78459 1.39663,0.64404 2.49725,1.41414 2.78788,1.59478 1.46016,0.90767 2.839,2.02458 4.13655,3.35075 4.11162,4.23252 6.19763,9.32665 6.25807,15.2824 v 23.03695 c -0.0604,5.98596 -2.1465,11.0952 -6.25807,15.32774 -1.30796,1.34642 -2.69853,2.47864 -4.17171,3.3968 -0.48925,0.30491 -3.72444,2.55675 -6.63674,1.66928 -2.6349,-1.06355 -3.60062,-3.31782 -3.11771,-5.91964 0.46433,-2.37266 2.13366,-4.56706 4.14286,-6.00646 z"
       style="font-size:182.857px;line-height:1.25;font-family:Königsberg;-inkscape-font-specification:Königsberg;letter-spacing:-8.45px;stroke-width:1.24384"
       id="path831-7"
       sodipodi:nodetypes="cccccssccscccssccc" />
    <path
       sodipodi:nodetypes="cccccssccscccssccc"
       id="path831-7-1"
       style="font-size:182.857px;line-height:1.25;font-family:Königsberg;-inkscape-font-specification:Königsberg;letter-spacing:-8.45px;stroke-width:1.24384"
       d="m 747.78922,645.13103 c -0.5534,-0.39073 -1.07852,-0.85523 -1.57525,-1.39337 -1.84413,-1.96509 -2.78138,-4.33832 -2.81159,-7.11969 v -22.94626 c 0.03,-2.75112 0.96735,-5.09412 2.81159,-7.02899 0.51121,-0.55382 1.05247,-1.02963 1.62372,-1.42734 0.12281,-0.0855 0.682,-0.44593 1.38647,-1.02672 0.85819,-0.70763 1.932,-1.74237 2.69482,-3.00562 2.97599,-6.07783 -1.97798,-10.00035 -6.98862,-7.7846 -1.39663,0.64406 -2.49726,1.41413 -2.78788,1.59479 -1.46016,0.90768 -2.83901,2.02457 -4.13655,3.35075 -4.11162,4.23252 -6.19763,9.32663 -6.25808,15.28238 v 23.03696 c 0.0604,5.98598 2.14651,11.09521 6.25808,15.32773 1.30795,1.34643 2.69853,2.47867 4.1717,3.39681 0.48925,0.30492 3.72444,2.55675 6.63675,1.66928 2.63489,-1.06355 3.60062,-3.3178 3.1177,-5.91962 -0.46432,-2.37268 -2.13365,-4.56706 -4.14286,-6.00649 z" />
    <path
       sodipodi:nodetypes="cccccssccscccssccc"
       id="path831-7-5"
       style="font-size:182.857px;line-height:1.25;font-family:Königsberg;-inkscape-font-specification:Königsberg;letter-spacing:-8.45px;stroke-width:1.24384"
       d="m 761.07777,605.09099 c 0.5534,0.39075 1.07853,0.85523 1.57526,1.39339 1.84414,1.9651 2.78135,4.33832 2.81159,7.11969 v 22.94624 c -0.03,2.75113 -0.96736,5.09413 -2.81159,7.02899 -0.51122,0.55383 -1.05249,1.02963 -1.62372,1.42735 -0.12281,0.0855 -0.68201,0.44593 -1.38647,1.02674 -0.8582,0.7076 -1.932,1.74235 -2.69482,3.00561 -2.97601,6.07783 1.97797,10.00035 6.98863,7.7846 1.39662,-0.64405 2.49725,-1.41414 2.78787,-1.59479 1.46016,-0.90767 2.83901,-2.02459 4.13655,-3.35076 4.11162,-4.23251 6.19761,-9.32664 6.25805,-15.28239 v -23.03695 c -0.0604,-5.98597 -2.14649,-11.09521 -6.25805,-15.32774 -1.30794,-1.34642 -2.69854,-2.47864 -4.17171,-3.39679 -0.48925,-0.30493 -3.72444,-2.55676 -6.63673,-1.66929 -2.63491,1.06354 -3.60063,3.31782 -3.11772,5.91963 0.46433,2.37267 2.13364,4.56707 4.14286,6.00647 z" />
    <path
       d="m 747.80498,605.19725 c -0.55342,0.39074 -1.07853,0.85524 -1.57526,1.39338 -1.84415,1.9651 -2.78138,4.33833 -2.81159,7.11969 v 22.94625 c 0.03,2.75115 0.96734,5.09414 2.81159,7.02899 0.51119,0.55383 1.05246,1.02963 1.62371,1.42734 0.12281,0.0855 0.682,0.44594 1.38646,1.02674 0.85821,0.70761 1.93201,1.74236 2.69483,3.00562 2.976,6.07783 -1.97797,10.00035 -6.98863,7.78459 -1.39662,-0.64404 -2.49724,-1.41412 -2.78786,-1.59479 -1.46016,-0.90766 -2.83903,-2.02457 -4.13656,-3.35075 -4.11161,-4.23251 -6.19762,-9.32663 -6.25807,-15.28239 v -23.03695 c 0.0604,-5.98597 2.14651,-11.0952 6.25807,-15.32774 1.30795,-1.34643 2.69853,-2.47866 4.1717,-3.39679 0.48927,-0.30493 3.72444,-2.55676 6.63676,-1.66929 2.63489,1.06355 3.60061,3.31781 3.1177,5.91962 -0.46433,2.37267 -2.13365,4.56708 -4.14285,6.00648 z"
       style="font-size:182.857px;line-height:1.25;font-family:Königsberg;-inkscape-font-specification:Königsberg;letter-spacing:-8.45px;stroke-width:1.24384"
       id="path831-7-5-4"
       sodipodi:nodetypes="cccccssccscccssccc" />
  </g>
</svg>
