<?xml version="1.0" encoding="UTF-8" standalone="no"?>
<svg
   xmlns:dc="http://purl.org/dc/elements/1.1/"
   xmlns:cc="http://creativecommons.org/ns#"
   xmlns:rdf="http://www.w3.org/1999/02/22-rdf-syntax-ns#"
   xmlns:svg="http://www.w3.org/2000/svg"
   xmlns="http://www.w3.org/2000/svg"
   xmlns:sodipodi="http://sodipodi.sourceforge.net/DTD/sodipodi-0.dtd"
   xmlns:inkscape="http://www.inkscape.org/namespaces/inkscape"
   sodipodi:docname="p.svg"
   inkscape:version="1.0 (4035a4fb49, 2020-05-01)"
   id="svg2417"
   version="1.1"
   viewBox="0 0 210 297"
   height="297mm"
   width="210mm">
  <defs
     id="defs2411" />
  <sodipodi:namedview
     inkscape:window-maximized="0"
     inkscape:window-y="0"
     inkscape:window-x="104"
     inkscape:window-height="1040"
     inkscape:window-width="1513"
     showgrid="false"
     inkscape:document-rotation="0"
     inkscape:current-layer="layer1"
     inkscape:document-units="mm"
     inkscape:cy="560"
     inkscape:cx="400"
     inkscape:zoom="0.35"
     inkscape:pageshadow="2"
     inkscape:pageopacity="0.0"
     borderopacity="1.0"
     bordercolor="#666666"
     pagecolor="#ffffff"
     id="base" />
  <metadata
     id="metadata2414">
    <rdf:RDF>
      <cc:Work
         rdf:about="">
        <dc:format>image/svg+xml</dc:format>
        <dc:type
           rdf:resource="http://purl.org/dc/dcmitype/StillImage" />
        <dc:title></dc:title>
      </cc:Work>
    </rdf:RDF>
  </metadata>
  <g
     id="layer1"
     inkscape:groupmode="layer"
     inkscape:label="Слой 1">
    <path
       inkscape:export-ydpi="96"
       inkscape:export-xdpi="96"
       sodipodi:nodetypes="cscscsccscsssczccscsccccccc"
       id="path359-8"
       style="font-size:19.7556px;line-height:1.25;font-family:Königsberg;-inkscape-font-specification:Königsberg;stroke-width:0.264583"
       d="m 24.56976,31.136847 h -3.103411 c -0.34727,0 -0.63987,0.12219 -0.87781,0.36656 -0.24437,0.23794 -0.36656,0.53054 -0.36656,0.87781 0,0.34084 0.12219,0.63023 0.36656,0.86817 0.23794,0.24437 0.53054,0.36656 0.87781,0.36656 h 1.61371 c 0.747461,-0.0565 1.07476,0.62521 1.0776,1.049471 v 8.915139 c 0,0.34727 0.122191,0.63987 0.366561,0.87782 0.24437,0.24437 0.53698,0.36656 0.87781,0.36656 0.340839,0 0.63345,-0.12219 0.87782,-0.36656 0.23794,-0.23795 0.35691,-0.53055 0.35691,-0.87782 v -9.60679 c 0,0 0.0452,-1.72348 -0.408361,-2.23581 -0.453559,-0.51233 -1.05718,-0.60111 -1.658639,-0.60111 z m 4.01687,2.4791 h 0.75109 c 0.340829,0 0.63344,-0.12219 0.87781,-0.36656 0.244369,-0.23794 0.366559,-0.52733 0.366559,-0.86817 0,-0.34727 -0.12219,-0.63987 -0.366559,-0.87781 -0.24437,-0.24437 -0.536981,-0.36656 -0.87781,-0.36656 h -0.697881 c -0.601829,-0.0935 -1.06266,0.24417 -1.25281,0.51365 -0.288209,0.39233 -0.329529,1.01333 0.0899,1.4941 0.312579,0.34418 0.67231,0.47135 1.10968,0.47135 z" />
    <path
       inkscape:export-ydpi="96"
       inkscape:export-xdpi="96"
       sodipodi:nodetypes="ccsccccscssscscccccsccscc"
       id="path369-0"
       style="font-size:19.7556px;line-height:1.25;font-family:Königsberg;-inkscape-font-specification:Königsberg;stroke-width:0.264583"
       d="m 37.788772,36.648567 -3.08199,-4.93294 c -0.18007,-0.28939 -0.4373,-0.47267 -0.77171,-0.54984 -0.3344,-0.0772 -0.6463,-0.0257 -0.93569,0.15434 -0.28939,0.18649 -0.47267,0.44694 -0.54984,0.78135 -0.0772,0.32797 -0.0257,0.63987 0.15434,0.93569 l 4.26367,6.82957 v 3.71382 c 0,0.34727 0.12218,0.63987 0.36655,0.87782 0.24438,0.24437 0.53698,0.36656 0.87782,0.36656 0.34083,0 0.63344,-0.12219 0.87781,-0.36656 0.23795,-0.23795 0.35692,-0.53055 0.35692,-0.87782 v -3.41961 c 0,0 0.0917,-0.65124 -0.16851,-1.23691 -0.26023,-0.58566 -1.38937,-2.27547 -1.38937,-2.27547 z m 3.33898,0.46477 2.4922,-4.0762 c 0.18007,-0.29582 0.23151,-0.60772 0.15434,-0.93569 -0.0772,-0.33441 -0.26045,-0.59486 -0.54984,-0.78135 -0.28939,-0.18007 -0.60128,-0.23151 -0.93569,-0.15434 -0.3344,0.0772 -0.59163,0.26045 -0.7717,0.54984 l -2.55899,4.137421 c -0.25605,0.441749 -0.37447,1.189069 0.2249,1.744229 0.30929,0.28647 0.76725,0.34591 1.16882,0.21173 0.38965,-0.17196 0.57276,-0.36329 0.77596,-0.69564 z" />
    <path
       inkscape:export-ydpi="96"
       inkscape:export-xdpi="96"
       sodipodi:nodetypes="cssscccccscsscscccccscczc"
       id="path351-7"
       style="font-size:19.7556px;line-height:1.25;font-family:Königsberg;-inkscape-font-specification:Königsberg;stroke-width:0.264583"
       d="m 50.598189,40.918187 c 1.324761,-0.0129 2.45981,-0.498399 3.40514,-1.45659 0.94534,-0.9582 1.418011,-2.10289 1.418011,-3.43408 0,-1.33762 -0.47588,-2.48553 -1.42765,-3.44373 -0.94534,-0.95177 -2.086819,-1.43408 -3.424441,-1.44694 h -2.932471 -0.0675 l -0.0579,0.01 -0.0675,-0.01 h -0.0579 c -0.347271,0 -0.639871,0.12219 -0.877811,0.36656 -0.244368,0.23794 -0.366558,0.53054 -0.366558,0.87781 v 11.19934 c 0,0.34727 0.12219,0.63987 0.36656,0.87782 0.23794,0.24437 0.53054,0.36656 0.877811,0.36656 0.340828,0 0.630219,-0.12219 0.868159,-0.36656 0.244371,-0.23795 0.366561,-0.53055 0.366561,-0.87782 v -9.96461 h 1.93891 c 0.65595,0.007 1.21543,0.24461 1.678451,0.71382 0.46945,0.47589 0.70418,1.0418 0.70418,1.69775 0,0.65595 -0.23473,1.221861 -0.70418,1.69775 -0.463021,0.46945 -1.022501,0.70739 -1.678451,0.71382 0.113271,0.002 -1.27049,0.0852 -1.236481,1.26615 0.034,1.18093 1.255941,1.24162 1.27506,1.21295 z" />
    <path
       inkscape:export-ydpi="96"
       inkscape:export-xdpi="96"
       d="m 62.342977,31.258267 c -1.10853,0.31606 -2.100299,0.91159 -2.975287,1.78658 -1.376206,1.37621 -2.064306,3.03215 -2.064306,4.96784 0,1.94212 0.688102,3.59807 2.064306,4.96784 0.820399,0.82425 1.743527,1.40146 2.769169,1.73225 0.0707,0.0228 0.741511,0.27313 1.274598,-0.0577 0.192091,-0.11923 0.392192,-0.3049 0.488083,-0.62191 0.116117,-0.3839 0.02601,-0.70232 -0.104011,-0.94565 -0.140271,-0.26251 -0.35783,-0.44584 -0.543671,-0.56446 -0.175591,-0.11207 -0.32286,-0.16639 -0.349919,-0.17515 -0.100791,-0.0326 -0.200091,-0.069 -0.297911,-0.10895 -0.54262,-0.22184 -1.039399,-0.55665 -1.49036,-1.00436 -0.887461,-0.893889 -1.331188,-1.96784 -1.331188,-3.22186 0,-1.254019 0.443727,-2.32476 1.331188,-3.212209 0.521551,-0.517801 1.104421,-0.884491 1.748551,-1.100221 0.0688,-0.0231 0.729301,-0.20478 0.963848,-0.87577 0.0666,-0.19056 0.121463,-0.42358 0.0735,-0.69762 -0.0405,-0.2316 -0.1529,-0.39984 -0.258641,-0.53158 -0.454407,-0.56616 -1.297917,-0.36574 -1.297917,-0.33702 z"
       style="font-style:normal;font-variant:normal;font-weight:normal;font-stretch:normal;font-size:19.7556px;line-height:1.25;font-family:Königsberg;-inkscape-font-specification:Königsberg;stroke-width:0.264583"
       id="path177-2"
       sodipodi:nodetypes="ssscssssssscscssssss" />
    <path
       inkscape:export-ydpi="96"
       inkscape:export-xdpi="96"
       sodipodi:nodetypes="ssscssssscscssssss"
       id="path177-3-1"
       style="font-style:normal;font-variant:normal;font-weight:normal;font-stretch:normal;font-size:19.7556px;line-height:1.25;font-family:Königsberg;-inkscape-font-specification:Königsberg;stroke-width:0.264583"
       d="m 66.514427,31.258327 c 1.108541,0.31606 2.10031,0.91159 2.975301,1.78658 1.3762,1.37621 2.064299,3.03215 2.064299,4.967841 0,1.942119 -0.688099,3.598069 -2.064299,4.967839 -0.820399,0.82425 -1.74353,1.40146 -2.76918,1.73225 -0.0656,0.0211 -0.6478,0.23818 -1.157301,0.005 -0.237497,-0.10865 -0.489598,-0.30447 -0.605369,-0.68477 -0.133659,-0.43903 -0.004,-0.79048 0.16415,-1.04673 0.28793,-0.43755 0.781579,-0.62173 0.833451,-0.63853 0.65994,-0.21375 1.256019,-0.58489 1.788269,-1.11331 0.88746,-0.89389 1.33119,-1.96784 1.33119,-3.22186 0,-1.25402 -0.44373,-2.32476 -1.33119,-3.21221 -0.52155,-0.5178 -1.104419,-0.88449 -1.74855,-1.10022 -0.0619,-0.0207 -0.601548,-0.16959 -0.880509,-0.68656 -0.1196,-0.22165 -0.226391,-0.51584 -0.156811,-0.88683 0.0769,-0.41034 0.30916,-0.63652 0.52741,-0.76874 0.432861,-0.26224 1.029139,-0.12339 1.029139,-0.0999 z" />
    <path
       inkscape:export-ydpi="96"
       inkscape:export-xdpi="96"
       id="path335-0"
       style="font-size:19.7556px;line-height:1.25;font-family:Königsberg;-inkscape-font-specification:Königsberg;stroke-width:0.264583"
       d="m 82.830471,41.963527 c -0.567791,0.25536 -1.176182,0.38231 -1.824392,0.38231 -1.254009,0 -2.327969,-0.44373 -3.221861,-1.33119 -0.887449,-0.893889 -1.331179,-1.96784 -1.331179,-3.22186 0,-1.25401 0.44373,-2.32475 1.331179,-3.21221 0.893892,-0.88746 1.967852,-1.33119 3.221861,-1.33119 1.086821,0 2.048232,0.34727 2.884241,1.0418 0.2701,0.21865 0.575569,0.31189 0.9164,0.27974 0.340829,-0.0386 0.617361,-0.18972 0.82958,-0.453369 0.218649,-0.26367 0.311899,-0.565921 0.279739,-0.906751 -0.0321,-0.34084 -0.180038,-0.62058 -0.44372,-0.83923 -1.292608,-1.06752 -2.78135,-1.60128 -4.46624,-1.60128 -1.942119,0 -3.598069,0.68488 -4.967838,2.05465 -1.376201,1.37621 -2.0643,3.03215 -2.0643,4.96784 0,1.94212 0.688099,3.59807 2.0643,4.96784 1.369769,1.37621 3.025719,2.06431 4.967838,2.06431 1.73432,0 3.176611,-0.32342 4.478102,-1.42392 0.222289,-0.16866 0.387958,-0.4191 0.521258,-0.63806 0.226171,-0.44521 0.184721,-0.85271 0.02371,-1.15383 -0.256281,-0.47925 -0.646822,-0.5954 -1.115711,-0.61265 -0.537131,-0.0198 -0.944081,0.26461 -1.39709,0.59299 -0.234141,0.16024 -0.444111,0.27407 -0.685869,0.37406 z"
       sodipodi:nodetypes="cscscscccscssscsccsscc" />
    <path
       inkscape:export-ydpi="96"
       inkscape:export-xdpi="96"
       sodipodi:nodetypes="cscscscsscc"
       d="m 83.359637,40.376047 h 1.773338 c 0.340831,0 0.633442,-0.122189 0.877811,-0.366559 0.23794,-0.244371 0.35691,-0.53697 0.35691,-0.877811 0,-0.34083 -0.11897,-0.633439 -0.35691,-0.87781 -0.244369,-0.237939 -0.53698,-0.35691 -0.877811,-0.35691 h -1.964139 c -0.0737,-5.55e-4 -0.46337,0.0235 -0.784709,0.25157 -0.247431,0.17564 -0.454369,0.47229 -0.44545,0.97189 0.008,0.465381 0.19296,0.76311 0.413541,0.95129 0.298688,0.256841 0.6389,0.30434 1.007419,0.30434 z"
       style="font-size:19.7556px;line-height:1.25;font-family:Königsberg;-inkscape-font-specification:Königsberg;stroke-width:0.264583"
       id="path333-1-7" />
    <path
       inkscape:export-ydpi="96"
       inkscape:export-xdpi="96"
       sodipodi:nodetypes="ccccccccssscccccsssscscsccccsccc"
       id="path355-9"
       style="font-size:19.7556px;line-height:1.25;font-family:Königsberg;-inkscape-font-specification:Königsberg;stroke-width:0.264583"
       d="m 93.296763,40.429207 2.944381,3.9013 c 0.21222,0.2701 0.485529,0.43087 0.819939,0.48232 0.340831,0.045 0.649512,-0.0354 0.926041,-0.24116 0.2701,-0.20579 0.42766,-0.4791 0.472671,-0.81993 0.0515,-0.34084 -0.0289,-0.64631 -0.24116,-0.9164 l -2.237941,-2.97106 c 0.816721,-0.35369 1.47588,-0.90353 1.97749,-1.64951 0.50804,-0.76527 0.762061,-1.60772 0.762061,-2.52733 h -1.1e-5 c 0,-1.247589 -0.44051,-2.31511 -1.32154,-3.20257 -0.88746,-0.89389 -1.951771,-1.34405 -3.192921,-1.35048 h -3.66559 -0.0675 l -0.0579,0.01 -0.0675,-0.01 h -0.0579 c -0.347268,0 -0.639865,0.11897 -0.877805,0.35691 -0.244368,0.24437 -0.366555,0.53698 -0.366555,0.87782 v 11.20898 c 0,0.34727 0.122187,0.63987 0.366556,0.87782 0.23794,0.24437 0.530537,0.36656 0.877805,0.36656 0.340839,0 0.63023,-0.12219 0.86817,-0.36656 0.244369,-0.23795 0.366559,-0.53055 0.366559,-0.87782 v -2.92973 c -8e-6,-2.34496 -8e-6,-4.68992 -8e-6,-7.03488 h 2.672019 c 0.559491,0.007 1.0418,0.21245 1.44694,0.61736 0.398709,0.40515 0.59807,0.89068 0.59807,1.45659 0,0.56591 -0.199361,1.05144 -0.59807,1.45659 -0.40514,0.40515 -0.890669,0.61093 -1.456589,0.617361 -1.358191,0.0684 -1.819212,1.327769 -0.889712,2.667819 z" />
    <path
       inkscape:export-ydpi="96"
       inkscape:export-xdpi="96"
       sodipodi:nodetypes="sccccscccccccczccccs"
       id="path323-2"
       style="font-size:19.7556px;line-height:1.25;font-family:Königsberg;-inkscape-font-specification:Königsberg;stroke-width:0.264583"
       d="m 111.65198,44.739977 c 0.32154,0.12219 0.63665,0.11255 0.94533,-0.0289 0.31511,-0.14148 0.53377,-0.36978 0.65596,-0.68489 0.12219,-0.32154 0.11253,-0.63987 -0.0289,-0.95498 l -5.05467,-11.20899 c -0.19935,-0.48231 -0.57555,-0.72347 -1.1286,-0.72347 -0.55306,0 -0.92927,0.24116 -1.12862,0.72347 l -5.05466,11.20899 c -0.14148,0.31511 -0.15113,0.63344 -0.0289,0.95498 0.12218,0.31511 0.33762,0.54341 0.6463,0.68489 0.31512,0.14148 0.63344,0.15111 0.95498,0.0289 0.31511,-0.12219 0.54341,-0.33762 0.68489,-0.6463 l 0.75242,-1.65881 3.46036,0.0413 c 0.95176,0.0494 1.53555,-0.60048 1.47243,-1.32889 -0.0631,-0.728419 -0.56907,-1.192739 -1.48473,-1.17212 l -2.3291,-0.0194 2.05466,-4.5627 2.87961,6.34669 c 1.17826,2.7923 1.40977,2.87803 1.73133,3.00022 z" />
    <path
       inkscape:export-ydpi="96"
       inkscape:export-xdpi="96"
       sodipodi:nodetypes="cssscccccscsscscccccscczc"
       id="path351-6"
       style="font-size:19.7556px;line-height:1.25;font-family:Königsberg;-inkscape-font-specification:Königsberg;stroke-width:0.264583"
       d="m 120.05649,40.918187 c 1.32477,-0.0129 2.45981,-0.498399 3.40514,-1.45659 0.94535,-0.9582 1.41802,-2.10289 1.41802,-3.43408 0,-1.33762 -0.47588,-2.48553 -1.42765,-3.44373 -0.94534,-0.95177 -2.08683,-1.43408 -3.42445,-1.44694 h -2.93247 -0.0675 l -0.0579,0.01 -0.0675,-0.01 h -0.0579 c -0.34726,0 -0.63986,0.12219 -0.8778,0.36656 -0.24438,0.23794 -0.36657,0.53054 -0.36657,0.87781 v 11.19934 c 0,0.34727 0.12219,0.63987 0.36657,0.87782 0.23793,0.24437 0.53054,0.36656 0.8778,0.36656 0.34083,0 0.63022,-0.12219 0.86816,-0.36656 0.24437,-0.23795 0.36656,-0.53055 0.36656,-0.87782 v -9.96461 h 1.93892 c 0.65595,0.007 1.21543,0.24461 1.67845,0.71382 0.46944,0.47589 0.70417,1.0418 0.70417,1.69775 0,0.65595 -0.23473,1.221861 -0.70417,1.69775 -0.46302,0.46945 -1.0225,0.70739 -1.67845,0.71382 0.11326,0.002 -1.2705,0.0852 -1.23648,1.26615 0.034,1.18093 1.25594,1.24162 1.27505,1.21295 z" />
    <path
       inkscape:export-ydpi="96"
       inkscape:export-xdpi="96"
       id="path337-7"
       style="font-size:19.7556px;line-height:1.25;font-family:Königsberg;-inkscape-font-specification:Königsberg;stroke-width:0.264583"
       d="m 133.94883,36.722047 h -4.38057 v -4.34083 c 0,-0.34727 -0.12219,-0.63987 -0.36656,-0.87781 -0.23795,-0.24437 -0.52735,-0.36656 -0.86818,-0.36656 -0.34726,0 -0.63986,0.12219 -0.8778,0.36656 -0.24438,0.23794 -0.36657,0.53054 -0.36657,0.87781 v 11.19934 c 0,0.34727 0.12219,0.63987 0.36657,0.87782 0.23794,0.24437 0.53054,0.36656 0.8778,0.36656 0.34083,0 0.63023,-0.12219 0.86818,-0.36656 0.24437,-0.23795 0.36656,-0.53055 0.36656,-0.87782 v -4.37941 h 4.46611 c 0.0162,0.0568 1.17948,-0.1154 1.18151,-1.21104 0.002,-1.095639 -1.16626,-1.36885 -1.26705,-1.26806 z m 2.14031,6.85851 c 0,0.34727 0.12219,0.63987 0.36657,0.87782 0.24436,0.24437 0.53697,0.36656 0.87781,0.36656 0.34082,0 0.63344,-0.12219 0.8778,-0.36656 0.23794,-0.23795 0.35691,-0.53055 0.35691,-0.87782 v -11.19934 c 0,-0.34727 -0.11897,-0.63987 -0.35691,-0.87781 -0.24436,-0.24437 -0.53698,-0.36656 -0.8778,-0.36656 -0.34084,0 -0.63345,0.12219 -0.87781,0.36656 -0.24438,0.23794 -0.36657,0.53054 -0.36657,0.87781 z"
       sodipodi:nodetypes="ccscscsscscscczcccssssssccc" />
    <path
       inkscape:export-ydpi="96"
       inkscape:export-xdpi="96"
       sodipodi:nodetypes="ccsccccscssscscccccsccscc"
       id="path369-3"
       style="font-size:19.7556px;line-height:1.25;font-family:Königsberg;-inkscape-font-specification:Königsberg;stroke-width:0.264583"
       d="m 146.11493,36.648567 -3.08199,-4.93294 c -0.18007,-0.28939 -0.43731,-0.47267 -0.77171,-0.54984 -0.3344,-0.0772 -0.64631,-0.0257 -0.9357,0.15434 -0.28938,0.18649 -0.47266,0.44694 -0.54983,0.78135 -0.0772,0.32797 -0.0257,0.63987 0.15433,0.93569 l 4.26368,6.82957 v 3.71382 c 0,0.34727 0.12217,0.63987 0.36655,0.87782 0.24438,0.24437 0.53698,0.36656 0.87782,0.36656 0.34083,0 0.63343,-0.12219 0.87781,-0.36656 0.23795,-0.23795 0.35692,-0.53055 0.35692,-0.87782 v -3.41961 c 0,0 0.0917,-0.65124 -0.16851,-1.23691 -0.26024,-0.58566 -1.38937,-2.27547 -1.38937,-2.27547 z m 3.33897,0.46477 2.49219,-4.0762 c 0.18008,-0.29582 0.23151,-0.60772 0.15435,-0.93569 -0.0772,-0.33441 -0.26045,-0.59486 -0.54984,-0.78135 -0.2894,-0.18007 -0.60128,-0.23151 -0.93569,-0.15434 -0.33439,0.0772 -0.59162,0.26045 -0.77169,0.54984 l -2.55899,4.137421 c -0.25605,0.441749 -0.37447,1.189069 0.22489,1.744229 0.30929,0.28647 0.76726,0.34591 1.16883,0.21173 0.38964,-0.17196 0.57275,-0.36329 0.77595,-0.69564 z" />
  </g>
</svg>
