<?xml version="1.0" encoding="UTF-8" standalone="no"?>
<svg
   xmlns:dc="http://purl.org/dc/elements/1.1/"
   xmlns:cc="http://creativecommons.org/ns#"
   xmlns:rdf="http://www.w3.org/1999/02/22-rdf-syntax-ns#"
   xmlns:svg="http://www.w3.org/2000/svg"
   xmlns="http://www.w3.org/2000/svg"
   xmlns:sodipodi="http://sodipodi.sourceforge.net/DTD/sodipodi-0.dtd"
   xmlns:inkscape="http://www.inkscape.org/namespaces/inkscape"
   sodipodi:docname="redsign.svg"
   inkscape:version="1.0 (4035a4fb49, 2020-05-01)"
   id="svg8"
   version="1.1"
   viewBox="0 0 210 297"
   height="297mm"
   width="210mm">
  <defs
     id="defs2" />
  <sodipodi:namedview
     inkscape:window-maximized="1"
     inkscape:window-y="-8"
     inkscape:window-x="-8"
     inkscape:window-height="1017"
     inkscape:window-width="1920"
     showgrid="false"
     inkscape:document-rotation="0"
     inkscape:current-layer="layer1"
     inkscape:document-units="mm"
     inkscape:cy="284.1075"
     inkscape:cx="189.68666"
     inkscape:zoom="0.78239463"
     inkscape:pageshadow="2"
     inkscape:pageopacity="0.0"
     borderopacity="1.0"
     bordercolor="#666666"
     pagecolor="#ffffff"
     id="base" />
  <metadata
     id="metadata5">
    <rdf:RDF>
      <cc:Work
         rdf:about="">
        <dc:format>image/svg+xml</dc:format>
        <dc:type
           rdf:resource="http://purl.org/dc/dcmitype/StillImage" />
        <dc:title></dc:title>
      </cc:Work>
    </rdf:RDF>
  </metadata>
  <g
     id="layer1"
     inkscape:groupmode="layer"
     inkscape:label="Слой 1">
    <path
       d="m 26.918076,28.873856 1.716179,-1.063196 q 1.435029,-0.88902 2.017183,-1.087569 0.876163,-0.299634 1.715694,-0.01732 0.835903,0.276461 1.35843,1.119907 0.435438,0.702872 0.431782,1.442716 0.0022,0.736215 -0.442265,1.392516 -0.448095,0.650444 -1.52806,1.327601 l 5.580491,2.08681 -1.066022,0.660416 -5.574634,-2.09044 -0.492009,0.304808 2.481999,4.006368 -0.861018,0.533411 z m 1.383544,0.310032 1.814327,2.928632 1.489145,-0.906334 q 0.861017,-0.533413 1.169423,-0.951423 0.314264,-0.421637 0.321349,-0.920448 0.0093,-0.508296 -0.266461,-0.953449 -0.26852,-0.433437 -0.72053,-0.639726 -0.455638,-0.212148 -0.930705,-0.128574 -0.475067,0.08358 -1.359514,0.6315 z"
       style="font-style:normal;font-variant:normal;font-weight:normal;font-stretch:normal;font-size:14.1111px;line-height:1.25;font-family:'Century Gothic';-inkscape-font-specification:'Century Gothic';fill:#d40000;stroke-width:0.264583"
       id="path880" />
    <path
       d="m 38.305733,23.685572 5.740515,-0.885612 0.152326,0.987396 -4.7395,0.731183 0.483257,3.132426 4.698642,-0.724878 0.151278,0.980586 -4.698641,0.724878 0.60616,3.929155 4.698642,-0.724878 0.152335,0.987394 -5.699658,0.879309 z"
       style="font-style:normal;font-variant:normal;font-weight:normal;font-stretch:normal;font-size:14.1111px;line-height:1.25;font-family:'Century Gothic';-inkscape-font-specification:'Century Gothic';fill:#d40000;stroke-width:0.264583"
       id="path882" />
    <path
       d="m 47.634329,32.450427 2.998502,-9.681763 2.007439,0.621712 q 2.171976,0.67268 3.044627,1.325231 1.255611,0.929856 1.668313,2.392092 0.419292,1.464269 -0.102546,3.149201 -0.45049,1.454569 -1.424791,2.364616 -0.96772,0.912086 -2.137802,1.126749 -1.163499,0.216707 -2.973483,-0.343861 z m 1.211366,-0.627448 1.118899,0.346529 q 2.007437,0.621716 2.861543,0.612142 1.202646,-0.01704 2.113291,-0.744835 0.912681,-0.734377 1.32648,-2.070475 0.434183,-1.401916 0.06407,-2.60572 -0.370126,-1.203798 -1.467019,-1.947444 -0.822663,-0.557738 -2.909085,-1.203912 L 51.26937,23.997268 Z"
       style="font-style:normal;font-variant:normal;font-weight:normal;font-stretch:normal;font-size:14.1111px;line-height:1.25;font-family:'Century Gothic';-inkscape-font-specification:'Century Gothic';fill:#d40000;stroke-width:0.264583"
       id="path884" />
    <path
       d="m 57.307028,34.704535 0.995778,0.131382 q -0.329841,1.876629 0.603288,2.618341 0.399142,0.317264 0.895511,0.412552 0.500656,0.0899 0.932711,-0.07718 0.432052,-0.167076 0.710733,-0.517666 0.317267,-0.399144 0.351974,-0.996472 0.04799,-0.824422 -0.347423,-2.353353 -0.39652,-1.538614 -0.373401,-2.065968 0.02516,-0.895369 0.543932,-1.548018 0.411596,-0.517811 0.998406,-0.746704 0.58682,-0.228894 1.227439,-0.115764 0.650294,0.112021 1.178887,0.532185 0.56096,0.445881 0.823461,1.112223 0.272178,0.665235 0.225298,1.842603 l -1.037402,-0.02363 q 0.02391,-0.949165 -0.144266,-1.390903 -0.16279,-0.437448 -0.534968,-0.733269 -0.480049,-0.381576 -1.019006,-0.334691 -0.533568,0.05117 -0.872275,0.477283 -0.205788,0.258902 -0.290846,0.587372 -0.08505,0.328468 -0.02641,0.841572 0.03637,0.27536 0.394584,1.607489 0.425706,1.579412 0.33706,2.477131 -0.08865,0.897726 -0.564549,1.496439 -0.685978,0.863013 -1.84993,0.976423 -1.158559,0.1177 -2.097083,-0.628297 -0.722771,-0.574506 -1.006295,-1.424789 -0.279238,-0.855676 -0.0552,-2.156274 z"
       style="font-style:normal;font-variant:normal;font-weight:normal;font-stretch:normal;font-size:14.1111px;line-height:1.25;font-family:'Century Gothic';-inkscape-font-specification:'Century Gothic';stroke-width:0.264583"
       id="path886" />
    <path
       d="m 69.772516,35.937939 0.504391,0.878341 -8.789388,5.047208 -0.504385,-0.878342 z"
       style="font-style:normal;font-variant:normal;font-weight:normal;font-stretch:normal;font-size:14.1111px;line-height:1.25;font-family:'Century Gothic';-inkscape-font-specification:'Century Gothic';stroke-width:0.264583"
       id="path888" />
    <path
       d="m 71.576629,52.24004 -0.791686,-0.737548 q 0.779244,-0.897836 1.142431,-1.935361 0.370519,-1.031078 0.310766,-1.986956 -0.07437,-1.189678 -0.726329,-2.232812 -0.651555,-1.036251 -1.692524,-1.564918 -1.034084,-0.529098 -2.148114,-0.459488 -1.141548,0.07133 -2.13483,0.747817 -0.986395,0.676057 -1.510332,1.792664 -0.517063,1.116177 -0.436692,2.402138 0.09754,1.561027 1.045224,2.585681 0.947694,1.024655 2.363014,1.136422 l -0.201571,-3.225205 0.976509,-0.06102 0.272448,4.359874 q -2.345831,0.132772 -3.814438,-1.163093 -1.461291,-1.289415 -1.605669,-3.600012 -0.175317,-2.805723 1.634154,-4.561851 1.392997,-1.350404 3.325377,-1.471148 1.437249,-0.0898 2.720178,0.554912 1.28294,0.644713 2.056125,1.859765 0.780062,1.214621 0.879336,2.803156 0.08037,1.285953 -0.31636,2.449847 -0.389845,1.163453 -1.347022,2.307136 z"
       style="font-style:normal;font-variant:normal;font-weight:normal;font-stretch:normal;font-size:14.1111px;line-height:1.25;font-family:'Century Gothic';-inkscape-font-specification:'Century Gothic';stroke-width:0.264583"
       id="path890" />
    <path
       d="m 62.412254,54.332403 9.62803,3.16682 -0.06884,0.209437 -9.475404,3.977147 7.369932,2.424095 -0.31217,0.949048 -9.628018,-3.166823 0.07105,-0.215987 9.366546,-3.954911 -7.278296,-2.393956 z"
       style="font-style:normal;font-variant:normal;font-weight:normal;font-stretch:normal;font-size:14.1111px;line-height:1.25;font-family:'Century Gothic';-inkscape-font-specification:'Century Gothic';stroke-width:0.264583"
       id="path892" />
    <path
       d="m 66.012832,70.986813 -0.696495,0.744826 -6.688446,-6.254315 -2.658897,2.843478 -0.714651,-0.668254 3.355393,-3.588305 z"
       style="font-style:normal;font-variant:normal;font-weight:normal;font-stretch:normal;font-size:14.1111px;line-height:1.25;font-family:'Century Gothic';-inkscape-font-specification:'Century Gothic';stroke-width:0.264583"
       id="path894" />
    <path
       d="m 47.059213,69.027113 q 1.956323,-1.21197 4.083356,-0.722468 2.12708,0.489716 3.310022,2.399191 1.172056,1.891898 0.670607,4.026229 -0.495574,2.130709 -2.38747,3.302767 -1.915326,1.186562 -4.046026,0.691001 -2.1307,-0.49557 -3.284612,-2.358185 -0.769276,-1.241743 -0.828619,-2.67203 -0.05348,-1.433905 0.613126,-2.67362 0.662982,-1.245567 1.869579,-1.993072 z m 0.563501,0.818062 q -0.954734,0.591467 -1.501464,1.619122 -0.546717,1.027645 -0.504492,2.168644 0.04224,1.140987 0.684505,2.177725 0.950709,1.534606 2.667658,1.937987 1.719175,0.39389 3.218638,-0.535042 1.001589,-0.620503 1.549715,-1.632814 0.553987,-1.015932 0.505893,-2.153301 -0.04223,-1.140989 -0.680869,-2.171873 -0.635013,-1.025023 -1.626955,-1.553347 -0.989699,-0.537808 -2.165014,-0.498635 -1.175309,0.03918 -2.147615,0.641534 z"
       style="font-style:normal;font-variant:normal;font-weight:normal;font-stretch:normal;font-size:14.1111px;line-height:1.25;font-family:'Century Gothic';-inkscape-font-specification:'Century Gothic';stroke-width:0.264583"
       id="path896" />
    <path
       d="m 40.416937,78.161084 -4.984807,-0.968747 0.19059,-0.980727 3.997311,0.776843 0.604652,-3.111268 -3.997313,-0.776854 0.190589,-0.980728 3.997311,0.776844 0.947722,-4.876591 0.987498,0.191885 z"
       style="font-style:normal;font-variant:normal;font-weight:normal;font-stretch:normal;font-size:14.1111px;line-height:1.25;font-family:'Century Gothic';-inkscape-font-specification:'Century Gothic';stroke-width:0.264583"
       id="path898" />
    <path
       d="m 32.176612,74.746653 -0.545997,0.820178 -4.628566,-3.081281 0.54601,-0.820177 1.88124,1.252368 5.070556,-7.616763 0.860324,0.572728 -5.070548,7.616764 z"
       style="font-style:normal;font-variant:normal;font-weight:normal;font-stretch:normal;font-size:14.1111px;line-height:1.25;font-family:'Century Gothic';-inkscape-font-specification:'Century Gothic';stroke-width:0.264583"
       id="path900" />
    <path
       d="m 43.771198,62.037524 q -0.07234,-0.524246 1.24e-4,-0.92277 0.06951,-0.398125 0.246457,-0.677519 0.174384,-0.276005 0.440515,-0.437185 0.263543,-0.157788 0.576304,-0.200953 0.37531,-0.05179 0.673802,0.04359 0.295928,0.09879 0.515962,0.329464 0.217046,0.231085 0.356978,0.585131 0.140333,0.357022 0.204044,0.818709 0.07156,0.518293 0.002,0.916405 -0.06952,0.398123 -0.243899,0.674136 -0.17695,0.279394 -0.440497,0.437177 -0.263145,0.160772 -0.575897,0.203934 -0.375278,0.05207 -0.671244,-0.04699 -0.298901,-0.09836 -0.518927,-0.329059 -0.219626,-0.2277 -0.359545,-0.581731 -0.142903,-0.353635 -0.206207,-0.812349 z m 0.545705,-0.11475 q 0.04758,0.342512 0.139979,0.618113 0.09011,0.278958 0.23464,0.468457 0.144531,0.189498 0.344828,0.277193 0.19733,0.08812 0.456467,0.05239 0.250223,-0.03459 0.415048,-0.181746 0.16227,-0.143806 0.24967,-0.368335 0.08779,-0.221561 0.105757,-0.509365 0.01841,-0.28483 -0.02478,-0.597588 -0.04792,-0.345495 -0.140744,-0.624075 -0.09264,-0.275575 -0.234226,-0.465483 -0.144123,-0.186514 -0.341436,-0.274627 -0.197322,-0.08812 -0.453488,-0.05274 -0.250207,0.0346 -0.415467,0.178755 -0.164843,0.147202 -0.252642,0.368761 -0.09037,0.224949 -0.108742,0.509778 -0.0184,0.284827 0.0252,0.60056 z"
       style="font-size:7.05556px;line-height:1.25;font-family:Consolas;-inkscape-font-specification:Consolas;stroke-width:0.230929"
       id="path931" />
    <path
       d="m 40.29328,59.369519 0.660409,0.224737 0.295102,2.689019 0.05931,0.852367 0.638352,-1.875892 0.404924,-1.189865 0.472524,0.160808 -1.26604,3.720482 -0.651889,-0.221802 -0.285506,-2.549174 -0.08331,-0.978014 -0.678067,1.992604 -0.359335,1.056098 -0.472536,-0.160813 z"
       style="font-size:7.05556px;line-height:1.25;font-family:Consolas;-inkscape-font-specification:Consolas;stroke-width:0.230929"
       id="path933" />
    <path
       d="m 37.521675,58.05875 1.800014,1.368541 -2.378571,3.128475 -0.433244,-0.329392 2.101947,-2.764647 -1.366769,-1.039146 z"
       style="font-size:7.05556px;line-height:1.25;font-family:Consolas;-inkscape-font-specification:Consolas;stroke-width:0.230929"
       id="path935" />
    <path
       d="m 35.930942,56.57928 -0.560954,-0.71027 0.353951,-0.279548 1.457379,1.845297 -0.353953,0.279546 -0.560964,-0.710275 -2.371505,1.872972 0.560955,0.710276 -0.358671,0.283275 -1.457378,-1.845297 0.358671,-0.283274 0.560964,0.710268 z"
       style="font-size:7.05556px;line-height:1.25;font-family:Consolas;-inkscape-font-specification:Consolas;stroke-width:0.230929"
       id="path937" />
    <path
       d="m 35.135331,52.339089 0.111681,0.688597 -2.235582,1.523206 -0.724689,0.452631 1.955981,-0.317255 1.240673,-0.201233 0.07991,0.492701 -3.879321,0.629212 -0.110242,-0.679698 2.116621,-1.449078 0.824404,-0.532758 -2.077674,0.336991 -1.101174,0.178607 -0.07991,-0.492709 z"
       style="font-size:7.05556px;line-height:1.25;font-family:Consolas;-inkscape-font-specification:Consolas;stroke-width:0.230929"
       id="path939" />
    <path
       inkscape:transform-center-y="-0.068958565"
       inkscape:transform-center-x="-0.28953736"
       d="m 35.030721,49.158656 -0.280891,2.224924 -3.898238,-0.380375 0.280891,-2.224923 0.447391,0.04364 -0.213604,1.691905 1.207952,0.117852 0.205277,-1.626026 0.447389,0.04364 -0.205278,1.626029 1.342151,0.131008 0.213615,-1.691903 z"
       style="font-size:7.05556px;line-height:1.25;font-family:Consolas;-inkscape-font-specification:Consolas;stroke-width:0.230929"
       id="path941" />
    <path
       inkscape:transform-center-y="1.4485304"
       inkscape:transform-center-x="-24.398474"
       d="m 35.354137,45.360161 q 0.254947,0.114898 0.399892,0.305553 0.144946,0.190651 0.189774,0.435135 0.04207,0.243243 -0.01343,0.534836 -0.05394,0.288902 -0.196397,0.604102 -0.06422,0.142548 -0.139446,0.280159 -0.07397,0.134869 -0.149732,0.259035 -0.07449,0.121435 -0.148329,0.226681 -0.07384,0.105257 -0.140505,0.18734 l -0.471529,-0.212504 q 0.169411,-0.171006 0.328177,-0.406178 0.159999,-0.237921 0.307017,-0.564146 0.106279,-0.235753 0.144744,-0.416297 0.03731,-0.184473 0.01264,-0.320823 -0.02584,-0.140274 -0.108998,-0.233826 -0.08193,-0.09629 -0.216262,-0.156822 -0.145293,-0.06549 -0.283791,-0.02895 -0.140002,0.03255 -0.278806,0.128303 -0.14154,0.09452 -0.283936,0.234832 -0.143893,0.136336 -0.294244,0.279663 -0.150343,0.14332 -0.309181,0.276222 -0.160344,0.128923 -0.332041,0.209849 -0.174446,0.07971 -0.365027,0.09275 -0.189339,0.01031 -0.400421,-0.08483 -0.183672,-0.08277 -0.327251,-0.239872 -0.143581,-0.157092 -0.207772,-0.380583 -0.06692,-0.224749 -0.03823,-0.515253 0.02988,-0.293248 0.188075,-0.644131 0.04074,-0.09047 0.09596,-0.190927 0.05638,-0.103211 0.121047,-0.202706 0.06313,-0.103478 0.129262,-0.199001 0.06734,-0.09827 0.130075,-0.17885 l 0.438611,0.197681 q -0.155443,0.183912 -0.280726,0.381405 -0.128028,0.196254 -0.216987,0.393634 -0.18903,0.419428 -0.138157,0.679812 0.05085,0.260388 0.286607,0.366639 0.145292,0.06549 0.285296,0.03292 0.141233,-0.03528 0.282775,-0.129806 0.141541,-0.09453 0.285442,-0.230859 0.142387,-0.140317 0.292738,-0.283635 0.150345,-0.143328 0.310697,-0.272248 0.161575,-0.13166 0.338758,-0.210123 0.174444,-0.07969 0.36653,-0.08877 0.193319,-0.01181 0.40714,0.08456 z"
       style="font-size:7.05556px;line-height:1.25;font-family:Consolas;-inkscape-font-specification:Consolas;stroke-width:0.230929"
       id="path943" />
    <path
       d="m 38.840421,43.247303 -0.404749,0.350215 -1.180497,-1.364311 -1.248343,1.080149 1.180498,1.364311 -0.404749,0.350214 -2.571518,-2.971922 0.404749,-0.350214 1.088029,1.257443 1.248335,-1.080154 -1.088022,-1.257438 0.404749,-0.350214 z"
       style="font-size:7.05556px;line-height:1.25;font-family:Consolas;-inkscape-font-specification:Consolas;stroke-width:0.230929"
       id="path945" />
    <path
       d="m 41.559468,40.249766 q 0.16232,0.503706 0.160176,0.908771 7.3e-4,0.404151 -0.124999,0.710037 -0.123768,0.302106 -0.357856,0.507059 -0.232135,0.201173 -0.532644,0.298015 -0.360604,0.116207 -0.671127,0.07411 -0.308586,-0.04592 -0.565347,-0.234824 -0.253904,-0.18987 -0.453197,-0.514224 -0.200233,-0.327213 -0.343184,-0.770818 -0.160474,-0.497979 -0.16119,-0.902125 -7.3e-4,-0.404153 0.12312,-0.706242 0.125741,-0.305884 0.357858,-0.50706 0.231205,-0.204037 0.531706,-0.300875 0.360621,-0.11621 0.669205,-0.07032 0.311449,0.04497 0.568206,0.233899 0.255836,0.186089 0.455129,0.510441 0.202164,0.323431 0.344199,0.764173 z m -0.517466,0.207832 q -0.106064,-0.329127 -0.245187,-0.584413 -0.13722,-0.259062 -0.312448,-0.420575 -0.175259,-0.161505 -0.387745,-0.213082 -0.209626,-0.05249 -0.458623,0.02774 -0.240408,0.07747 -0.37717,0.251073 -0.134822,0.169814 -0.181882,0.406121 -0.04825,0.233394 -0.01569,0.519995 0.03144,0.28367 0.128278,0.584173 0.106984,0.331989 0.247033,0.59014 0.139123,0.255288 0.311522,0.417715 0.17433,0.158646 0.383954,0.21114 0.209626,0.05249 0.455755,-0.02682 0.240407,-0.07747 0.378096,-0.248209 0.136764,-0.173601 0.184744,-0.407047 0.04986,-0.237242 0.01851,-0.520916 -0.03135,-0.283702 -0.129127,-0.587072 z"
       style="font-size:7.05556px;line-height:1.25;font-family:Consolas;-inkscape-font-specification:Consolas;stroke-width:0.230929"
       id="path947" />
    <path
       d="m 44.956116,39.597811 q 0.0015,0.240543 -0.08712,0.478666 -0.08865,0.235131 -0.276939,0.422748 -0.18824,0.18764 -0.482158,0.306795 -0.293929,0.116146 -0.702865,0.118766 l -0.487106,0.0031 0.009,1.410206 -0.535221,0.0034 -0.02518,-3.929935 1.106509,-0.0071 q 0.291672,-0.0019 0.559707,0.06253 0.268017,0.06143 0.470399,0.204462 0.205381,0.143018 0.327127,0.370766 0.121735,0.22775 0.123831,0.555495 z m -0.556107,0.02762 q -0.0024,-0.378863 -0.253284,-0.578719 -0.247851,-0.19988 -0.692867,-0.197033 l -0.547235,0.0035 0.01036,1.617677 0.49913,-0.0032 q 0.475078,-0.003 0.729331,-0.212153 0.257262,-0.209128 0.254563,-0.630085 z"
       style="font-size:7.05556px;line-height:1.25;font-family:Consolas;-inkscape-font-specification:Consolas;stroke-width:0.230929"
       id="path949" />
  </g>
</svg>
