<?xml version="1.0" encoding="UTF-8" standalone="no"?>
<svg
   xmlns:dc="http://purl.org/dc/elements/1.1/"
   xmlns:cc="http://creativecommons.org/ns#"
   xmlns:rdf="http://www.w3.org/1999/02/22-rdf-syntax-ns#"
   xmlns:svg="http://www.w3.org/2000/svg"
   xmlns="http://www.w3.org/2000/svg"
   xmlns:sodipodi="http://sodipodi.sourceforge.net/DTD/sodipodi-0.dtd"
   xmlns:inkscape="http://www.inkscape.org/namespaces/inkscape"
   sodipodi:docname="vart.svg"
   inkscape:version="1.0 (4035a4fb49, 2020-05-01)"
   width="1980px"
   height="1120px"
   viewBox="0 0 1980 1120"
   version="1.1"
   id="SVGRoot">
  <defs
     id="defs1566" />
  <sodipodi:namedview
     inkscape:window-maximized="1"
     inkscape:window-y="-8"
     inkscape:window-x="-8"
     inkscape:window-height="1017"
     inkscape:window-width="1920"
     showgrid="false"
     inkscape:document-rotation="0"
     inkscape:current-layer="layer1"
     inkscape:document-units="px"
     inkscape:cy="560"
     inkscape:cx="400"
     inkscape:zoom="0.34074713"
     inkscape:pageshadow="2"
     inkscape:pageopacity="0.0"
     borderopacity="1.0"
     bordercolor="#666666"
     pagecolor="#ffffff"
     id="base" />
  <metadata
     id="metadata1569">
    <rdf:RDF>
      <cc:Work
         rdf:about="">
        <dc:format>image/svg+xml</dc:format>
        <dc:type
           rdf:resource="http://purl.org/dc/dcmitype/StillImage" />
        <dc:title></dc:title>
      </cc:Work>
    </rdf:RDF>
  </metadata>
  <g
     id="layer1"
     inkscape:groupmode="layer"
     inkscape:label="Слой 1">
    <path
       d="m 527.63209,427.20208 c -2.61192,-5.81742 -6.88597,-9.85403 -12.82214,-12.10986 -5.81747,-2.1369 -11.63491,-1.89951 -17.45236,0.71262 -5.69872,2.49324 -9.67596,6.70781 -11.93172,12.64396 -2.25576,5.9363 -2.07765,11.81316 0.53427,17.63058 l 93.31673,206.93502 0.35612,0.53355 0.35614,0.53353 1.06855,2.13711 1.42467,1.78153 1.42463,1.60247 1.7808,1.60247 1.6029,1.24615 2.137,1.24615 0.7122,0.35632 0.5343,0.35629 0.7123,0.18467 2.3151,0.71261 1.9589,0.71262 2.3151,0.18466 2.137,0.18466 2.1371,-0.18466 2.3151,-0.18466 1.9589,-0.71262 2.3151,-0.71261 0.7123,-0.18467 0.5343,-0.35629 0.5342,-0.35632 2.1371,-1.24615 1.7808,-1.24615 1.7808,-1.60247 1.4247,-1.60247 1.2465,-1.78153 1.2465,-2.13711 0.3561,-0.53353 0.3561,-0.53355 c 3.0245,-6.31716 2.7687,-12.48 0.2154,-18.20898 -32.0368,-71.85619 -65.68876,-145.89122 -93.53133,-207.60334 z m 129.50119,145.56998 57.1316,-126.69268 c 2.6121,-5.81742 2.79,-11.69428 0.5343,-17.63058 -2.2557,-5.93615 -6.2922,-10.15072 -12.1098,-12.64396 h 6e-4 c -5.6987,-2.61192 -11.5162,-2.84952 -17.4524,-0.71262 -5.9361,2.25583 -10.2102,6.29244 -12.8221,12.10986 l -59.8084,132.87471 c 0,0 -4.3585,10.85798 -2.9069,20.53736 1.5645,9.18221 6.5239,14.7624 12.533,17.18954 4.9513,1.99995 10.6152,1.85944 15.6795,-0.16615 6.0965,-2.42714 9.3923,-7.19687 12.628,-12.0781 3.7589,-6.20142 6.5926,-12.7837 6.5926,-12.7837 z"
       style="font-size:19.7556px;line-height:1.25;font-family:Königsberg;-inkscape-font-specification:Königsberg;fill:#808080;stroke-width:4.88461"
       id="path363-0"
       sodipodi:nodetypes="cccscccccccccccccccccccccccccccccccccscccsccccccscccc" />
    <path
       d="m 1049.3135,664.7851 c 5.9361,2.25578 11.7536,2.07785 17.4524,-0.53356 5.8175,-2.61192 9.8541,-6.82669 12.1097,-12.64411 2.2557,-5.93612 2.0776,-11.81299 -0.5343,-17.63043 L 985.02466,427.0418 c -3.6806,-8.90418 -10.6259,-13.35637 -20.836,-13.35637 -10.2104,0 -17.1555,4.45219 -20.8361,13.35637 l -93.3168,206.9352 c -2.6119,5.81742 -2.7898,11.69428 -0.5341,17.6304 2.2557,5.81745 6.2329,10.03222 11.9317,12.64412 5.8175,2.61195 11.6941,2.78974 17.6304,0.53356 5.8175,-2.25583 10.0322,-6.23301 12.6441,-11.93171 l 13.8907,-30.62418 63.8839,0.76246 c 17.5706,0.912 28.3482,-11.08578 27.1831,-24.53336 -1.1651,-13.44775 -10.5058,-22.01979 -27.4105,-21.63914 l -42.9986,-0.35815 37.9322,-84.23445 53.16194,117.16966 c 21.7526,51.55014 26.0267,53.13286 31.9629,55.38869 z"
       style="font-size:19.7556px;line-height:1.25;font-family:Königsberg;-inkscape-font-specification:Königsberg;fill:#808080;stroke-width:4.88461"
       id="path323-8"
       sodipodi:nodetypes="sccccscccccccczccccs" />
    <path
       d="m 1199.9241,585.24188 54.3578,72.024 c 3.9178,4.98647 8.9635,7.95453 15.1373,8.90436 6.2922,0.83077 11.991,-0.65354 17.096,-4.45217 4.9866,-3.79922 7.8953,-8.84492 8.7263,-15.13718 0.9509,-6.29242 -0.5334,-11.93189 -4.4522,-16.91815 l -41.3158,-54.85035 c 15.0779,-6.52965 27.247,-16.68055 36.5076,-30.4525 9.3792,-14.12805 14.0688,-29.68099 14.0688,-46.6584 h -2e-4 c 0,-23.03243 -8.1325,-42.7405 -24.3977,-59.12437 -16.3838,-16.50257 -36.0326,-24.81322 -58.9462,-24.93194 h -67.6724 -1.2461 l -1.0691,0.18466 -1.2462,-0.18466 h -1.0689 c -6.411,0 -11.8129,2.19636 -16.2057,6.58912 -4.5113,4.51143 -6.7672,9.91347 -6.7672,16.20589 v 206.93504 c 0,6.41114 2.2559,11.81298 6.7672,16.20591 4.3928,4.51146 9.7947,6.76726 16.2057,6.76726 6.2925,0 11.6351,-2.2558 16.0279,-6.76726 4.5113,-4.39293 6.7672,-9.79477 6.7672,-16.20591 v -54.08732 c -2e-4,-43.29158 -2e-4,-86.58315 -2e-4,-129.87473 h 49.3296 c 10.3291,0.12936 19.2333,3.92216 26.7128,11.39743 7.3607,7.47969 11.0413,16.44331 11.0413,26.89088 0,10.44758 -3.6806,19.4112 -11.0413,26.89091 -7.4795,7.47969 -16.4433,11.27871 -26.8909,11.39741 -25.0742,1.26276 -33.5853,24.51268 -16.4254,49.25207 z"
       style="font-size:19.7556px;line-height:1.25;font-family:Königsberg;-inkscape-font-specification:Königsberg;fill:#808080;stroke-width:4.88461"
       id="path355-7"
       sodipodi:nodetypes="ccccccccssscccccsssscscsccccsccc" />
    <path
       d="m 1421.3033,413.81478 h -57.2938 c -6.411,0 -11.8129,2.25583 -16.2057,6.76726 -4.5114,4.39275 -6.7673,9.7946 -6.7673,16.20573 0,6.29242 2.2559,11.63501 6.7673,16.02776 4.3928,4.51145 9.7947,6.76726 16.2057,6.76726 h 29.7917 c 13.7992,-1.04307 19.8416,11.54233 19.894,19.37482 v 164.58722 c 0,6.41114 2.2559,11.81299 6.7674,16.20592 4.5114,4.51145 9.9135,6.76725 16.2058,6.76725 6.2922,0 11.6944,-2.2558 16.2057,-6.76725 4.3928,-4.39293 6.5891,-9.79478 6.5891,-16.20592 V 466.1887 c 0,0 0.8346,-31.81809 -7.5388,-41.27651 -8.3734,-9.45839 -19.5172,-11.09741 -30.6211,-11.09741 z m 74.1576,45.76801 h 13.8663 c 6.2923,0 11.6942,-2.25581 16.2058,-6.76726 4.5113,-4.39275 6.7672,-9.73534 6.7672,-16.02776 0,-6.41113 -2.2559,-11.81298 -6.7672,-16.20573 -4.5116,-4.51143 -9.9135,-6.76726 -16.2058,-6.76726 h -12.8841 c -11.1106,-1.72615 -19.6183,4.50775 -23.1287,9.48278 -5.3209,7.24301 -6.0837,18.70762 1.6597,27.58338 5.7708,6.3541 12.4118,8.70185 20.4864,8.70185 z"
       style="font-size:19.7556px;line-height:1.25;font-family:Königsberg;-inkscape-font-specification:Königsberg;fill:#808080;stroke-width:4.88461"
       id="path359-6"
       sodipodi:nodetypes="cscscsccscsssczccscsccccccc" />
    <ellipse
       style="fill:#808080;fill-rule:evenodd;stroke:#000000;stroke-width:0.711527"
       id="path1421"
       cx="782.15039"
       cy="540.01953"
       rx="24.440891"
       ry="25.779165" />
  </g>
</svg>
